<svg xmlns="http://www.w3.org/2000/svg" xmlns:xlink="http://www.w3.org/1999/xlink" width="2000" zoomAndPan="magnify" viewBox="0 0 1500 1499.999933" height="2000" preserveAspectRatio="xMidYMid meet" version="1.0"><defs><g/><clipPath id="24ed16f88d"><rect x="0" width="680" y="0" height="589"/></clipPath><clipPath id="c9aeaedeb7"><rect x="0" width="841" y="0" height="304"/></clipPath><clipPath id="35910c215a"><rect x="0" width="736" y="0" height="50"/></clipPath></defs><g transform="matrix(1, 0, 0, 1, 422, 431)"><g clip-path="url(#24ed16f88d)"><g fill="#e1e1e1" fill-opacity="1"><g transform="translate(1.669357, 426.789994)"><g><path d="M 175.296875 -297.46875 C 181.960938 -297.46875 189.378906 -297.390625 197.546875 -297.234375 C 205.722656 -297.085938 214.125 -296.40625 222.75 -295.1875 C 231.382812 -293.976562 239.9375 -292.085938 248.40625 -289.515625 C 256.882812 -286.941406 264.609375 -283.382812 271.578125 -278.84375 C 282.171875 -271.875 289.507812 -263.925781 293.59375 -255 C 297.6875 -246.070312 299.734375 -237.21875 299.734375 -228.4375 C 299.734375 -216.625 297.382812 -206.707031 292.6875 -198.6875 C 288 -190.664062 282.019531 -184.082031 274.75 -178.9375 C 269.601562 -175.300781 263.925781 -172.269531 257.71875 -169.84375 C 251.519531 -167.425781 245.164062 -165.382812 238.65625 -163.71875 C 232.144531 -162.050781 225.859375 -160.6875 219.796875 -159.625 C 213.742188 -158.570312 208.296875 -157.738281 203.453125 -157.125 L 203.453125 -153.046875 C 207.390625 -152.441406 212.15625 -151.609375 217.75 -150.546875 C 223.351562 -149.484375 229.03125 -148.269531 234.78125 -146.90625 C 240.539062 -145.550781 246.21875 -143.8125 251.8125 -141.6875 C 257.414062 -139.570312 262.335938 -137 266.578125 -133.96875 C 271.722656 -130.03125 275.960938 -125.710938 279.296875 -121.015625 C 282.628906 -116.328125 285.203125 -111.5625 287.015625 -106.71875 C 288.828125 -101.875 290.113281 -97.179688 290.875 -92.640625 C 291.632812 -88.097656 292.164062 -84.015625 292.46875 -80.390625 L 295.640625 -45.421875 C 296.242188 -38.148438 297.453125 -32.394531 299.265625 -28.15625 C 301.085938 -23.914062 303.132812 -20.660156 305.40625 -18.390625 C 307.675781 -16.117188 310.097656 -14.679688 312.671875 -14.078125 C 315.242188 -13.472656 317.59375 -13.171875 319.71875 -13.171875 C 321.53125 -13.171875 323.421875 -13.625 325.390625 -14.53125 C 327.359375 -15.4375 329.097656 -16.191406 330.609375 -16.796875 L 335.609375 -7.71875 C 328.648438 -2.875 320.628906 0.679688 311.546875 2.953125 C 302.460938 5.222656 293.53125 6.359375 284.75 6.359375 C 278.382812 6.359375 271.191406 5.597656 263.171875 4.078125 C 255.148438 2.566406 248.566406 -0.15625 243.421875 -4.09375 C 237.671875 -8.320312 233.128906 -14.75 229.796875 -23.375 C 226.460938 -32.007812 224.34375 -40.566406 223.4375 -49.046875 L 217.984375 -95.828125 C 217.078125 -104.304688 215.789062 -112.476562 214.125 -120.34375 C 212.457031 -128.21875 208.597656 -134.726562 202.546875 -139.875 C 198.304688 -143.507812 192.628906 -146.160156 185.515625 -147.828125 C 178.398438 -149.492188 172.269531 -150.328125 167.125 -150.328125 L 127.15625 -150.328125 L 127.15625 -9.984375 L 165.3125 -9.984375 L 165.3125 0 L 19.078125 0 L 19.078125 -9.984375 L 57.21875 -9.984375 L 57.21875 -287.46875 L 19.078125 -287.46875 L 19.078125 -297.46875 Z M 158.5 -160.3125 C 166.363281 -160.3125 174.609375 -160.765625 183.234375 -161.671875 C 191.867188 -162.578125 199.671875 -166.210938 206.640625 -172.578125 C 212.691406 -178.328125 216.472656 -184.757812 217.984375 -191.875 C 219.503906 -198.988281 220.265625 -205.570312 220.265625 -211.625 L 220.265625 -237.96875 C 220.265625 -245.539062 219.429688 -252.503906 217.765625 -258.859375 C 216.097656 -265.210938 211.328125 -271.269531 203.453125 -277.03125 C 196.492188 -282.175781 189.148438 -285.203125 181.421875 -286.109375 C 173.703125 -287.015625 166.664062 -287.46875 160.3125 -287.46875 L 127.15625 -287.46875 L 127.15625 -160.3125 Z M 158.5 -160.3125 "/></g></g></g><g fill="#e1e1e1" fill-opacity="1"><g transform="translate(364.970352, 426.789994)"><g><path d="M 276.578125 -105.359375 L 272.9375 0 L 260.21875 0 C 258.707031 -4.238281 256.515625 -7.414062 253.640625 -9.53125 C 250.765625 -11.65625 247.8125 -12.71875 244.78125 -12.71875 C 242.96875 -12.71875 240.773438 -12.335938 238.203125 -11.578125 C 235.628906 -10.816406 231.765625 -9.378906 226.609375 -7.265625 C 219.046875 -3.929688 210.875 -0.828125 202.09375 2.046875 C 193.3125 4.921875 181.503906 6.359375 166.671875 6.359375 C 148.503906 6.359375 132.609375 3.5625 118.984375 -2.03125 C 105.359375 -7.632812 92.796875 -15.285156 81.296875 -24.984375 C 71.609375 -33.148438 62.898438 -42.378906 55.171875 -52.671875 C 47.453125 -62.972656 41.320312 -73.269531 36.78125 -83.5625 C 32.238281 -94.15625 28.984375 -104.675781 27.015625 -115.125 C 25.046875 -125.570312 24.0625 -136.09375 24.0625 -146.6875 C 24.0625 -161.820312 25.800781 -175.671875 29.28125 -188.234375 C 32.769531 -200.804688 37.085938 -212.085938 42.234375 -222.078125 C 47.378906 -232.066406 53.054688 -240.84375 59.265625 -248.40625 C 65.472656 -255.976562 71.300781 -262.335938 76.75 -267.484375 C 87.34375 -277.171875 100.207031 -285.644531 115.34375 -292.90625 C 130.488281 -300.175781 147.597656 -303.8125 166.671875 -303.8125 C 176.054688 -303.8125 184.679688 -302.90625 192.546875 -301.09375 C 200.421875 -299.28125 208.75 -297.160156 217.53125 -294.734375 C 223.582031 -292.921875 228.125 -291.484375 231.15625 -290.421875 C 234.1875 -289.359375 236.910156 -288.828125 239.328125 -288.828125 C 241.753906 -288.828125 245.007812 -289.660156 249.09375 -291.328125 C 253.1875 -292.992188 255.535156 -297.15625 256.140625 -303.8125 L 268.84375 -303.8125 L 269.765625 -201.640625 L 259.765625 -201.640625 C 257.347656 -213.140625 254.171875 -223.28125 250.234375 -232.0625 C 246.296875 -240.84375 242.054688 -248.566406 237.515625 -255.234375 C 229.035156 -267.941406 219.800781 -277.550781 209.8125 -284.0625 C 199.820312 -290.570312 188.015625 -293.828125 174.390625 -293.828125 C 161.671875 -293.828125 150.390625 -291.101562 140.546875 -285.65625 C 130.710938 -280.207031 123.070312 -272.941406 117.625 -263.859375 C 116.113281 -261.128906 114.523438 -257.71875 112.859375 -253.625 C 111.191406 -249.539062 109.675781 -244.394531 108.3125 -238.1875 C 106.945312 -231.988281 105.8125 -224.5 104.90625 -215.71875 C 104 -206.9375 103.546875 -196.640625 103.546875 -184.828125 L 103.546875 -122.15625 C 103.546875 -100.363281 105.054688 -82.203125 108.078125 -67.671875 C 111.109375 -53.140625 116.257812 -40.875 123.53125 -30.875 C 130.1875 -21.789062 138.054688 -14.976562 147.140625 -10.4375 C 156.222656 -5.90625 165.15625 -3.640625 173.9375 -3.640625 C 178.476562 -3.640625 183.625 -4.316406 189.375 -5.671875 C 195.125 -7.035156 201.101562 -9.304688 207.3125 -12.484375 C 213.519531 -15.660156 219.726562 -19.898438 225.9375 -25.203125 C 232.144531 -30.503906 237.820312 -37.085938 242.96875 -44.953125 C 247.507812 -51.921875 251.519531 -60.097656 255 -69.484375 C 258.476562 -78.867188 261.429688 -90.828125 263.859375 -105.359375 Z M 276.578125 -105.359375 "/></g></g></g></g></g><g transform="matrix(1, 0, 0, 1, 321, 568)"><g clip-path="url(#c9aeaedeb7)"><g fill="#000000" fill-opacity="1"><g transform="translate(29.261927, 192.256691)"><g><path d="M 12.96875 -22.171875 C 12.664062 -22.503906 12.414062 -21.492188 12.21875 -19.140625 C 12.019531 -16.785156 11.921875 -13.722656 11.921875 -9.953125 C 11.921875 -6.179688 11.972656 -2.359375 12.078125 1.515625 C 12.191406 5.398438 12.410156 8.632812 12.734375 11.21875 C 13.066406 13.8125 13.472656 15.109375 13.953125 15.109375 C 14.285156 14.523438 14.46875 12.515625 14.5 9.078125 C 14.539062 5.640625 14.492188 1.695312 14.359375 -2.75 C 14.234375 -7.207031 14.050781 -11.289062 13.8125 -15 C 13.582031 -18.71875 13.300781 -21.109375 12.96875 -22.171875 Z M 23.671875 -15.390625 C 23.523438 -12.046875 23.359375 -8.679688 23.171875 -5.296875 C 22.953125 0.441406 22.675781 6.179688 22.34375 11.921875 C 21.9375 18.722656 21.40625 25.523438 20.75 32.328125 C 20.519531 34.203125 20.113281 36.023438 19.53125 37.796875 C 18.71875 40.773438 16.894531 42.265625 14.0625 42.265625 C 11.082031 42.367188 9.191406 40.953125 8.390625 38.015625 C 7.722656 35.035156 7.222656 32 6.890625 28.90625 C 5.203125 10.476562 4.25 -8 4.03125 -26.53125 C 3.914062 -32.675781 3.914062 -38.785156 4.03125 -44.859375 C 4.101562 -47.753906 5.628906 -49.09375 8.609375 -48.875 C 10.890625 -48.800781 12.066406 -47.625 12.140625 -45.34375 C 12.210938 -42.84375 12.25 -40.289062 12.25 -37.6875 C 12.25 -35.84375 12.285156 -33.945312 12.359375 -32 C 12.359375 -31.332031 12.488281 -30.648438 12.75 -29.953125 C 12.820312 -29.691406 12.859375 -29.488281 12.859375 -29.34375 C 12.859375 -29.238281 12.898438 -29.1875 12.984375 -29.1875 C 13.078125 -29.1875 13.160156 -29.1875 13.234375 -29.1875 C 13.304688 -29.1875 13.382812 -29.1875 13.46875 -29.1875 C 13.539062 -29.1875 13.640625 -29.210938 13.765625 -29.265625 C 13.890625 -29.316406 13.988281 -29.378906 14.0625 -29.453125 C 14.0625 -29.679688 14.097656 -29.882812 14.171875 -30.0625 C 14.429688 -30.800781 14.597656 -31.484375 14.671875 -32.109375 C 14.859375 -36.816406 14.953125 -41.503906 14.953125 -46.171875 C 14.953125 -49.671875 14.988281 -53.164062 15.0625 -56.65625 C 15.132812 -66.769531 15.132812 -76.921875 15.0625 -87.109375 C 14.988281 -93.578125 14.785156 -100.085938 14.453125 -106.640625 C 14.265625 -109.472656 14.132812 -112.34375 14.0625 -115.25 C 14.0625 -115.832031 14.023438 -116.398438 13.953125 -116.953125 C 13.878906 -118.023438 13.84375 -119.070312 13.84375 -120.09375 C 13.988281 -123.738281 15.773438 -125.285156 19.203125 -124.734375 C 21.035156 -124.398438 22.117188 -123.296875 22.453125 -121.421875 C 22.523438 -120.535156 22.65625 -119.65625 22.84375 -118.78125 C 23.132812 -116.425781 23.375 -114.035156 23.5625 -111.609375 C 23.882812 -101.566406 24.046875 -91.488281 24.046875 -81.375 C 24.046875 -71.519531 23.992188 -61.660156 23.890625 -51.796875 C 23.890625 -47.347656 23.851562 -42.898438 23.78125 -38.453125 C 23.78125 -38.117188 23.78125 -37.785156 23.78125 -37.453125 C 23.78125 -35.910156 23.78125 -34.367188 23.78125 -32.828125 C 23.851562 -31.535156 24.132812 -30.664062 24.625 -30.21875 C 25.125 -29.78125 26.019531 -29.640625 27.3125 -29.796875 C 44.632812 -31.117188 61.09375 -35.53125 76.6875 -43.03125 C 85.4375 -47.257812 93.320312 -52.722656 100.34375 -59.421875 C 105.601562 -64.523438 109.507812 -69.6875 112.0625 -74.90625 C 114.625 -80.132812 116.125 -85.148438 116.5625 -89.953125 C 117.007812 -94.753906 116.753906 -99.234375 115.796875 -103.390625 C 114.109375 -110.484375 110.328125 -116.625 104.453125 -121.8125 C 98.585938 -127 91.28125 -131.023438 82.53125 -133.890625 C 73.78125 -136.765625 64.242188 -138.265625 53.921875 -138.390625 C 43.609375 -138.515625 33.191406 -137.109375 22.671875 -134.171875 C 14.765625 -131.992188 7.171875 -128.957031 -0.109375 -125.0625 C -4.234375 -122.894531 -8.039062 -120.191406 -11.53125 -116.953125 C -13.144531 -115.484375 -14.519531 -113.898438 -15.65625 -112.203125 C -16.800781 -110.515625 -17.320312 -108.492188 -17.21875 -106.140625 C -17.21875 -105.335938 -17.5 -104.734375 -18.0625 -104.328125 C -18.632812 -103.921875 -19.328125 -103.679688 -20.140625 -103.609375 C -21.015625 -103.535156 -21.953125 -103.570312 -22.953125 -103.71875 C -24.710938 -104.125 -25.722656 -105.265625 -25.984375 -107.140625 C -26.054688 -108.972656 -25.648438 -110.789062 -24.765625 -112.59375 C -23.367188 -115.351562 -21.550781 -117.78125 -19.3125 -119.875 C -16.695312 -122.445312 -13.875 -124.707031 -10.84375 -126.65625 C -7.8125 -128.613281 -4.640625 -130.363281 -1.328125 -131.90625 C 12.171875 -138.195312 26.367188 -142.078125 41.265625 -143.546875 C 47.585938 -144.171875 54.425781 -144.257812 61.78125 -143.8125 C 69.144531 -143.375 76.484375 -142.242188 83.796875 -140.421875 C 91.117188 -138.609375 97.914062 -135.960938 104.1875 -132.484375 C 110.457031 -129.003906 115.660156 -124.515625 119.796875 -119.015625 C 123.929688 -113.523438 126.476562 -106.9375 127.4375 -99.25 C 127.914062 -94.320312 127.59375 -89.546875 126.46875 -84.921875 C 125.351562 -80.304688 123.617188 -75.8125 121.265625 -71.4375 C 116.804688 -63.601562 111.007812 -56.894531 103.875 -51.3125 C 97.1875 -45.976562 90.050781 -41.507812 82.46875 -37.90625 C 74.894531 -34.300781 66.988281 -31.359375 58.75 -29.078125 C 51.0625 -26.972656 43.25 -25.519531 35.3125 -24.71875 C 34.832031 -24.71875 34.351562 -24.679688 33.875 -24.609375 C 33.800781 -24.535156 33.671875 -24.5 33.484375 -24.5 C 33.148438 -24.5 32.882812 -24.429688 32.6875 -24.296875 C 32.488281 -24.171875 32.347656 -23.941406 32.265625 -23.609375 C 32.117188 -22.878906 32.453125 -22.398438 33.265625 -22.171875 C 34.003906 -21.847656 34.722656 -21.554688 35.421875 -21.296875 C 36.003906 -21.078125 36.609375 -20.835938 37.234375 -20.578125 C 49.890625 -15.796875 62.21875 -10.332031 74.21875 -4.1875 C 86.226562 1.945312 97.972656 8.53125 109.453125 15.5625 C 110.921875 16.363281 112.265625 17.335938 113.484375 18.484375 C 113.734375 18.660156 113.894531 18.925781 113.96875 19.28125 C 114.050781 19.632812 114.09375 19.972656 114.09375 20.296875 C 114.019531 20.890625 113.816406 21.320312 113.484375 21.59375 C 113.148438 21.875 112.742188 22.085938 112.265625 22.234375 C 110.316406 22.742188 108.535156 22.429688 106.921875 21.296875 C 102.242188 18.796875 97.515625 16.332031 92.734375 13.90625 C 87.546875 11.070312 82.320312 8.273438 77.0625 5.515625 C 69.382812 1.398438 61.582031 -2.421875 53.65625 -5.953125 C 45.726562 -9.484375 37.71875 -12.867188 29.625 -16.109375 C 29.363281 -16.179688 29.125 -16.289062 28.90625 -16.4375 C 28.175781 -16.769531 27.421875 -17.054688 26.640625 -17.296875 C 25.867188 -17.535156 25.195312 -17.535156 24.625 -17.296875 C 24.0625 -17.054688 23.742188 -16.421875 23.671875 -15.390625 Z M 23.671875 -15.390625 "/></g></g></g><g fill="#000000" fill-opacity="1"><g transform="translate(141.127456, 192.256691)"><g><path d="M 61.078125 -28.859375 C 62.429688 -29.078125 63.273438 -29.03125 63.609375 -28.71875 C 63.941406 -28.40625 64.015625 -27.878906 63.828125 -27.140625 C 63.753906 -25.859375 63.226562 -24.726562 62.25 -23.75 C 61.28125 -22.769531 60.023438 -21.914062 58.484375 -21.1875 C 54.835938 -19.488281 51.273438 -18.5 47.796875 -18.21875 C 44.328125 -17.945312 40.695312 -18.253906 36.90625 -19.140625 C 35.21875 -19.617188 33.785156 -19.632812 32.609375 -19.1875 C 31.429688 -18.75 30.234375 -17.390625 29.015625 -15.109375 C 26.003906 -9.304688 21.222656 -6.035156 14.671875 -5.296875 C 9.742188 -4.816406 6.101562 -5.742188 3.75 -8.078125 C 1.394531 -10.410156 -0.09375 -13.398438 -0.71875 -17.046875 C -1.457031 -20.796875 -1.300781 -24.304688 -0.25 -27.578125 C 0.800781 -30.859375 2.539062 -33.910156 4.96875 -36.734375 C 6.84375 -38.765625 9.160156 -39.613281 11.921875 -39.28125 C 13.203125 -39.28125 14.210938 -38.800781 14.953125 -37.84375 C 15.359375 -37.1875 15.429688 -36.617188 15.171875 -36.140625 C 14.910156 -35.660156 14.539062 -35.21875 14.0625 -34.8125 C 10.09375 -30.65625 8.238281 -25.742188 8.5 -20.078125 C 8.570312 -17.429688 9.34375 -15.003906 10.8125 -12.796875 C 12.101562 -10.960938 13.722656 -10.6875 15.671875 -11.96875 C 17.503906 -13.4375 19.128906 -15.457031 20.546875 -18.03125 C 21.960938 -20.613281 22.769531 -23.265625 22.96875 -25.984375 C 23.175781 -28.703125 22.4375 -31.113281 20.75 -33.21875 C 19.863281 -34.019531 19.015625 -34.585938 18.203125 -34.921875 C 17.796875 -35.140625 17.425781 -35.347656 17.09375 -35.546875 C 16.769531 -35.753906 16.609375 -36.023438 16.609375 -36.359375 C 16.535156 -38.234375 17.222656 -39.59375 18.671875 -40.4375 C 20.128906 -41.28125 21.914062 -41.703125 24.03125 -41.703125 C 26.144531 -41.703125 28.109375 -41.28125 29.921875 -40.4375 C 31.742188 -39.59375 32.929688 -38.359375 33.484375 -36.734375 C 34.078125 -34.640625 34.242188 -32.523438 33.984375 -30.390625 C 33.910156 -28.628906 34.644531 -27.269531 36.1875 -26.3125 C 39.644531 -23.882812 43.4375 -23.019531 47.5625 -23.71875 C 49.28125 -24.050781 50.847656 -24.5 52.265625 -25.0625 C 53.679688 -25.632812 55.035156 -26.253906 56.328125 -26.921875 C 58.015625 -27.804688 59.597656 -28.453125 61.078125 -28.859375 Z M 61.078125 -28.859375 "/></g></g></g><g fill="#000000" fill-opacity="1"><g transform="translate(199.266641, 192.256691)"><g><path d="M 83.859375 -27.75 C 85.066406 -27.488281 85.632812 -26.78125 85.5625 -25.625 C 85.488281 -24.46875 85.085938 -23.316406 84.359375 -22.171875 C 82.398438 -19.265625 79.90625 -16.695312 76.875 -14.46875 C 73.84375 -12.25 70.707031 -10.6875 67.46875 -9.78125 C 64.226562 -8.882812 61.210938 -9.039062 58.421875 -10.25 C 55.628906 -11.46875 53.476562 -14.066406 51.96875 -18.046875 C 50.570312 -21.609375 49.765625 -25.285156 49.546875 -29.078125 C 49.429688 -30.359375 49.351562 -33.570312 49.3125 -38.71875 C 49.28125 -43.875 49.226562 -49.28125 49.15625 -54.9375 C 49.082031 -60.601562 49.046875 -64.851562 49.046875 -67.6875 C 49.046875 -68.976562 49.046875 -69.660156 49.046875 -69.734375 C 46.953125 -62.117188 44.488281 -54.226562 41.65625 -46.0625 C 38.820312 -37.894531 36.796875 -32.4375 35.578125 -29.6875 C 33.222656 -24.601562 30.59375 -19.632812 27.6875 -14.78125 C 25.664062 -11.625 23.238281 -8.796875 20.40625 -6.296875 C 18.125 -4.265625 15.398438 -3.046875 12.234375 -2.640625 C 9.078125 -2.242188 6.128906 -2.648438 3.390625 -3.859375 C 0.648438 -5.078125 -1.160156 -7.175781 -2.046875 -10.15625 C -2.960938 -13.644531 -3.171875 -17.023438 -2.671875 -20.296875 C -2.179688 -23.578125 -0.8125 -26.664062 1.4375 -29.5625 C 3.96875 -32.726562 6.867188 -34.796875 10.140625 -35.765625 C 13.421875 -36.742188 16.992188 -36.773438 20.859375 -35.859375 C 22.066406 -35.566406 23.28125 -35.160156 24.5 -34.640625 C 25.082031 -34.421875 25.6875 -34.179688 26.3125 -33.921875 C 28.257812 -36.347656 30.390625 -41.144531 32.703125 -48.3125 C 35.023438 -55.488281 37.148438 -62.835938 39.078125 -70.359375 C 41.015625 -77.890625 42.351562 -83.34375 43.09375 -86.71875 C 45.363281 -96.90625 47.253906 -107.019531 48.765625 -117.0625 C 49.835938 -123.539062 50.976562 -130.050781 52.1875 -136.59375 C 52.664062 -138.726562 53.878906 -140.117188 55.828125 -140.765625 C 57.773438 -141.410156 59.597656 -141.085938 61.296875 -139.796875 C 62.097656 -139.128906 62.5 -138.320312 62.5 -137.375 C 62.25 -125.53125 61.71875 -113.628906 60.90625 -101.671875 C 60.6875 -96.816406 60.445312 -92.070312 60.1875 -87.4375 C 59.707031 -78.320312 59.363281 -69.191406 59.15625 -60.046875 C 58.957031 -50.910156 59.0625 -41.765625 59.46875 -32.609375 C 59.46875 -32.273438 59.46875 -31.90625 59.46875 -31.5 C 59.46875 -29.664062 59.632812 -27.46875 59.96875 -24.90625 C 60.300781 -22.351562 60.972656 -20.179688 61.984375 -18.390625 C 62.992188 -16.609375 64.617188 -16.015625 66.859375 -16.609375 C 68.554688 -17.160156 70.273438 -18.078125 72.015625 -19.359375 C 73.765625 -20.648438 75.445312 -21.992188 77.0625 -23.390625 C 78.539062 -24.679688 79.859375 -25.75 81.015625 -26.59375 C 82.171875 -27.4375 83.117188 -27.820312 83.859375 -27.75 Z M 14.171875 -11.96875 C 16.203125 -14.25 17.96875 -16.675781 19.46875 -19.25 C 20.976562 -21.820312 22.453125 -24.691406 23.890625 -27.859375 C 22.046875 -28.742188 20.25 -29.429688 18.5 -29.921875 C 16.757812 -30.421875 15.078125 -30.347656 13.453125 -29.703125 C 11.835938 -29.066406 10.3125 -27.53125 8.875 -25.09375 C 6.195312 -20.3125 5.796875 -15.332031 7.671875 -10.15625 C 8.148438 -9.007812 8.8125 -8.5 9.65625 -8.625 C 10.5 -8.757812 11.34375 -9.210938 12.1875 -9.984375 C 13.039062 -10.753906 13.703125 -11.414062 14.171875 -11.96875 Z M 14.171875 -11.96875 "/></g></g></g><g fill="#000000" fill-opacity="1"><g transform="translate(278.642627, 192.256691)"><g/></g></g><g fill="#000000" fill-opacity="1"><g transform="translate(322.274596, 192.256691)"><g><path d="M 153.75 -24 C 152.863281 -22.851562 151.890625 -21.75 150.828125 -20.6875 C 150.273438 -20.0625 149.671875 -19.414062 149.015625 -18.75 C 139.410156 -7.832031 129.296875 2.585938 118.671875 12.515625 C 109.066406 21.609375 98.75 29.757812 87.71875 36.96875 C 81.90625 40.675781 75.863281 43.796875 69.59375 46.328125 C 63.320312 48.867188 56.785156 50.710938 49.984375 51.859375 C 43.179688 52.992188 36.394531 53.195312 29.625 52.46875 C 19.582031 51.101562 11.847656 47.726562 6.421875 42.34375 C 1.003906 36.957031 -2.628906 30.300781 -4.484375 22.375 C -6.347656 14.445312 -6.921875 6.015625 -6.203125 -2.921875 C -5.484375 -11.859375 -3.984375 -20.535156 -1.703125 -28.953125 C 0.566406 -37.378906 3.117188 -44.796875 5.953125 -51.203125 C 11.691406 -64.285156 18.488281 -76.691406 26.34375 -88.421875 C 34.195312 -100.160156 43.21875 -111.125 53.40625 -121.3125 C 54.832031 -122.78125 55.425781 -123.734375 55.1875 -124.171875 C 54.957031 -124.617188 54.160156 -125.007812 52.796875 -125.34375 C 52.128906 -125.414062 51.429688 -125.582031 50.703125 -125.84375 C 47.316406 -126.875 44.003906 -127.957031 40.765625 -129.09375 C 35.253906 -130.96875 29.765625 -132.710938 24.296875 -134.328125 C 18.835938 -135.953125 13.332031 -137.28125 7.78125 -138.3125 C 2.8125 -139.1875 -2.132812 -139.425781 -7.0625 -139.03125 C -10.625 -138.875 -13.929688 -137.859375 -16.984375 -135.984375 C -19.085938 -134.773438 -20.875 -133.320312 -22.34375 -131.625 C -23.8125 -129.9375 -24.65625 -127.75 -24.875 -125.0625 C -25.132812 -122.5625 -26.882812 -121.609375 -30.125 -122.203125 C -32.21875 -122.492188 -33.265625 -123.78125 -33.265625 -126.0625 C -33.265625 -127.675781 -32.941406 -129.15625 -32.296875 -130.5 C -31.648438 -131.84375 -30.796875 -133.117188 -29.734375 -134.328125 C -25.867188 -138.929688 -20.941406 -141.875 -14.953125 -143.15625 C -7.597656 -144.78125 -0.148438 -145.078125 7.390625 -144.046875 C 12.910156 -143.234375 18.316406 -142.09375 23.609375 -140.625 C 28.910156 -139.15625 34.1875 -137.570312 39.4375 -135.875 C 39.914062 -135.726562 40.359375 -135.617188 40.765625 -135.546875 C 42.390625 -134.960938 44.007812 -134.429688 45.625 -133.953125 C 49.664062 -132.804688 53.640625 -131.519531 57.546875 -130.09375 C 59.046875 -129.5 60.398438 -129.347656 61.609375 -129.640625 C 62.828125 -129.941406 64.046875 -130.566406 65.265625 -131.515625 C 70.234375 -135.566406 75.582031 -138.972656 81.3125 -141.734375 C 88.664062 -145.515625 96.519531 -147.703125 104.875 -148.296875 C 107.445312 -148.515625 110.007812 -148.4375 112.5625 -148.0625 C 115.125 -147.695312 117.5625 -146.960938 119.875 -145.859375 C 123.707031 -143.910156 125.925781 -141.300781 126.53125 -138.03125 C 127.132812 -134.757812 126.019531 -131.539062 123.1875 -128.375 C 120.582031 -125.613281 117.457031 -123.59375 113.8125 -122.3125 C 109.46875 -120.507812 104.941406 -119.457031 100.234375 -119.15625 C 95.523438 -118.832031 90.828125 -118.722656 86.140625 -118.828125 C 81.453125 -118.941406 76.8125 -119.457031 72.21875 -120.375 C 71.882812 -120.445312 71.550781 -120.519531 71.21875 -120.59375 C 69.53125 -121 67.992188 -121.179688 66.609375 -121.140625 C 65.234375 -121.109375 63.828125 -120.394531 62.390625 -119 C 50.253906 -107.039062 39.632812 -93.632812 30.53125 -78.78125 C 21.425781 -63.925781 14.15625 -48.460938 8.71875 -32.390625 C 6.695312 -26.722656 5.097656 -20.421875 3.921875 -13.484375 C 2.742188 -6.554688 2.316406 0.378906 2.640625 7.328125 C 2.972656 14.285156 4.453125 20.78125 7.078125 26.8125 C 9.710938 32.84375 13.863281 37.878906 19.53125 41.921875 C 24.3125 45.160156 29.570312 46.890625 35.3125 47.109375 C 43.875 47.296875 52.164062 45.9375 60.1875 43.03125 C 68.832031 39.789062 76.925781 35.539062 84.46875 30.28125 C 91.082031 25.726562 97.382812 20.847656 103.375 15.640625 C 109.375 10.429688 115.28125 5.035156 121.09375 -0.546875 C 123.300781 -2.566406 127.015625 -6.003906 132.234375 -10.859375 C 137.460938 -15.722656 142.242188 -20.007812 146.578125 -23.71875 C 147.316406 -24.382812 148.015625 -25.046875 148.671875 -25.703125 C 150.035156 -26.921875 151.238281 -27.890625 152.28125 -28.609375 C 153.332031 -29.328125 154.359375 -29.609375 155.359375 -29.453125 C 157.191406 -29.273438 156.65625 -27.457031 153.75 -24 Z M 104.484375 -142.671875 C 98.421875 -141.785156 92.722656 -139.972656 87.390625 -137.234375 C 82.054688 -134.492188 76.832031 -131.097656 71.71875 -127.046875 C 76.238281 -125.503906 81.007812 -124.53125 86.03125 -124.125 C 91.050781 -123.71875 95.660156 -123.828125 99.859375 -124.453125 C 103.609375 -125.046875 107.175781 -126.1875 110.5625 -127.875 C 112.726562 -128.945312 114.546875 -130.398438 116.015625 -132.234375 C 117.234375 -134.109375 117.617188 -135.890625 117.171875 -137.578125 C 116.734375 -139.273438 115.503906 -140.566406 113.484375 -141.453125 C 110.578125 -142.660156 107.578125 -143.066406 104.484375 -142.671875 Z M 104.484375 -142.671875 "/></g></g></g><g fill="#000000" fill-opacity="1"><g transform="translate(473.304093, 192.256691)"><g><path d="M 50.53125 -27.75 C 50.9375 -27.675781 51.210938 -27.554688 51.359375 -27.390625 C 51.503906 -27.222656 51.671875 -26.898438 51.859375 -26.421875 C 52.003906 -25.941406 51.835938 -25.367188 51.359375 -24.703125 C 50.878906 -24.046875 50.4375 -23.515625 50.03125 -23.109375 C 47.019531 -20.285156 43.488281 -18.597656 39.4375 -18.046875 C 37.125 -17.710938 34.804688 -17.628906 32.484375 -17.796875 C 30.171875 -17.960938 27.894531 -18.519531 25.65625 -19.46875 C 24.03125 -20.28125 22.519531 -20.039062 21.125 -18.75 C 18.21875 -16.101562 15.1875 -13.566406 12.03125 -11.140625 C 10.40625 -9.929688 8.703125 -8.921875 6.921875 -8.109375 C 5.140625 -7.296875 3.203125 -6.835938 1.109375 -6.734375 C -5.035156 -6.835938 -7.460938 -9.832031 -6.171875 -15.71875 C -6.097656 -15.976562 -6.007812 -16.179688 -5.90625 -16.328125 C -4.132812 -21.109375 -1.796875 -25.421875 1.109375 -29.265625 C 4.015625 -33.109375 7.691406 -36.316406 12.140625 -38.890625 C 15.078125 -40.617188 18.238281 -41.28125 21.625 -40.875 C 22.507812 -40.695312 23.351562 -40.367188 24.15625 -39.890625 C 25.15625 -39.410156 25.5625 -38.632812 25.375 -37.5625 C 25.300781 -37.238281 25.144531 -36.957031 24.90625 -36.71875 C 24.664062 -36.476562 24.414062 -36.25 24.15625 -36.03125 C 24.007812 -35.84375 23.816406 -35.710938 23.578125 -35.640625 C 23.335938 -35.566406 23.09375 -35.53125 22.84375 -35.53125 C 20.414062 -35.457031 18.328125 -34.75 16.578125 -33.40625 C 14.828125 -32.0625 13.238281 -30.546875 11.8125 -28.859375 C 10.1875 -27.054688 8.679688 -25.066406 7.296875 -22.890625 C 5.921875 -20.722656 4.796875 -18.128906 3.921875 -15.109375 C 7.148438 -16.984375 9.6875 -18.84375 11.53125 -20.6875 C 11.9375 -21.09375 12.34375 -21.460938 12.75 -21.796875 C 13.070312 -22.117188 13.398438 -22.410156 13.734375 -22.671875 C 15.359375 -24.179688 17.050781 -25.503906 18.8125 -26.640625 C 20.832031 -27.785156 22.835938 -28.359375 24.828125 -28.359375 C 26.816406 -28.359375 28.75 -27.546875 30.625 -25.921875 C 33.195312 -23.648438 35.695312 -22.757812 38.125 -23.25 C 40.550781 -23.75 42.8125 -24.601562 44.90625 -25.8125 C 47.039062 -27.101562 48.914062 -27.75 50.53125 -27.75 Z M 50.53125 -27.75 "/></g></g></g><g fill="#000000" fill-opacity="1"><g transform="translate(520.025052, 192.256691)"><g><path d="M 46.84375 -26.53125 C 48.457031 -28.082031 49.804688 -28.390625 50.890625 -27.453125 C 51.972656 -26.515625 51.960938 -24.753906 50.859375 -22.171875 C 48.328125 -17.242188 45.082031 -12.628906 41.125 -8.328125 C 37.175781 -4.023438 32.679688 -0.863281 27.640625 1.15625 C 25.472656 1.851562 23.273438 2.203125 21.046875 2.203125 C 18.816406 2.203125 16.617188 1.925781 14.453125 1.375 C 12.316406 0.894531 10.539062 -0.0078125 9.125 -1.34375 C 7.707031 -2.6875 6.488281 -4.242188 5.46875 -6.015625 C 2.375 -11.859375 0.40625 -20.257812 -0.4375 -31.21875 C -1.28125 -42.1875 -1.363281 -54.160156 -0.6875 -67.140625 C -0.0078125 -80.117188 1.0625 -92.554688 2.53125 -104.453125 C 4.007812 -116.359375 5.5 -126.191406 7 -133.953125 C 7.738281 -137.179688 8.84375 -140.25 10.3125 -143.15625 C 11.9375 -146.175781 14.4375 -147.554688 17.8125 -147.296875 C 20.976562 -147.296875 23.171875 -145.804688 24.390625 -142.828125 C 25.671875 -139.003906 26.40625 -135.109375 26.59375 -131.140625 C 27.21875 -121.753906 26.957031 -112.410156 25.8125 -103.109375 C 24.707031 -94.128906 23.300781 -85.734375 21.59375 -77.921875 C 19.882812 -70.109375 18.113281 -62.453125 16.28125 -54.953125 C 13.925781 -45.785156 11.695312 -36.1875 9.59375 -26.15625 C 9.664062 -25.125 9.78125 -24.203125 9.9375 -23.390625 C 10.1875 -20.554688 10.566406 -18.109375 11.078125 -16.046875 C 11.597656 -13.992188 12.722656 -11.457031 14.453125 -8.4375 C 16.066406 -5.601562 18.109375 -4.101562 20.578125 -3.9375 C 23.046875 -3.78125 25.570312 -4.472656 28.15625 -6.015625 C 30.75 -7.554688 33.128906 -9.398438 35.296875 -11.546875 C 37.472656 -13.703125 39.171875 -15.664062 40.390625 -17.4375 C 40.710938 -17.914062 41.320312 -18.804688 42.21875 -20.109375 C 43.125 -21.410156 44.019531 -22.6875 44.90625 -23.9375 C 45.789062 -25.1875 46.4375 -26.050781 46.84375 -26.53125 Z M 8.5 -55.78125 C 9.53125 -58.457031 10.578125 -62.765625 11.640625 -68.703125 C 12.703125 -74.648438 13.65625 -81.265625 14.5 -88.546875 C 15.351562 -95.828125 16 -102.769531 16.4375 -109.375 C 16.882812 -115.976562 17.039062 -121.253906 16.90625 -125.203125 C 16.78125 -129.160156 16.273438 -130.828125 15.390625 -130.203125 C 14.109375 -124.609375 13.265625 -119.421875 12.859375 -114.640625 C 12.597656 -112.140625 12.226562 -108.425781 11.75 -103.5 C 10.789062 -94.925781 9.90625 -85.800781 9.09375 -76.125 C 8.289062 -66.457031 8.09375 -59.675781 8.5 -55.78125 Z M 8.5 -55.78125 "/></g></g></g><g fill="#000000" fill-opacity="1"><g transform="translate(566.084084, 192.256691)"><g><path d="M 46.84375 -26.53125 C 48.457031 -28.082031 49.804688 -28.390625 50.890625 -27.453125 C 51.972656 -26.515625 51.960938 -24.753906 50.859375 -22.171875 C 48.328125 -17.242188 45.082031 -12.628906 41.125 -8.328125 C 37.175781 -4.023438 32.679688 -0.863281 27.640625 1.15625 C 25.472656 1.851562 23.273438 2.203125 21.046875 2.203125 C 18.816406 2.203125 16.617188 1.925781 14.453125 1.375 C 12.316406 0.894531 10.539062 -0.0078125 9.125 -1.34375 C 7.707031 -2.6875 6.488281 -4.242188 5.46875 -6.015625 C 2.375 -11.859375 0.40625 -20.257812 -0.4375 -31.21875 C -1.28125 -42.1875 -1.363281 -54.160156 -0.6875 -67.140625 C -0.0078125 -80.117188 1.0625 -92.554688 2.53125 -104.453125 C 4.007812 -116.359375 5.5 -126.191406 7 -133.953125 C 7.738281 -137.179688 8.84375 -140.25 10.3125 -143.15625 C 11.9375 -146.175781 14.4375 -147.554688 17.8125 -147.296875 C 20.976562 -147.296875 23.171875 -145.804688 24.390625 -142.828125 C 25.671875 -139.003906 26.40625 -135.109375 26.59375 -131.140625 C 27.21875 -121.753906 26.957031 -112.410156 25.8125 -103.109375 C 24.707031 -94.128906 23.300781 -85.734375 21.59375 -77.921875 C 19.882812 -70.109375 18.113281 -62.453125 16.28125 -54.953125 C 13.925781 -45.785156 11.695312 -36.1875 9.59375 -26.15625 C 9.664062 -25.125 9.78125 -24.203125 9.9375 -23.390625 C 10.1875 -20.554688 10.566406 -18.109375 11.078125 -16.046875 C 11.597656 -13.992188 12.722656 -11.457031 14.453125 -8.4375 C 16.066406 -5.601562 18.109375 -4.101562 20.578125 -3.9375 C 23.046875 -3.78125 25.570312 -4.472656 28.15625 -6.015625 C 30.75 -7.554688 33.128906 -9.398438 35.296875 -11.546875 C 37.472656 -13.703125 39.171875 -15.664062 40.390625 -17.4375 C 40.710938 -17.914062 41.320312 -18.804688 42.21875 -20.109375 C 43.125 -21.410156 44.019531 -22.6875 44.90625 -23.9375 C 45.789062 -25.1875 46.4375 -26.050781 46.84375 -26.53125 Z M 8.5 -55.78125 C 9.53125 -58.457031 10.578125 -62.765625 11.640625 -68.703125 C 12.703125 -74.648438 13.65625 -81.265625 14.5 -88.546875 C 15.351562 -95.828125 16 -102.769531 16.4375 -109.375 C 16.882812 -115.976562 17.039062 -121.253906 16.90625 -125.203125 C 16.78125 -129.160156 16.273438 -130.828125 15.390625 -130.203125 C 14.109375 -124.609375 13.265625 -119.421875 12.859375 -114.640625 C 12.597656 -112.140625 12.226562 -108.425781 11.75 -103.5 C 10.789062 -94.925781 9.90625 -85.800781 9.09375 -76.125 C 8.289062 -66.457031 8.09375 -59.675781 8.5 -55.78125 Z M 8.5 -55.78125 "/></g></g></g><g fill="#000000" fill-opacity="1"><g transform="translate(612.143116, 192.256691)"><g><path d="M 11.75 -21.578125 C 11.675781 -21.578125 11.601562 -21.578125 11.53125 -21.578125 C 11.53125 -21.578125 11.566406 -21.578125 11.640625 -21.578125 C 11.640625 -21.578125 11.675781 -21.578125 11.75 -21.578125 Z M 50.375 -27.140625 C 50.769531 -27.398438 51.410156 -27.703125 52.296875 -28.046875 C 53.179688 -28.398438 54.023438 -28.601562 54.828125 -28.65625 C 55.640625 -28.71875 56.210938 -28.414062 56.546875 -27.75 C 56.804688 -27.269531 56.867188 -26.804688 56.734375 -26.359375 C 56.609375 -25.921875 56.378906 -25.539062 56.046875 -25.21875 C 54.023438 -23.007812 50.890625 -20.769531 46.640625 -18.5 C 42.390625 -16.238281 37.984375 -14.242188 33.421875 -12.515625 C 28.867188 -10.796875 25.082031 -9.675781 22.0625 -9.15625 C 18.601562 -8.53125 15.09375 -8.382812 11.53125 -8.71875 C 7.15625 -9.269531 3.898438 -11.078125 1.765625 -14.140625 C -0.367188 -17.210938 -1.234375 -20.664062 -0.828125 -24.5 C -0.203125 -28.757812 1.742188 -32.148438 5.015625 -34.671875 C 8.296875 -37.191406 12.050781 -38.117188 16.28125 -37.453125 C 18.851562 -37.128906 21.1875 -36.191406 23.28125 -34.640625 C 25.5625 -32.804688 26.582031 -30.691406 26.34375 -28.296875 C 26.101562 -25.910156 24.675781 -24.070312 22.0625 -22.78125 C 20.707031 -22.125 19.203125 -21.710938 17.546875 -21.546875 C 15.890625 -21.378906 13.957031 -21.390625 11.75 -21.578125 C 11.75 -21.578125 11.691406 -21.578125 11.578125 -21.578125 C 11.472656 -21.578125 11.300781 -21.578125 11.0625 -21.578125 C 10.820312 -21.578125 10.570312 -21.578125 10.3125 -21.578125 C 9.65625 -21.578125 9.222656 -21.390625 9.015625 -21.015625 C 8.816406 -20.648438 8.8125 -20.191406 9 -19.640625 C 10.207031 -16.617188 12.582031 -15.023438 16.125 -14.859375 C 19.675781 -14.703125 23.707031 -15.375 28.21875 -16.875 C 32.726562 -18.382812 37.003906 -20.128906 41.046875 -22.109375 C 45.085938 -24.097656 48.195312 -25.773438 50.375 -27.140625 Z M 11.640625 -30.671875 C 11.085938 -30.265625 10.707031 -29.796875 10.5 -29.265625 C 10.300781 -28.734375 10.179688 -28.28125 10.140625 -27.90625 C 10.109375 -27.539062 10.164062 -27.320312 10.3125 -27.25 C 10.457031 -27.175781 10.914062 -27.070312 11.6875 -26.9375 C 12.46875 -26.8125 13.328125 -26.796875 14.265625 -26.890625 C 15.203125 -26.984375 15.972656 -27.1875 16.578125 -27.5 C 17.179688 -27.8125 17.394531 -28.375 17.21875 -29.1875 C 16.8125 -30.320312 16.023438 -31.035156 14.859375 -31.328125 C 13.703125 -31.628906 12.628906 -31.410156 11.640625 -30.671875 Z M 11.640625 -30.671875 "/></g></g></g><g fill="#000000" fill-opacity="1"><g transform="translate(663.111435, 192.256691)"><g><path d="M 42.484375 -27.25 C 44.242188 -27.25 45.207031 -26.6875 45.375 -25.5625 C 45.539062 -24.445312 44.976562 -23.191406 43.6875 -21.796875 C 32.289062 -10.316406 21.164062 1.453125 10.3125 13.515625 C 8.957031 14.984375 8.316406 16.726562 8.390625 18.75 C 8.390625 25.375 7.800781 33.15625 6.625 42.09375 C 5.445312 51.03125 3.84375 59.828125 1.8125 68.484375 C -0.207031 77.148438 -2.554688 84.351562 -5.234375 90.09375 C -5.941406 91.707031 -6.722656 93.285156 -7.578125 94.828125 C -8.441406 96.378906 -9.519531 97.757812 -10.8125 98.96875 C -14.925781 102.6875 -18.6875 104.175781 -22.09375 103.4375 C -25.5 102.707031 -28.285156 100.613281 -30.453125 97.15625 C -33.066406 92.78125 -34.328125 87.84375 -34.234375 82.34375 C -34.140625 76.84375 -33.082031 71.078125 -31.0625 65.046875 C -29.039062 59.015625 -26.492188 53.101562 -23.421875 47.3125 C -20.347656 41.519531 -17.15625 36.15625 -13.84375 31.21875 C -10.53125 26.289062 -7.535156 22.210938 -4.859375 18.984375 C -3.234375 16.804688 -2.015625 13.460938 -1.203125 8.953125 C -0.398438 4.453125 0.0976562 -0.460938 0.296875 -5.796875 C 0.503906 -11.128906 0.503906 -16.15625 0.296875 -20.875 C 0.0976562 -25.601562 -0.128906 -29.3125 -0.390625 -32 C -0.535156 -34.6875 0.601562 -36.175781 3.03125 -36.46875 C 6.34375 -36.875 8.289062 -35.710938 8.875 -32.984375 C 9.582031 -28.828125 9.976562 -24.523438 10.0625 -20.078125 C 10.15625 -15.628906 10.164062 -11.179688 10.09375 -6.734375 C 9.988281 -4.085938 9.9375 -1.507812 9.9375 1 C 16 -4.957031 22.359375 -10.769531 29.015625 -16.4375 C 29.898438 -17.175781 30.785156 -17.945312 31.671875 -18.75 C 32.253906 -19.226562 32.953125 -19.835938 33.765625 -20.578125 C 35.273438 -22.117188 36.882812 -23.597656 38.59375 -25.015625 C 40.300781 -26.429688 41.597656 -27.175781 42.484375 -27.25 Z M -14.34375 87.65625 C -11.988281 82.582031 -10.082031 76.828125 -8.625 70.390625 C -7.175781 63.953125 -5.984375 57.414062 -5.046875 50.78125 C -4.109375 44.144531 -3.304688 37.863281 -2.640625 31.9375 C -2.566406 30.90625 -2.492188 29.894531 -2.421875 28.90625 C -4.597656 30.78125 -7.0625 34.28125 -9.8125 39.40625 C -12.570312 44.539062 -15.179688 50.425781 -17.640625 57.0625 C -20.109375 63.707031 -21.929688 70.128906 -23.109375 76.328125 C -24.285156 82.523438 -24.398438 87.644531 -23.453125 91.6875 C -22.453125 94.664062 -21.390625 96.035156 -20.265625 95.796875 C -19.148438 95.554688 -18.039062 94.523438 -16.9375 92.703125 C -15.832031 90.890625 -14.96875 89.207031 -14.34375 87.65625 Z M -1.4375 -50.421875 C -1.539062 -50.535156 -1.59375 -50.628906 -1.59375 -50.703125 C -2.40625 -53.273438 -3.015625 -55.90625 -3.421875 -58.59375 C -3.640625 -60.351562 -3.160156 -61.597656 -1.984375 -62.328125 C -0.804688 -63.066406 0.734375 -63.109375 2.640625 -62.453125 C 5.179688 -61.640625 6.726562 -60.148438 7.28125 -57.984375 C 7.945312 -55.222656 8.113281 -52.425781 7.78125 -49.59375 C 7.375 -46.90625 5.550781 -45.929688 2.3125 -46.671875 C 0.363281 -47.148438 -0.882812 -48.398438 -1.4375 -50.421875 Z M -1.4375 -50.421875 "/></g></g></g><g fill="#000000" fill-opacity="1"><g transform="translate(702.440884, 192.256691)"><g><path d="M 61.078125 -28.859375 C 62.429688 -29.078125 63.273438 -29.03125 63.609375 -28.71875 C 63.941406 -28.40625 64.015625 -27.878906 63.828125 -27.140625 C 63.753906 -25.859375 63.226562 -24.726562 62.25 -23.75 C 61.28125 -22.769531 60.023438 -21.914062 58.484375 -21.1875 C 54.835938 -19.488281 51.273438 -18.5 47.796875 -18.21875 C 44.328125 -17.945312 40.695312 -18.253906 36.90625 -19.140625 C 35.21875 -19.617188 33.785156 -19.632812 32.609375 -19.1875 C 31.429688 -18.75 30.234375 -17.390625 29.015625 -15.109375 C 26.003906 -9.304688 21.222656 -6.035156 14.671875 -5.296875 C 9.742188 -4.816406 6.101562 -5.742188 3.75 -8.078125 C 1.394531 -10.410156 -0.09375 -13.398438 -0.71875 -17.046875 C -1.457031 -20.796875 -1.300781 -24.304688 -0.25 -27.578125 C 0.800781 -30.859375 2.539062 -33.910156 4.96875 -36.734375 C 6.84375 -38.765625 9.160156 -39.613281 11.921875 -39.28125 C 13.203125 -39.28125 14.210938 -38.800781 14.953125 -37.84375 C 15.359375 -37.1875 15.429688 -36.617188 15.171875 -36.140625 C 14.910156 -35.660156 14.539062 -35.21875 14.0625 -34.8125 C 10.09375 -30.65625 8.238281 -25.742188 8.5 -20.078125 C 8.570312 -17.429688 9.34375 -15.003906 10.8125 -12.796875 C 12.101562 -10.960938 13.722656 -10.6875 15.671875 -11.96875 C 17.503906 -13.4375 19.128906 -15.457031 20.546875 -18.03125 C 21.960938 -20.613281 22.769531 -23.265625 22.96875 -25.984375 C 23.175781 -28.703125 22.4375 -31.113281 20.75 -33.21875 C 19.863281 -34.019531 19.015625 -34.585938 18.203125 -34.921875 C 17.796875 -35.140625 17.425781 -35.347656 17.09375 -35.546875 C 16.769531 -35.753906 16.609375 -36.023438 16.609375 -36.359375 C 16.535156 -38.234375 17.222656 -39.59375 18.671875 -40.4375 C 20.128906 -41.28125 21.914062 -41.703125 24.03125 -41.703125 C 26.144531 -41.703125 28.109375 -41.28125 29.921875 -40.4375 C 31.742188 -39.59375 32.929688 -38.359375 33.484375 -36.734375 C 34.078125 -34.640625 34.242188 -32.523438 33.984375 -30.390625 C 33.910156 -28.628906 34.644531 -27.269531 36.1875 -26.3125 C 39.644531 -23.882812 43.4375 -23.019531 47.5625 -23.71875 C 49.28125 -24.050781 50.847656 -24.5 52.265625 -25.0625 C 53.679688 -25.632812 55.035156 -26.253906 56.328125 -26.921875 C 58.015625 -27.804688 59.597656 -28.453125 61.078125 -28.859375 Z M 21.234375 -56.765625 C 21.566406 -57.242188 21.988281 -57.546875 22.5 -57.671875 C 23.019531 -57.804688 23.570312 -57.875 24.15625 -57.875 C 24.238281 -57.757812 24.316406 -57.703125 24.390625 -57.703125 C 24.640625 -57.703125 24.875 -57.664062 25.09375 -57.59375 C 26.3125 -57.375 27.003906 -57 27.171875 -56.46875 C 27.335938 -55.9375 27.195312 -55.363281 26.75 -54.75 C 26.3125 -54.144531 25.851562 -53.566406 25.375 -53.015625 C 24.09375 -51.617188 22.84375 -50.035156 21.625 -48.265625 C 20.5625 -46.796875 19.625 -45.617188 18.8125 -44.734375 C 18 -43.859375 17.351562 -43.734375 16.875 -44.359375 C 16.40625 -44.691406 16.140625 -45.101562 16.078125 -45.59375 C 16.023438 -46.09375 16.09375 -46.617188 16.28125 -47.171875 C 16.675781 -48.710938 17.257812 -50.171875 18.03125 -51.546875 C 18.8125 -52.929688 19.640625 -54.265625 20.515625 -55.546875 C 20.742188 -55.953125 20.984375 -56.359375 21.234375 -56.765625 Z M 21.234375 -56.765625 "/></g></g></g><g fill="#000000" fill-opacity="1"><g transform="translate(760.580069, 192.256691)"><g><path d="M 72.828125 -25.921875 C 72.828125 -25.921875 72.863281 -25.921875 72.9375 -25.921875 C 73.34375 -25.847656 73.742188 -25.710938 74.140625 -25.515625 C 74.546875 -25.316406 74.804688 -24.921875 74.921875 -24.328125 C 75.140625 -23.296875 74.84375 -22.488281 74.03125 -21.90625 C 70.726562 -19.582031 67.179688 -17.757812 63.390625 -16.4375 C 59.960938 -15.332031 56.507812 -14.632812 53.03125 -14.34375 C 49.5625 -14.050781 46.046875 -14.070312 42.484375 -14.40625 C 37.878906 -14.875 34.160156 -17.0625 31.328125 -20.96875 C 30.453125 -22.175781 29.550781 -23.390625 28.625 -24.609375 C 27.75 -25.816406 26.832031 -27.066406 25.875 -28.359375 C 25.0625 -29.421875 24.050781 -29.550781 22.84375 -28.75 C 21.375 -27.675781 20.050781 -26.46875 18.875 -25.125 C 17.695312 -23.78125 16.59375 -22.394531 15.5625 -20.96875 C 15.488281 -20.78125 15.394531 -20.613281 15.28125 -20.46875 C 14.875 -19.988281 14.46875 -19.457031 14.0625 -18.875 C 13.582031 -17.988281 13.03125 -17.175781 12.40625 -16.4375 C 11.34375 -15.226562 9.960938 -14.445312 8.265625 -14.09375 C 6.578125 -13.75 4.960938 -13.890625 3.421875 -14.515625 C 2.273438 -15.097656 1.539062 -15.941406 1.21875 -17.046875 C 0.1875 -21.203125 -0.457031 -25.375 -0.71875 -29.5625 C -0.71875 -31.84375 0.328125 -33.1875 2.421875 -33.59375 C 4.847656 -34.144531 6.597656 -33.375 7.671875 -31.28125 C 7.816406 -30.945312 7.925781 -30.539062 8 -30.0625 C 8.113281 -29.582031 8.269531 -29.113281 8.46875 -28.65625 C 8.664062 -28.195312 9.039062 -27.820312 9.59375 -27.53125 C 10.257812 -28.082031 10.867188 -28.597656 11.421875 -29.078125 C 12.703125 -30.210938 13.953125 -31.316406 15.171875 -32.390625 C 16.640625 -33.597656 18.179688 -34.457031 19.796875 -34.96875 C 21.421875 -35.488281 23.148438 -35.75 24.984375 -35.75 C 29.296875 -35.75 32.703125 -34.054688 35.203125 -30.671875 C 35.679688 -29.929688 36.175781 -29.234375 36.6875 -28.578125 C 37.789062 -26.890625 38.945312 -25.269531 40.15625 -23.71875 C 42.113281 -21.21875 44.707031 -19.929688 47.9375 -19.859375 C 51.25 -19.710938 54.421875 -20.015625 57.453125 -20.765625 C 60.492188 -21.523438 63.425781 -22.675781 66.25 -24.21875 C 66.363281 -24.289062 66.492188 -24.382812 66.640625 -24.5 C 67.597656 -25.050781 68.582031 -25.488281 69.59375 -25.8125 C 70.601562 -26.144531 71.679688 -26.179688 72.828125 -25.921875 Z M 72.828125 -25.921875 "/></g></g></g></g></g><g transform="matrix(1, 0, 0, 1, 386, 894)"><g clip-path="url(#35910c215a)"><g fill="#000000" fill-opacity="1"><g transform="translate(2.994033, 36.966579)"><g><path d="M 24.34375 -2.5625 L 24.34375 0 L 4.5625 0 L 4.5625 -27.984375 L 23.75 -27.984375 L 23.75 -25.4375 L 7.515625 -25.4375 L 7.515625 -15.46875 L 21.984375 -15.46875 L 21.984375 -12.953125 L 7.515625 -12.953125 L 7.515625 -2.5625 Z M 24.34375 -2.5625 "/></g></g></g><g fill="#000000" fill-opacity="1"><g transform="translate(39.343441, 36.966579)"><g><path d="M 4.5625 -27.984375 L 15.953125 -27.984375 C 18.910156 -27.984375 21.519531 -27.390625 23.78125 -26.203125 C 26.050781 -25.023438 27.8125 -23.375 29.0625 -21.25 C 30.320312 -19.132812 30.953125 -16.71875 30.953125 -14 C 30.953125 -11.28125 30.320312 -8.859375 29.0625 -6.734375 C 27.8125 -4.617188 26.050781 -2.96875 23.78125 -1.78125 C 21.519531 -0.59375 18.910156 0 15.953125 0 L 4.5625 0 Z M 15.796875 -2.5625 C 18.242188 -2.5625 20.382812 -3.046875 22.21875 -4.015625 C 24.0625 -4.992188 25.488281 -6.34375 26.5 -8.0625 C 27.519531 -9.78125 28.03125 -11.757812 28.03125 -14 C 28.03125 -16.238281 27.519531 -18.21875 26.5 -19.9375 C 25.488281 -21.65625 24.0625 -23 22.21875 -23.96875 C 20.382812 -24.945312 18.242188 -25.4375 15.796875 -25.4375 L 7.515625 -25.4375 L 7.515625 -2.5625 Z M 15.796875 -2.5625 "/></g></g></g><g fill="#000000" fill-opacity="1"><g transform="translate(81.970344, 36.966579)"><g><path d="M 15.828125 0.234375 C 12.203125 0.234375 9.375 -0.800781 7.34375 -2.875 C 5.320312 -4.957031 4.3125 -7.984375 4.3125 -11.953125 L 4.3125 -27.984375 L 7.28125 -27.984375 L 7.28125 -12.078125 C 7.28125 -8.828125 8.007812 -6.398438 9.46875 -4.796875 C 10.9375 -3.203125 13.054688 -2.40625 15.828125 -2.40625 C 18.628906 -2.40625 20.765625 -3.203125 22.234375 -4.796875 C 23.703125 -6.398438 24.4375 -8.828125 24.4375 -12.078125 L 24.4375 -27.984375 L 27.3125 -27.984375 L 27.3125 -11.953125 C 27.3125 -7.984375 26.300781 -4.957031 24.28125 -2.875 C 22.269531 -0.800781 19.453125 0.234375 15.828125 0.234375 Z M 15.828125 0.234375 "/></g></g></g><g fill="#000000" fill-opacity="1"><g transform="translate(123.237782, 36.966579)"><g><path d="M 22.109375 -7.484375 L 6.515625 -7.484375 L 3.15625 0 L 0.078125 0 L 12.875 -27.984375 L 15.796875 -27.984375 L 28.59375 0 L 25.46875 0 Z M 21.03125 -9.875 L 14.3125 -24.90625 L 7.59375 -9.875 Z M 21.03125 -9.875 "/></g></g></g><g fill="#000000" fill-opacity="1"><g transform="translate(161.506409, 36.966579)"><g><path d="M 16.71875 0.234375 C 13.945312 0.234375 11.445312 -0.375 9.21875 -1.59375 C 6.988281 -2.820312 5.238281 -4.519531 3.96875 -6.6875 C 2.707031 -8.863281 2.078125 -11.300781 2.078125 -14 C 2.078125 -16.6875 2.707031 -19.113281 3.96875 -21.28125 C 5.238281 -23.457031 6.992188 -25.160156 9.234375 -26.390625 C 11.472656 -27.617188 13.976562 -28.234375 16.75 -28.234375 C 18.832031 -28.234375 20.753906 -27.882812 22.515625 -27.1875 C 24.273438 -26.5 25.765625 -25.488281 26.984375 -24.15625 L 25.109375 -22.265625 C 22.921875 -24.484375 20.160156 -25.59375 16.828125 -25.59375 C 14.617188 -25.59375 12.609375 -25.082031 10.796875 -24.0625 C 8.984375 -23.050781 7.5625 -21.664062 6.53125 -19.90625 C 5.507812 -18.144531 5 -16.175781 5 -14 C 5 -11.8125 5.507812 -9.835938 6.53125 -8.078125 C 7.5625 -6.316406 8.984375 -4.929688 10.796875 -3.921875 C 12.609375 -2.910156 14.617188 -2.40625 16.828125 -2.40625 C 20.191406 -2.40625 22.953125 -3.519531 25.109375 -5.75 L 26.984375 -3.875 C 25.765625 -2.539062 24.265625 -1.519531 22.484375 -0.8125 C 20.710938 -0.113281 18.789062 0.234375 16.71875 0.234375 Z M 16.71875 0.234375 "/></g></g></g><g fill="#000000" fill-opacity="1"><g transform="translate(199.855008, 36.966579)"><g><path d="M 4.5625 -27.984375 L 7.515625 -27.984375 L 7.515625 0 L 4.5625 0 Z M 4.5625 -27.984375 "/></g></g></g><g fill="#000000" fill-opacity="1"><g transform="translate(221.530208, 36.966579)"><g><path d="M 16.796875 0.234375 C 14.023438 0.234375 11.507812 -0.382812 9.25 -1.625 C 7 -2.863281 5.238281 -4.5625 3.96875 -6.71875 C 2.707031 -8.875 2.078125 -11.300781 2.078125 -14 C 2.078125 -16.6875 2.707031 -19.109375 3.96875 -21.265625 C 5.238281 -23.429688 7 -25.132812 9.25 -26.375 C 11.507812 -27.613281 14.023438 -28.234375 16.796875 -28.234375 C 19.566406 -28.234375 22.0625 -27.617188 24.28125 -26.390625 C 26.507812 -25.160156 28.265625 -23.457031 29.546875 -21.28125 C 30.828125 -19.113281 31.46875 -16.6875 31.46875 -14 C 31.46875 -11.300781 30.828125 -8.863281 29.546875 -6.6875 C 28.265625 -4.519531 26.507812 -2.820312 24.28125 -1.59375 C 22.0625 -0.375 19.566406 0.234375 16.796875 0.234375 Z M 16.796875 -2.40625 C 19.003906 -2.40625 21 -2.898438 22.78125 -3.890625 C 24.570312 -4.890625 25.972656 -6.273438 26.984375 -8.046875 C 28.003906 -9.828125 28.515625 -11.8125 28.515625 -14 C 28.515625 -16.175781 28.003906 -18.148438 26.984375 -19.921875 C 25.972656 -21.703125 24.570312 -23.09375 22.78125 -24.09375 C 21 -25.09375 19.003906 -25.59375 16.796875 -25.59375 C 14.578125 -25.59375 12.566406 -25.09375 10.765625 -24.09375 C 8.972656 -23.09375 7.5625 -21.703125 6.53125 -19.921875 C 5.507812 -18.148438 5 -16.175781 5 -14 C 5 -11.8125 5.507812 -9.828125 6.53125 -8.046875 C 7.5625 -6.273438 8.972656 -4.890625 10.765625 -3.890625 C 12.566406 -2.898438 14.578125 -2.40625 16.796875 -2.40625 Z M 19.671875 -35.21875 L 23.46875 -35.21875 L 16.984375 -30.265625 L 14.1875 -30.265625 Z M 19.671875 -35.21875 "/></g></g></g><g fill="#000000" fill-opacity="1"><g transform="translate(264.676902, 36.966579)"><g><path d="M 27.953125 -27.984375 L 27.953125 0 L 25.515625 0 L 7.515625 -22.71875 L 7.515625 0 L 4.5625 0 L 4.5625 -27.984375 L 7 -27.984375 L 25.03125 -5.28125 L 25.03125 -27.984375 Z M 27.953125 -27.984375 "/></g></g></g><g fill="#000000" fill-opacity="1"><g transform="translate(306.784015, 36.966579)"><g/></g></g><g fill="#000000" fill-opacity="1"><g transform="translate(326.859834, 36.966579)"><g><path d="M 4.5625 -27.984375 L 7.515625 -27.984375 L 7.515625 0 L 4.5625 0 Z M 4.5625 -27.984375 "/></g></g></g><g fill="#000000" fill-opacity="1"><g transform="translate(348.535034, 36.966579)"><g><path d="M 27.953125 -27.984375 L 27.953125 0 L 25.515625 0 L 7.515625 -22.71875 L 7.515625 0 L 4.5625 0 L 4.5625 -27.984375 L 7 -27.984375 L 25.03125 -5.28125 L 25.03125 -27.984375 Z M 27.953125 -27.984375 "/></g></g></g><g fill="#000000" fill-opacity="1"><g transform="translate(390.642147, 36.966579)"><g><path d="M 33.625 -27.984375 L 33.625 0 L 30.78125 0 L 30.78125 -22.390625 L 19.796875 -3.5625 L 18.390625 -3.5625 L 7.390625 -22.265625 L 7.390625 0 L 4.5625 0 L 4.5625 -27.984375 L 7 -27.984375 L 19.15625 -7.234375 L 31.1875 -27.984375 Z M 33.625 -27.984375 "/></g></g></g><g fill="#000000" fill-opacity="1"><g transform="translate(438.42704, 36.966579)"><g><path d="M 16.796875 0.234375 C 14.023438 0.234375 11.507812 -0.382812 9.25 -1.625 C 7 -2.863281 5.238281 -4.5625 3.96875 -6.71875 C 2.707031 -8.875 2.078125 -11.300781 2.078125 -14 C 2.078125 -16.6875 2.707031 -19.109375 3.96875 -21.265625 C 5.238281 -23.429688 7 -25.132812 9.25 -26.375 C 11.507812 -27.613281 14.023438 -28.234375 16.796875 -28.234375 C 19.566406 -28.234375 22.0625 -27.617188 24.28125 -26.390625 C 26.507812 -25.160156 28.265625 -23.457031 29.546875 -21.28125 C 30.828125 -19.113281 31.46875 -16.6875 31.46875 -14 C 31.46875 -11.300781 30.828125 -8.863281 29.546875 -6.6875 C 28.265625 -4.519531 26.507812 -2.820312 24.28125 -1.59375 C 22.0625 -0.375 19.566406 0.234375 16.796875 0.234375 Z M 16.796875 -2.40625 C 19.003906 -2.40625 21 -2.898438 22.78125 -3.890625 C 24.570312 -4.890625 25.972656 -6.273438 26.984375 -8.046875 C 28.003906 -9.828125 28.515625 -11.8125 28.515625 -14 C 28.515625 -16.175781 28.003906 -18.148438 26.984375 -19.921875 C 25.972656 -21.703125 24.570312 -23.09375 22.78125 -24.09375 C 21 -25.09375 19.003906 -25.59375 16.796875 -25.59375 C 14.578125 -25.59375 12.566406 -25.09375 10.765625 -24.09375 C 8.972656 -23.09375 7.5625 -21.703125 6.53125 -19.921875 C 5.507812 -18.148438 5 -16.175781 5 -14 C 5 -11.8125 5.507812 -9.828125 6.53125 -8.046875 C 7.5625 -6.273438 8.972656 -4.890625 10.765625 -3.890625 C 12.566406 -2.898438 14.578125 -2.40625 16.796875 -2.40625 Z M 16.796875 -2.40625 "/></g></g></g><g fill="#000000" fill-opacity="1"><g transform="translate(481.573734, 36.966579)"><g><path d="M 22.1875 -14.4375 C 24.03125 -14.03125 25.453125 -13.234375 26.453125 -12.046875 C 27.453125 -10.867188 27.953125 -9.347656 27.953125 -7.484375 C 27.953125 -5.078125 27.0625 -3.226562 25.28125 -1.9375 C 23.507812 -0.644531 20.894531 0 17.4375 0 L 4.5625 0 L 4.5625 -27.984375 L 16.640625 -27.984375 C 19.753906 -27.984375 22.171875 -27.359375 23.890625 -26.109375 C 25.609375 -24.859375 26.46875 -23.085938 26.46875 -20.796875 C 26.46875 -19.242188 26.085938 -17.925781 25.328125 -16.84375 C 24.566406 -15.769531 23.519531 -14.96875 22.1875 -14.4375 Z M 7.515625 -25.546875 L 7.515625 -15.390625 L 16.4375 -15.390625 C 18.695312 -15.390625 20.441406 -15.820312 21.671875 -16.6875 C 22.898438 -17.5625 23.515625 -18.820312 23.515625 -20.46875 C 23.515625 -22.125 22.898438 -23.382812 21.671875 -24.25 C 20.441406 -25.113281 18.695312 -25.546875 16.4375 -25.546875 Z M 17.390625 -2.4375 C 19.898438 -2.4375 21.789062 -2.863281 23.0625 -3.71875 C 24.34375 -4.570312 24.984375 -5.90625 24.984375 -7.71875 C 24.984375 -11.207031 22.453125 -12.953125 17.390625 -12.953125 L 7.515625 -12.953125 L 7.515625 -2.4375 Z M 17.390625 -2.4375 "/></g></g></g><g fill="#000000" fill-opacity="1"><g transform="translate(521.321762, 36.966579)"><g><path d="M 4.5625 -27.984375 L 7.515625 -27.984375 L 7.515625 0 L 4.5625 0 Z M 4.5625 -27.984375 "/></g></g></g><g fill="#000000" fill-opacity="1"><g transform="translate(542.996962, 36.966579)"><g><path d="M 4.5625 -27.984375 L 7.515625 -27.984375 L 7.515625 -2.5625 L 23.1875 -2.5625 L 23.1875 0 L 4.5625 0 Z M 4.5625 -27.984375 "/></g></g></g><g fill="#000000" fill-opacity="1"><g transform="translate(576.147609, 36.966579)"><g><path d="M 4.5625 -27.984375 L 7.515625 -27.984375 L 7.515625 0 L 4.5625 0 Z M 4.5625 -27.984375 "/></g></g></g><g fill="#000000" fill-opacity="1"><g transform="translate(597.822809, 36.966579)"><g><path d="M 22.109375 -7.484375 L 6.515625 -7.484375 L 3.15625 0 L 0.078125 0 L 12.875 -27.984375 L 15.796875 -27.984375 L 28.59375 0 L 25.46875 0 Z M 21.03125 -9.875 L 14.3125 -24.90625 L 7.59375 -9.875 Z M 21.03125 -9.875 "/></g></g></g><g fill="#000000" fill-opacity="1"><g transform="translate(636.091436, 36.966579)"><g><path d="M 23.671875 0 L 17.265625 -9 C 16.546875 -8.914062 15.800781 -8.875 15.03125 -8.875 L 7.515625 -8.875 L 7.515625 0 L 4.5625 0 L 4.5625 -27.984375 L 15.03125 -27.984375 C 18.601562 -27.984375 21.398438 -27.128906 23.421875 -25.421875 C 25.453125 -23.722656 26.46875 -21.378906 26.46875 -18.390625 C 26.46875 -16.203125 25.914062 -14.351562 24.8125 -12.84375 C 23.707031 -11.34375 22.128906 -10.257812 20.078125 -9.59375 L 26.90625 0 Z M 14.953125 -11.390625 C 17.722656 -11.390625 19.84375 -12.003906 21.3125 -13.234375 C 22.78125 -14.460938 23.515625 -16.179688 23.515625 -18.390625 C 23.515625 -20.660156 22.78125 -22.398438 21.3125 -23.609375 C 19.84375 -24.828125 17.722656 -25.4375 14.953125 -25.4375 L 7.515625 -25.4375 L 7.515625 -11.390625 Z M 14.953125 -11.390625 "/></g></g></g><g fill="#000000" fill-opacity="1"><g transform="translate(674.599978, 36.966579)"><g><path d="M 4.5625 -27.984375 L 7.515625 -27.984375 L 7.515625 0 L 4.5625 0 Z M 4.5625 -27.984375 "/></g></g></g><g fill="#000000" fill-opacity="1"><g transform="translate(696.275177, 36.966579)"><g><path d="M 22.109375 -7.484375 L 6.515625 -7.484375 L 3.15625 0 L 0.078125 0 L 12.875 -27.984375 L 15.796875 -27.984375 L 28.59375 0 L 25.46875 0 Z M 21.03125 -9.875 L 14.3125 -24.90625 L 7.59375 -9.875 Z M 21.03125 -9.875 "/></g></g></g></g></g></svg>