<svg xmlns="http://www.w3.org/2000/svg" xmlns:xlink="http://www.w3.org/1999/xlink" width="2000" zoomAndPan="magnify" viewBox="0 0 1500 1499.999933" height="2000" preserveAspectRatio="xMidYMid meet" version="1.0"><defs><g/><clipPath id="f9c9d54221"><rect x="0" width="1145" y="0" height="993"/></clipPath><clipPath id="1893836489"><rect x="0" width="1417" y="0" height="512"/></clipPath><clipPath id="44e1fd5ff1"><rect x="0" width="1240" y="0" height="82"/></clipPath></defs><g transform="matrix(1, 0, 0, 1, 198, 251)"><g clip-path="url(#f9c9d54221)"><g fill="#444343" fill-opacity="1"><g transform="translate(1.886924, 718.990735)"><g><path d="M 295.5 -501.4375 C 306.726562 -501.4375 319.234375 -501.304688 333.015625 -501.046875 C 346.796875 -500.796875 360.957031 -499.648438 375.5 -497.609375 C 390.050781 -495.566406 404.472656 -492.375 418.765625 -488.03125 C 433.054688 -483.695312 446.070312 -477.707031 457.8125 -470.0625 C 475.664062 -458.320312 488.035156 -444.921875 494.921875 -429.859375 C 501.816406 -414.804688 505.265625 -399.878906 505.265625 -385.078125 C 505.265625 -365.171875 501.304688 -348.453125 493.390625 -334.921875 C 485.484375 -321.398438 475.410156 -310.300781 463.171875 -301.625 C 454.492188 -295.5 444.921875 -290.394531 434.453125 -286.3125 C 423.992188 -282.238281 413.273438 -278.796875 402.296875 -275.984375 C 391.328125 -273.179688 380.738281 -270.882812 370.53125 -269.09375 C 360.320312 -267.3125 351.132812 -265.910156 342.96875 -264.890625 L 342.96875 -258 C 349.601562 -256.976562 357.640625 -255.570312 367.078125 -253.78125 C 376.523438 -252 386.097656 -249.957031 395.796875 -247.65625 C 405.492188 -245.363281 415.0625 -242.429688 424.5 -238.859375 C 433.945312 -235.285156 442.242188 -230.945312 449.390625 -225.84375 C 458.066406 -219.207031 465.207031 -211.929688 470.8125 -204.015625 C 476.425781 -196.109375 480.765625 -188.070312 483.828125 -179.90625 C 486.890625 -171.738281 489.054688 -163.828125 490.328125 -156.171875 C 491.609375 -148.515625 492.503906 -141.625 493.015625 -135.5 L 498.375 -76.5625 C 499.394531 -64.3125 501.4375 -54.613281 504.5 -47.46875 C 507.5625 -40.320312 511.003906 -34.832031 514.828125 -31 C 518.660156 -27.175781 522.742188 -24.753906 527.078125 -23.734375 C 531.421875 -22.710938 535.378906 -22.203125 538.953125 -22.203125 C 542.015625 -22.203125 545.203125 -22.96875 548.515625 -24.5 C 551.835938 -26.03125 554.773438 -27.304688 557.328125 -28.328125 L 565.75 -13.015625 C 554.007812 -4.847656 540.484375 1.144531 525.171875 4.96875 C 509.859375 8.800781 494.800781 10.71875 480 10.71875 C 469.289062 10.71875 457.171875 9.441406 443.640625 6.890625 C 430.117188 4.335938 419.019531 -0.253906 410.34375 -6.890625 C 400.644531 -14.035156 392.988281 -24.878906 387.375 -39.421875 C 381.757812 -53.972656 378.1875 -68.394531 376.65625 -82.6875 L 367.46875 -161.53125 C 365.9375 -175.820312 363.765625 -189.601562 360.953125 -202.875 C 358.148438 -216.144531 351.644531 -227.117188 341.4375 -235.796875 C 334.289062 -241.921875 324.71875 -246.382812 312.71875 -249.1875 C 300.726562 -252 290.398438 -253.40625 281.734375 -253.40625 L 214.359375 -253.40625 L 214.359375 -16.84375 L 278.671875 -16.84375 L 278.671875 0 L 32.15625 0 L 32.15625 -16.84375 L 96.453125 -16.84375 L 96.453125 -484.59375 L 32.15625 -484.59375 L 32.15625 -501.4375 Z M 267.1875 -270.25 C 280.457031 -270.25 294.363281 -271.015625 308.90625 -272.546875 C 323.445312 -274.078125 336.585938 -280.195312 348.328125 -290.90625 C 358.535156 -300.601562 364.914062 -311.445312 367.46875 -323.4375 C 370.019531 -335.4375 371.296875 -346.539062 371.296875 -356.75 L 371.296875 -401.15625 C 371.296875 -413.914062 369.890625 -425.65625 367.078125 -436.375 C 364.273438 -447.09375 356.238281 -457.300781 342.96875 -467 C 331.226562 -475.664062 318.851562 -480.765625 305.84375 -482.296875 C 292.832031 -483.828125 280.96875 -484.59375 270.25 -484.59375 L 214.359375 -484.59375 L 214.359375 -270.25 Z M 267.1875 -270.25 "/></g></g></g><g fill="#444343" fill-opacity="1"><g transform="translate(614.322883, 718.990735)"><g><path d="M 466.234375 -177.609375 L 460.109375 0 L 438.671875 0 C 436.117188 -7.144531 432.414062 -12.503906 427.5625 -16.078125 C 422.71875 -19.648438 417.742188 -21.4375 412.640625 -21.4375 C 409.578125 -21.4375 405.875 -20.796875 401.53125 -19.515625 C 397.195312 -18.242188 390.691406 -15.820312 382.015625 -12.25 C 369.253906 -6.632812 355.472656 -1.40625 340.671875 3.4375 C 325.867188 8.289062 305.96875 10.71875 280.96875 10.71875 C 250.34375 10.71875 223.546875 6 200.578125 -3.4375 C 177.609375 -12.882812 156.425781 -25.773438 137.03125 -42.109375 C 120.695312 -55.890625 106.023438 -71.453125 93.015625 -88.796875 C 80.003906 -106.148438 69.671875 -123.503906 62.015625 -140.859375 C 54.359375 -158.722656 48.867188 -176.457031 45.546875 -194.0625 C 42.234375 -211.675781 40.578125 -229.414062 40.578125 -247.28125 C 40.578125 -272.800781 43.507812 -296.148438 49.375 -317.328125 C 55.25 -338.503906 62.523438 -357.515625 71.203125 -374.359375 C 79.878906 -391.203125 89.445312 -406.003906 99.90625 -418.765625 C 110.363281 -431.523438 120.1875 -442.242188 129.375 -450.921875 C 147.238281 -467.253906 168.929688 -481.539062 194.453125 -493.78125 C 219.972656 -506.03125 248.8125 -512.15625 280.96875 -512.15625 C 296.78125 -512.15625 311.320312 -510.625 324.59375 -507.5625 C 337.863281 -504.5 351.898438 -500.925781 366.703125 -496.84375 C 376.910156 -493.78125 384.566406 -491.351562 389.671875 -489.5625 C 394.773438 -487.78125 399.367188 -486.890625 403.453125 -486.890625 C 407.535156 -486.890625 413.019531 -488.289062 419.90625 -491.09375 C 426.800781 -493.90625 430.757812 -500.925781 431.78125 -512.15625 L 453.21875 -512.15625 L 454.75 -339.90625 L 437.90625 -339.90625 C 433.820312 -359.300781 428.460938 -376.398438 421.828125 -391.203125 C 415.191406 -406.003906 408.046875 -419.019531 400.390625 -430.25 C 386.097656 -451.6875 370.53125 -467.890625 353.6875 -478.859375 C 336.84375 -489.828125 316.9375 -495.3125 293.96875 -495.3125 C 272.539062 -495.3125 253.53125 -490.71875 236.9375 -481.53125 C 220.351562 -472.351562 207.46875 -460.109375 198.28125 -444.796875 C 195.726562 -440.203125 193.046875 -434.457031 190.234375 -427.5625 C 187.429688 -420.675781 184.878906 -412 182.578125 -401.53125 C 180.285156 -391.070312 178.375 -378.441406 176.84375 -363.640625 C 175.3125 -348.835938 174.546875 -331.484375 174.546875 -311.578125 L 174.546875 -205.9375 C 174.546875 -169.1875 177.097656 -138.5625 182.203125 -114.0625 C 187.304688 -89.570312 195.984375 -68.90625 208.234375 -52.0625 C 219.460938 -36.75 232.734375 -25.265625 248.046875 -17.609375 C 263.359375 -9.953125 278.410156 -6.125 293.203125 -6.125 C 300.859375 -6.125 309.535156 -7.269531 319.234375 -9.5625 C 328.929688 -11.863281 339.007812 -15.691406 349.46875 -21.046875 C 359.9375 -26.410156 370.398438 -33.554688 380.859375 -42.484375 C 391.328125 -51.421875 400.898438 -62.523438 409.578125 -75.796875 C 417.234375 -87.535156 423.992188 -101.3125 429.859375 -117.125 C 435.734375 -132.945312 440.710938 -153.109375 444.796875 -177.609375 Z M 466.234375 -177.609375 "/></g></g></g></g></g></svg>