<svg xmlns="http://www.w3.org/2000/svg" xmlns:xlink="http://www.w3.org/1999/xlink" width="2000" zoomAndPan="magnify" viewBox="0 0 1500 1499.999933" height="2000" preserveAspectRatio="xMidYMid meet" version="1.0"><defs><g/><clipPath id="416f28c842"><path d="M 223.25 231.445312 L 1276.75 231.445312 L 1276.75 1284.941406 L 223.25 1284.941406 Z M 223.25 231.445312 " clip-rule="nonzero"/></clipPath><clipPath id="59adf2e496"><path d="M 750 231.445312 C 459.085938 231.445312 223.25 467.277344 223.25 758.195312 C 223.25 1049.109375 459.085938 1284.941406 750 1284.941406 C 1040.914062 1284.941406 1276.75 1049.109375 1276.75 758.195312 C 1276.75 467.277344 1040.914062 231.445312 750 231.445312 Z M 750 231.445312 " clip-rule="nonzero"/></clipPath><clipPath id="e4d1caf050"><path d="M 0.25 0.445312 L 1053.75 0.445312 L 1053.75 1053.941406 L 0.25 1053.941406 Z M 0.25 0.445312 " clip-rule="nonzero"/></clipPath><clipPath id="40813301a4"><path d="M 527 0.445312 C 236.085938 0.445312 0.25 236.277344 0.25 527.195312 C 0.25 818.109375 236.085938 1053.941406 527 1053.941406 C 817.914062 1053.941406 1053.75 818.109375 1053.75 527.195312 C 1053.75 236.277344 817.914062 0.445312 527 0.445312 Z M 527 0.445312 " clip-rule="nonzero"/></clipPath><clipPath id="bd6a83eebb"><rect x="0" width="1054" y="0" height="1054"/></clipPath><clipPath id="026adb75de"><path d="M 223.25 231.445312 L 1276.742188 231.445312 L 1276.742188 1284.9375 L 223.25 1284.9375 Z M 223.25 231.445312 " clip-rule="nonzero"/></clipPath><clipPath id="c353981f05"><path d="M 749.996094 231.445312 C 459.082031 231.445312 223.25 467.277344 223.25 758.191406 C 223.25 1049.105469 459.082031 1284.9375 749.996094 1284.9375 C 1040.910156 1284.9375 1276.742188 1049.105469 1276.742188 758.191406 C 1276.742188 467.277344 1040.910156 231.445312 749.996094 231.445312 Z M 749.996094 231.445312 " clip-rule="nonzero"/></clipPath><clipPath id="b178b89e92"><path d="M 303.46875 303.46875 L 1196.519531 303.46875 L 1196.519531 1196.519531 L 303.46875 1196.519531 Z M 303.46875 303.46875 " clip-rule="nonzero"/></clipPath><clipPath id="f5fbf32c13"><path d="M 749.996094 303.46875 C 503.386719 303.46875 303.46875 503.386719 303.46875 749.996094 C 303.46875 996.605469 503.386719 1196.519531 749.996094 1196.519531 C 996.605469 1196.519531 1196.519531 996.605469 1196.519531 749.996094 C 1196.519531 503.386719 996.605469 303.46875 749.996094 303.46875 Z M 749.996094 303.46875 " clip-rule="nonzero"/></clipPath><clipPath id="69bbbf21b7"><rect x="0" width="792" y="0" height="687"/></clipPath><clipPath id="8fb623b3bc"><rect x="0" width="935" y="0" height="970"/></clipPath></defs><g clip-path="url(#416f28c842)"><g clip-path="url(#59adf2e496)"><g transform="matrix(1, 0, 0, 1, 223, 231)"><g clip-path="url(#bd6a83eebb)"><g clip-path="url(#e4d1caf050)"><g clip-path="url(#40813301a4)"><path fill="#000000" d="M 0.25 0.445312 L 1053.75 0.445312 L 1053.75 1053.941406 L 0.25 1053.941406 Z M 0.25 0.445312 " fill-opacity="1" fill-rule="nonzero"/></g></g></g></g></g></g><g clip-path="url(#026adb75de)"><g clip-path="url(#c353981f05)"><path stroke-linecap="butt" transform="matrix(0.75, 0, 0, 0.75, 223.251197, 231.445273)" fill="none" stroke-linejoin="miter" d="M 702.32659 0.0000528469 C 314.44114 0.0000528469 -0.00159536 314.442788 -0.00159536 702.328238 C -0.00159536 1090.213688 314.44114 1404.656424 702.32659 1404.656424 C 1090.21204 1404.656424 1404.654776 1090.213688 1404.654776 702.328238 C 1404.654776 314.442788 1090.21204 0.0000528469 702.32659 0.0000528469 Z M 702.32659 0.0000528469 " stroke="#000000" stroke-width="24" stroke-opacity="1" stroke-miterlimit="4"/></g></g><g clip-path="url(#b178b89e92)"><g clip-path="url(#f5fbf32c13)"><path stroke-linecap="butt" transform="matrix(0.75, 0, 0, 0.75, 303.470162, 303.470109)" fill="none" stroke-linejoin="miter" d="M 595.36796 -0.00181208 C 266.555431 -0.00181208 -0.00188321 266.555503 -0.00188321 595.368031 C -0.00188321 924.180559 266.555431 1190.732665 595.36796 1190.732665 C 924.180488 1190.732665 1190.732594 924.180559 1190.732594 595.368031 C 1190.732594 266.555503 924.180488 -0.00181208 595.36796 -0.00181208 Z M 595.36796 -0.00181208 " stroke="#ffffff" stroke-width="24" stroke-opacity="1" stroke-miterlimit="4"/></g></g><g transform="matrix(1, 0, 0, 1, 369, 448)"><g clip-path="url(#69bbbf21b7)"><g fill="#444343" fill-opacity="1"><g transform="translate(0.948862, 497.427775)"><g><path d="M 204.15625 -346.4375 C 211.914062 -346.4375 220.554688 -346.347656 230.078125 -346.171875 C 239.597656 -346.003906 249.382812 -345.210938 259.4375 -343.796875 C 269.488281 -342.390625 279.445312 -340.1875 289.3125 -337.1875 C 299.1875 -334.1875 308.179688 -330.046875 316.296875 -324.765625 C 328.640625 -316.648438 337.191406 -307.390625 341.953125 -296.984375 C 346.710938 -286.585938 349.09375 -276.273438 349.09375 -266.046875 C 349.09375 -252.296875 346.359375 -240.75 340.890625 -231.40625 C 335.421875 -222.0625 328.457031 -214.390625 320 -208.390625 C 314 -204.160156 307.382812 -200.632812 300.15625 -197.8125 C 292.925781 -194.988281 285.519531 -192.609375 277.9375 -190.671875 C 270.363281 -188.734375 263.050781 -187.144531 256 -185.90625 C 248.945312 -184.675781 242.597656 -183.707031 236.953125 -183 L 236.953125 -178.25 C 241.535156 -177.539062 247.085938 -176.566406 253.609375 -175.328125 C 260.140625 -174.097656 266.753906 -172.6875 273.453125 -171.09375 C 280.148438 -169.507812 286.757812 -167.484375 293.28125 -165.015625 C 299.8125 -162.554688 305.546875 -159.5625 310.484375 -156.03125 C 316.472656 -151.445312 321.40625 -146.421875 325.28125 -140.953125 C 329.164062 -135.492188 332.164062 -129.941406 334.28125 -124.296875 C 336.394531 -118.648438 337.890625 -113.179688 338.765625 -107.890625 C 339.648438 -102.609375 340.269531 -97.851562 340.625 -93.625 L 344.328125 -52.890625 C 345.035156 -44.429688 346.445312 -37.734375 348.5625 -32.796875 C 350.675781 -27.859375 353.054688 -24.066406 355.703125 -21.421875 C 358.347656 -18.773438 361.164062 -17.097656 364.15625 -16.390625 C 367.15625 -15.691406 369.890625 -15.34375 372.359375 -15.34375 C 374.472656 -15.34375 376.675781 -15.867188 378.96875 -16.921875 C 381.257812 -17.984375 383.289062 -18.863281 385.0625 -19.5625 L 390.875 -8.984375 C 382.757812 -3.347656 373.410156 0.789062 362.828125 3.4375 C 352.253906 6.082031 341.859375 7.40625 331.640625 7.40625 C 324.234375 7.40625 315.859375 6.519531 306.515625 4.75 C 297.171875 2.988281 289.5 -0.179688 283.5 -4.765625 C 276.800781 -9.703125 271.507812 -17.191406 267.625 -27.234375 C 263.75 -37.285156 261.285156 -47.25 260.234375 -57.125 L 253.875 -111.609375 C 252.820312 -121.472656 251.328125 -130.988281 249.390625 -140.15625 C 247.453125 -149.332031 242.957031 -156.914062 235.90625 -162.90625 C 230.96875 -167.132812 224.351562 -170.21875 216.0625 -172.15625 C 207.78125 -174.101562 200.640625 -175.078125 194.640625 -175.078125 L 148.09375 -175.078125 L 148.09375 -11.640625 L 192.53125 -11.640625 L 192.53125 0 L 22.21875 0 L 22.21875 -11.640625 L 66.640625 -11.640625 L 66.640625 -334.8125 L 22.21875 -334.8125 L 22.21875 -346.4375 Z M 184.59375 -186.703125 C 193.757812 -186.703125 203.367188 -187.234375 213.421875 -188.296875 C 223.472656 -189.359375 232.550781 -193.585938 240.65625 -200.984375 C 247.707031 -207.691406 252.113281 -215.1875 253.875 -223.46875 C 255.644531 -231.757812 256.53125 -239.429688 256.53125 -246.484375 L 256.53125 -277.15625 C 256.53125 -285.96875 255.554688 -294.078125 253.609375 -301.484375 C 251.671875 -308.890625 246.117188 -315.941406 236.953125 -322.640625 C 228.847656 -328.640625 220.296875 -332.164062 211.296875 -333.21875 C 202.304688 -334.28125 194.109375 -334.8125 186.703125 -334.8125 L 148.09375 -334.8125 L 148.09375 -186.703125 Z M 184.59375 -186.703125 "/></g></g></g><g fill="#444343" fill-opacity="1"><g transform="translate(424.063477, 497.427775)"><g><path d="M 322.109375 -122.703125 L 317.875 0 L 303.078125 0 C 301.304688 -4.9375 298.742188 -8.640625 295.390625 -11.109375 C 292.046875 -13.578125 288.613281 -14.8125 285.09375 -14.8125 C 282.976562 -14.8125 280.421875 -14.367188 277.421875 -13.484375 C 274.421875 -12.609375 269.925781 -10.9375 263.9375 -8.46875 C 255.113281 -4.582031 245.585938 -0.96875 235.359375 2.375 C 225.140625 5.726562 211.390625 7.40625 194.109375 7.40625 C 172.953125 7.40625 154.441406 4.144531 138.578125 -2.375 C 122.710938 -8.90625 108.078125 -17.8125 94.671875 -29.09375 C 83.390625 -38.613281 73.253906 -49.367188 64.265625 -61.359375 C 55.273438 -73.347656 48.132812 -85.335938 42.84375 -97.328125 C 37.550781 -109.660156 33.757812 -121.910156 31.46875 -134.078125 C 29.175781 -146.242188 28.03125 -158.5 28.03125 -170.84375 C 28.03125 -188.46875 30.054688 -204.597656 34.109375 -219.234375 C 38.171875 -233.867188 43.195312 -247.003906 49.1875 -258.640625 C 55.1875 -270.273438 61.800781 -280.5 69.03125 -289.3125 C 76.257812 -298.132812 83.046875 -305.539062 89.390625 -311.53125 C 101.734375 -322.8125 116.71875 -332.679688 134.34375 -341.140625 C 151.976562 -349.609375 171.898438 -353.84375 194.109375 -353.84375 C 205.046875 -353.84375 215.097656 -352.785156 224.265625 -350.671875 C 233.429688 -348.554688 243.128906 -346.085938 253.359375 -343.265625 C 260.410156 -341.148438 265.695312 -339.472656 269.21875 -338.234375 C 272.75 -337.003906 275.921875 -336.390625 278.734375 -336.390625 C 281.554688 -336.390625 285.347656 -337.359375 290.109375 -339.296875 C 294.867188 -341.242188 297.601562 -346.09375 298.3125 -353.84375 L 313.125 -353.84375 L 314.171875 -234.84375 L 302.546875 -234.84375 C 299.722656 -248.238281 296.019531 -260.050781 291.4375 -270.28125 C 286.851562 -280.507812 281.914062 -289.5 276.625 -297.25 C 266.75 -312.0625 255.992188 -323.257812 244.359375 -330.84375 C 232.722656 -338.425781 218.972656 -342.21875 203.109375 -342.21875 C 188.296875 -342.21875 175.160156 -339.039062 163.703125 -332.6875 C 152.242188 -326.34375 143.335938 -317.878906 136.984375 -307.296875 C 135.222656 -304.128906 133.375 -300.164062 131.4375 -295.40625 C 129.5 -290.644531 127.734375 -284.648438 126.140625 -277.421875 C 124.554688 -270.191406 123.234375 -261.460938 122.171875 -251.234375 C 121.117188 -241.015625 120.59375 -229.023438 120.59375 -215.265625 L 120.59375 -142.28125 C 120.59375 -116.894531 122.351562 -95.738281 125.875 -78.8125 C 129.40625 -61.882812 135.398438 -47.601562 143.859375 -35.96875 C 151.617188 -25.382812 160.785156 -17.445312 171.359375 -12.15625 C 181.941406 -6.875 192.347656 -4.234375 202.578125 -4.234375 C 207.867188 -4.234375 213.863281 -5.023438 220.5625 -6.609375 C 227.257812 -8.191406 234.222656 -10.832031 241.453125 -14.53125 C 248.679688 -18.238281 255.910156 -23.175781 263.140625 -29.34375 C 270.367188 -35.519531 276.976562 -43.191406 282.96875 -52.359375 C 288.257812 -60.472656 292.929688 -69.992188 296.984375 -80.921875 C 301.046875 -91.859375 304.484375 -105.785156 307.296875 -122.703125 Z M 322.109375 -122.703125 "/></g></g></g></g></g><g transform="matrix(1, 0, 0, 1, 483, 456)"><g clip-path="url(#8fb623b3bc)"><path fill="#000000" d="M 604.796875 22.15625 C 605.355469 21.664062 605.941406 21.203125 606.546875 20.769531 C 607.152344 20.335938 607.78125 19.933594 608.425781 19.558594 C 609.070312 19.1875 609.730469 18.84375 610.410156 18.535156 C 611.089844 18.226562 611.78125 17.949219 612.484375 17.707031 C 613.191406 17.464844 613.90625 17.257812 614.628906 17.085938 C 615.355469 16.914062 616.085938 16.773438 616.824219 16.671875 C 617.5625 16.570312 618.304688 16.503906 619.050781 16.472656 C 619.792969 16.441406 620.539062 16.445312 621.28125 16.488281 C 622.027344 16.527344 622.769531 16.605469 623.503906 16.71875 C 624.242188 16.832031 624.972656 16.980469 625.695312 17.164062 C 626.417969 17.347656 627.128906 17.5625 627.828125 17.816406 C 628.53125 18.066406 629.21875 18.355469 629.894531 18.671875 C 630.566406 18.992188 631.222656 19.339844 631.863281 19.722656 C 632.503906 20.105469 633.125 20.519531 633.722656 20.960938 C 634.324219 21.402344 634.902344 21.871094 635.457031 22.371094 C 636.011719 22.867188 636.539062 23.390625 637.042969 23.941406 C 641.429688 29.226562 645.695312 34.609375 649.84375 40.089844 C 653.988281 45.566406 658.011719 51.132812 661.910156 56.789062 C 665.808594 62.449219 669.578125 68.1875 673.21875 74.011719 C 676.863281 79.839844 680.371094 85.742188 683.75 91.722656 C 687.132812 97.703125 690.375 103.757812 693.484375 109.886719 C 696.59375 116.011719 699.5625 122.203125 702.398438 128.460938 C 705.230469 134.71875 707.921875 141.039062 710.472656 147.417969 C 713.023438 153.796875 715.433594 160.230469 717.699219 166.714844 C 719.960938 173.199219 722.082031 179.734375 724.054688 186.316406 C 726.027344 192.894531 727.851562 199.515625 729.53125 206.179688 C 731.210938 212.839844 732.738281 219.535156 734.117188 226.265625 C 735.496094 232.996094 736.726562 239.753906 737.804688 246.539062 C 738.882812 253.324219 739.808594 260.128906 740.585938 266.953125 C 741.359375 273.78125 741.980469 280.621094 742.453125 287.476562 C 742.921875 294.328125 743.238281 301.191406 743.402344 308.058594 C 743.566406 314.925781 743.578125 321.792969 743.4375 328.664062 C 743.292969 335.53125 743 342.394531 742.550781 349.25 C 742.101562 356.105469 741.5 362.945312 740.75 369.773438 C 739.996094 376.601562 739.089844 383.410156 738.035156 390.199219 C 736.976562 396.988281 735.769531 403.75 734.414062 410.484375 C 733.054688 417.21875 731.546875 423.917969 729.890625 430.585938 C 728.234375 437.253906 726.429688 443.878906 724.476562 450.464844 C 722.523438 457.054688 720.425781 463.59375 718.183594 470.085938 C 715.9375 476.578125 713.550781 483.019531 711.019531 489.40625 C 708.488281 495.792969 705.816406 502.121094 703.003906 508.386719 C 700.191406 514.65625 697.238281 520.859375 694.148438 526.992188 C 691.0625 533.128906 687.835938 539.195312 684.476562 545.1875 C 681.117188 551.179688 677.625 557.09375 674 562.929688 C 670.378906 568.765625 666.625 574.519531 662.746094 580.1875 C 658.867188 585.859375 654.859375 591.4375 650.730469 596.929688 C 646.601562 602.421875 642.355469 607.816406 637.984375 613.117188 C 633.617188 618.417969 629.128906 623.621094 624.527344 628.722656 C 619.925781 633.824219 615.214844 638.820312 610.390625 643.710938 C 605.566406 648.601562 600.636719 653.382812 595.597656 658.054688 C 590.5625 662.726562 585.421875 667.285156 580.183594 671.726562 C 574.941406 676.167969 569.605469 680.492188 564.171875 684.695312 C 558.738281 688.902344 553.214844 692.980469 547.601562 696.941406 C 541.984375 700.898438 536.285156 704.730469 530.5 708.433594 C 524.710938 712.136719 518.847656 715.710938 512.902344 719.152344 C 506.957031 722.597656 500.9375 725.90625 494.84375 729.078125 C 488.753906 732.253906 482.59375 735.289062 476.363281 738.191406 C 470.136719 741.089844 463.847656 743.847656 457.496094 746.46875 C 451.144531 749.085938 444.738281 751.5625 438.277344 753.898438 C 431.816406 756.230469 425.304688 758.417969 418.746094 760.460938 C 412.1875 762.503906 405.585938 764.402344 398.941406 766.152344 C 392.296875 767.898438 385.617188 769.5 378.902344 770.949219 C 372.1875 772.402344 365.445312 773.703125 358.671875 774.855469 C 351.898438 776.003906 345.101562 777.003906 338.285156 777.851562 C 331.46875 778.699219 324.636719 779.394531 317.785156 779.9375 C 310.9375 780.480469 304.082031 780.871094 297.214844 781.105469 C 290.347656 781.34375 283.480469 781.429688 276.613281 781.359375 C 269.742188 781.289062 262.878906 781.070312 256.019531 780.695312 C 249.15625 780.320312 242.308594 779.792969 235.472656 779.109375 C 228.636719 778.429688 221.820312 777.597656 215.019531 776.613281 C 208.222656 775.628906 201.449219 774.496094 194.699219 773.207031 C 187.949219 771.921875 181.234375 770.484375 174.550781 768.902344 C 167.867188 767.316406 161.21875 765.582031 154.613281 763.699219 C 148.003906 761.816406 141.445312 759.789062 134.925781 757.613281 C 128.410156 755.441406 121.945312 753.121094 115.53125 750.660156 C 109.117188 748.195312 102.761719 745.589844 96.464844 742.84375 C 90.167969 740.097656 83.933594 737.214844 77.765625 734.191406 C 71.597656 731.167969 65.5 728.007812 59.472656 724.710938 C 53.445312 721.414062 47.492188 717.988281 41.617188 714.425781 C 35.742188 710.863281 29.949219 707.175781 24.238281 703.355469 C 23.640625 702.910156 23.066406 702.4375 22.515625 701.9375 C 21.960938 701.4375 21.433594 700.910156 20.933594 700.359375 C 20.433594 699.804688 19.957031 699.230469 19.511719 698.636719 C 19.066406 698.039062 18.648438 697.421875 18.265625 696.78125 C 17.878906 696.144531 17.523438 695.492188 17.199219 694.820312 C 16.878906 694.148438 16.585938 693.460938 16.332031 692.761719 C 16.074219 692.0625 15.851562 691.351562 15.664062 690.628906 C 15.476562 689.90625 15.324219 689.179688 15.207031 688.441406 C 15.089844 687.707031 15.007812 686.96875 14.960938 686.222656 C 14.914062 685.480469 14.90625 684.734375 14.929688 683.988281 C 14.957031 683.246094 15.019531 682.503906 15.117188 681.765625 C 15.214844 681.023438 15.347656 680.292969 15.515625 679.566406 C 15.683594 678.839844 15.886719 678.125 16.125 677.417969 C 16.363281 676.710938 16.632812 676.015625 16.9375 675.335938 C 17.242188 674.65625 17.582031 673.992188 17.949219 673.34375 C 18.320312 672.699219 18.71875 672.070312 19.148438 671.460938 L 46.757812 634.34375 C 47.199219 633.707031 47.671875 633.097656 48.175781 632.511719 C 48.675781 631.925781 49.207031 631.363281 49.765625 630.832031 C 50.324219 630.296875 50.910156 629.792969 51.519531 629.316406 C 52.128906 628.84375 52.757812 628.398438 53.414062 627.988281 C 54.066406 627.578125 54.738281 627.199219 55.429688 626.855469 C 56.121094 626.511719 56.828125 626.199219 57.550781 625.925781 C 58.273438 625.652344 59.007812 625.417969 59.753906 625.21875 C 60.503906 625.019531 61.257812 624.855469 62.019531 624.730469 C 62.78125 624.605469 63.546875 624.519531 64.320312 624.472656 C 65.089844 624.425781 65.863281 624.417969 66.632812 624.449219 C 67.40625 624.476562 68.175781 624.546875 68.941406 624.652344 C 69.703125 624.757812 70.460938 624.902344 71.214844 625.085938 C 71.964844 625.269531 72.703125 625.488281 73.433594 625.746094 C 74.160156 626.003906 74.875 626.296875 75.574219 626.625 C 76.273438 626.953125 76.953125 627.316406 77.617188 627.710938 C 78.28125 628.109375 78.921875 628.539062 79.542969 629 C 84.105469 631.96875 88.734375 634.839844 93.425781 637.605469 C 98.117188 640.371094 102.871094 643.035156 107.679688 645.589844 C 112.488281 648.148438 117.351562 650.597656 122.269531 652.9375 C 127.1875 655.28125 132.152344 657.511719 137.171875 659.636719 C 142.1875 661.757812 147.246094 663.769531 152.351562 665.667969 C 157.457031 667.566406 162.601562 669.351562 167.785156 671.023438 C 172.96875 672.695312 178.1875 674.25 183.441406 675.691406 C 188.695312 677.132812 193.976562 678.457031 199.285156 679.664062 C 204.597656 680.871094 209.933594 681.960938 215.292969 682.929688 C 220.652344 683.902344 226.03125 684.753906 231.429688 685.488281 C 236.824219 686.222656 242.234375 686.839844 247.660156 687.332031 C 253.085938 687.828125 258.515625 688.203125 263.957031 688.457031 C 269.398438 688.710938 274.84375 688.847656 280.289062 688.859375 C 285.734375 688.875 291.179688 688.769531 296.621094 688.542969 C 302.0625 688.316406 307.5 687.96875 312.925781 687.503906 C 318.351562 687.035156 323.765625 686.449219 329.167969 685.742188 C 334.566406 685.039062 339.949219 684.214844 345.316406 683.269531 C 350.679688 682.324219 356.019531 681.265625 361.335938 680.085938 C 366.65625 678.90625 371.945312 677.609375 377.203125 676.195312 C 382.464844 674.78125 387.691406 673.253906 392.882812 671.609375 C 398.074219 669.964844 403.230469 668.203125 408.34375 666.332031 C 413.460938 664.460938 418.53125 662.476562 423.558594 660.378906 C 428.585938 658.285156 433.5625 656.078125 438.492188 653.761719 C 443.421875 651.445312 448.300781 649.019531 453.121094 646.488281 C 457.945312 643.957031 462.707031 641.320312 467.414062 638.578125 C 472.121094 635.835938 476.765625 632.992188 481.34375 630.042969 C 485.925781 627.097656 490.4375 624.050781 494.882812 620.902344 C 499.328125 617.753906 503.703125 614.511719 508.003906 611.171875 C 512.308594 607.832031 516.535156 604.398438 520.683594 600.871094 C 524.835938 597.34375 528.90625 593.726562 532.898438 590.019531 C 536.886719 586.3125 540.796875 582.519531 544.617188 578.640625 C 548.441406 574.761719 552.175781 570.796875 555.824219 566.753906 C 559.472656 562.710938 563.03125 558.585938 566.496094 554.382812 C 569.960938 550.183594 573.332031 545.90625 576.609375 541.554688 C 579.886719 537.203125 583.066406 532.785156 586.148438 528.292969 C 589.230469 523.800781 592.210938 519.242188 595.089844 514.621094 C 597.96875 509.996094 600.746094 505.3125 603.421875 500.566406 C 606.09375 495.820312 608.660156 491.019531 611.121094 486.160156 C 613.582031 481.300781 615.933594 476.390625 618.179688 471.425781 C 620.421875 466.464844 622.554688 461.453125 624.578125 456.398438 C 626.601562 451.339844 628.511719 446.238281 630.308594 441.097656 C 632.105469 435.957031 633.789062 430.777344 635.355469 425.5625 C 636.921875 420.34375 638.375 415.097656 639.710938 409.816406 C 641.046875 404.535156 642.269531 399.230469 643.371094 393.894531 C 644.472656 388.558594 645.453125 383.203125 646.320312 377.828125 C 647.183594 372.449219 647.929688 367.054688 648.558594 361.644531 C 649.183594 356.234375 649.691406 350.8125 650.078125 345.378906 C 650.464844 339.945312 650.734375 334.507812 650.878906 329.0625 C 651.027344 323.617188 651.050781 318.171875 650.957031 312.726562 C 650.863281 307.28125 650.652344 301.839844 650.316406 296.402344 C 649.980469 290.964844 649.527344 285.539062 648.953125 280.125 C 648.378906 274.707031 647.6875 269.304688 646.875 263.917969 C 646.058594 258.535156 645.128906 253.167969 644.078125 247.824219 C 643.03125 242.480469 641.863281 237.160156 640.578125 231.867188 C 639.292969 226.574219 637.890625 221.3125 636.375 216.082031 C 634.855469 210.851562 633.222656 205.65625 631.476562 200.496094 C 629.730469 195.335938 627.871094 190.21875 625.894531 185.140625 C 623.921875 180.066406 621.839844 175.035156 619.644531 170.050781 C 617.449219 165.066406 615.144531 160.132812 612.730469 155.25 C 610.316406 150.367188 607.796875 145.539062 605.167969 140.765625 C 602.542969 135.996094 599.808594 131.285156 596.976562 126.632812 C 594.140625 121.984375 591.203125 117.398438 588.167969 112.875 C 585.128906 108.355469 581.992188 103.902344 578.757812 99.519531 C 575.523438 95.140625 572.195312 90.828125 568.769531 86.59375 C 568.246094 86.027344 567.753906 85.429688 567.292969 84.8125 C 566.828125 84.195312 566.398438 83.554688 566 82.890625 C 565.601562 82.230469 565.234375 81.550781 564.90625 80.851562 C 564.574219 80.152344 564.28125 79.441406 564.019531 78.710938 C 563.761719 77.984375 563.539062 77.246094 563.355469 76.496094 C 563.171875 75.746094 563.023438 74.988281 562.914062 74.222656 C 562.804688 73.457031 562.734375 72.691406 562.703125 71.917969 C 562.671875 71.148438 562.675781 70.375 562.722656 69.605469 C 562.765625 68.832031 562.851562 68.066406 562.972656 67.300781 C 563.09375 66.539062 563.253906 65.785156 563.453125 65.039062 C 563.652344 64.292969 563.886719 63.554688 564.15625 62.832031 C 564.425781 62.109375 564.734375 61.402344 565.078125 60.707031 C 565.417969 60.015625 565.796875 59.34375 566.207031 58.6875 C 566.613281 58.03125 567.054688 57.398438 567.53125 56.789062 C 568.003906 56.179688 568.503906 55.59375 569.039062 55.03125 C 569.570312 54.472656 570.128906 53.941406 570.714844 53.4375 Z M 604.796875 22.15625 " fill-opacity="1" fill-rule="nonzero"/><g fill="#ffffff" fill-opacity="1"><g transform="translate(42.709696, 681.762539)"><g><path d="M 33.09375 13.703125 L 30.53125 18.03125 L 5.234375 3.09375 L 25.8125 -31.765625 L 50.40625 -17.25 L 47.859375 -12.921875 L 28.25 -24.5 L 21.921875 -13.78125 L 39.390625 -3.46875 L 36.890625 0.75 L 19.421875 -9.5625 L 12.78125 1.703125 Z M 33.09375 13.703125 "/></g></g></g><g fill="#ffffff" fill-opacity="1"><g transform="translate(94.030189, 710.748786)"><g><path d="M 20.9375 -35.1875 L 36.734375 -28.734375 C 40.703125 -27.117188 43.894531 -24.898438 46.3125 -22.078125 C 48.738281 -19.253906 50.21875 -16.070312 50.75 -12.53125 C 51.289062 -9 50.8125 -5.398438 49.3125 -1.734375 C 47.8125 1.953125 45.628906 4.863281 42.765625 7 C 39.910156 9.144531 36.628906 10.375 32.921875 10.6875 C 29.222656 11.007812 25.390625 10.363281 21.421875 8.75 L 5.625 2.296875 Z M 23.015625 3.96875 C 26.035156 5.195312 28.9375 5.691406 31.71875 5.453125 C 34.507812 5.222656 36.960938 4.300781 39.078125 2.6875 C 41.203125 1.070312 42.832031 -1.128906 43.96875 -3.921875 C 45.101562 -6.691406 45.476562 -9.394531 45.09375 -12.03125 C 44.71875 -14.675781 43.613281 -17.054688 41.78125 -19.171875 C 39.957031 -21.296875 37.535156 -22.972656 34.515625 -24.203125 L 24.390625 -28.34375 L 12.890625 -0.171875 Z M 23.015625 3.96875 "/></g></g></g><g fill="#ffffff" fill-opacity="1"><g transform="translate(157.67903, 734.964268)"><g><path d="M 22.109375 5.75 C 16.859375 4.5 13.125 2.023438 10.90625 -1.671875 C 8.695312 -5.378906 8.265625 -10.046875 9.609375 -15.671875 L 14.9375 -38.0625 L 20.578125 -36.71875 L 15.296875 -14.546875 C 13.285156 -6.109375 15.972656 -1.007812 23.359375 0.75 C 26.953125 1.601562 29.957031 1.21875 32.375 -0.40625 C 34.789062 -2.039062 36.503906 -4.992188 37.515625 -9.265625 L 42.796875 -31.4375 L 48.25 -30.140625 L 42.921875 -7.75 C 41.566406 -2.082031 39.070312 1.894531 35.4375 4.1875 C 31.8125 6.476562 27.367188 7 22.109375 5.75 Z M 22.109375 5.75 "/></g></g></g><g fill="#ffffff" fill-opacity="1"><g transform="translate(222.173997, 748.647185)"><g><path d="M 24.03125 2.5625 C 20.007812 2.207031 16.453125 0.992188 13.359375 -1.078125 C 10.265625 -3.148438 7.929688 -5.832031 6.359375 -9.125 C 4.796875 -12.414062 4.179688 -16.019531 4.515625 -19.9375 C 4.859375 -23.851562 6.085938 -27.296875 8.203125 -30.265625 C 10.316406 -33.234375 13.082031 -35.46875 16.5 -36.96875 C 19.925781 -38.46875 23.65625 -39.046875 27.6875 -38.703125 C 30.84375 -38.421875 33.679688 -37.640625 36.203125 -36.359375 C 38.722656 -35.078125 40.8125 -33.316406 42.46875 -31.078125 L 38.40625 -27.78125 C 35.65625 -31.226562 32.015625 -33.148438 27.484375 -33.546875 C 24.484375 -33.804688 21.710938 -33.367188 19.171875 -32.234375 C 16.640625 -31.097656 14.585938 -29.40625 13.015625 -27.15625 C 11.453125 -24.914062 10.539062 -22.335938 10.28125 -19.421875 C 10.03125 -16.492188 10.484375 -13.789062 11.640625 -11.3125 C 12.796875 -8.84375 14.523438 -6.828125 16.828125 -5.265625 C 19.128906 -3.710938 21.78125 -2.804688 24.78125 -2.546875 C 29.269531 -2.160156 33.191406 -3.445312 36.546875 -6.40625 L 39.984375 -2.453125 C 37.953125 -0.535156 35.570312 0.84375 32.84375 1.6875 C 30.125 2.539062 27.1875 2.832031 24.03125 2.5625 Z M 24.03125 2.5625 "/></g></g></g><g fill="#ffffff" fill-opacity="1"><g transform="translate(283.975498, 752.602573)"><g><path d="M 31.265625 -11.890625 L 9.78125 -10.6875 L 5.890625 -0.328125 L -0.0625 0 L 15.984375 -41.4375 L 21.703125 -41.765625 L 42.34375 -2.375 L 36.265625 -2.03125 Z M 28.96875 -16.40625 L 19.140625 -35.734375 L 11.53125 -15.421875 Z M 28.96875 -16.40625 "/></g></g></g><g fill="#ffffff" fill-opacity="1"><g transform="translate(346.220913, 747.654783)"><g><path d="M 23.796875 -4.328125 C 19.828125 -3.523438 16.066406 -3.679688 12.515625 -4.796875 C 8.972656 -5.910156 5.984375 -7.820312 3.546875 -10.53125 C 1.109375 -13.25 -0.5 -16.535156 -1.28125 -20.390625 C -2.050781 -24.242188 -1.835938 -27.894531 -0.640625 -31.34375 C 0.546875 -34.789062 2.566406 -37.710938 5.421875 -40.109375 C 8.273438 -42.515625 11.6875 -44.117188 15.65625 -44.921875 C 18.757812 -45.546875 21.703125 -45.597656 24.484375 -45.078125 C 27.273438 -44.554688 29.78125 -43.457031 32 -41.78125 L 29.03125 -37.46875 C 25.414062 -40.019531 21.375 -40.84375 16.90625 -39.9375 C 13.957031 -39.34375 11.425781 -38.140625 9.3125 -36.328125 C 7.207031 -34.523438 5.71875 -32.328125 4.84375 -29.734375 C 3.96875 -27.140625 3.816406 -24.40625 4.390625 -21.53125 C 4.972656 -18.65625 6.171875 -16.191406 7.984375 -14.140625 C 9.796875 -12.085938 12.023438 -10.640625 14.671875 -9.796875 C 17.316406 -8.953125 20.113281 -8.828125 23.0625 -9.421875 C 27.488281 -10.316406 30.890625 -12.65625 33.265625 -16.4375 L 37.671875 -13.625 C 36.273438 -11.207031 34.390625 -9.207031 32.015625 -7.625 C 29.640625 -6.050781 26.898438 -4.953125 23.796875 -4.328125 Z M 23.796875 -4.328125 "/></g></g></g><g fill="#ffffff" fill-opacity="1"><g transform="translate(405.951154, 733.799213)"><g><path d="M -6.65625 -40.40625 L -1.15625 -42.171875 L 11.28125 -3.640625 L 5.78125 -1.875 Z M -6.65625 -40.40625 "/></g></g></g><g fill="#ffffff" fill-opacity="1"><g transform="translate(441.722749, 721.972896)"><g><path d="M 22.3125 -9.8125 C 18.59375 -8.09375 14.867188 -7.359375 11.140625 -7.609375 C 7.410156 -7.867188 4.03125 -9.039062 1 -11.125 C -2.019531 -13.207031 -4.347656 -16.015625 -5.984375 -19.546875 C -7.617188 -23.078125 -8.253906 -26.671875 -7.890625 -30.328125 C -7.523438 -33.984375 -6.234375 -37.3125 -4.015625 -40.3125 C -1.796875 -43.3125 1.171875 -45.671875 4.890625 -47.390625 C 8.554688 -49.097656 12.253906 -49.828125 15.984375 -49.578125 C 19.710938 -49.328125 23.078125 -48.164062 26.078125 -46.09375 C 29.078125 -44.019531 31.398438 -41.203125 33.046875 -37.640625 C 34.703125 -34.066406 35.351562 -30.460938 35 -26.828125 C 34.644531 -23.203125 33.359375 -19.882812 31.140625 -16.875 C 28.921875 -13.875 25.976562 -11.519531 22.3125 -9.8125 Z M 20.140625 -14.484375 C 22.828125 -15.734375 24.960938 -17.46875 26.546875 -19.6875 C 28.128906 -21.90625 29.046875 -24.378906 29.296875 -27.109375 C 29.546875 -29.835938 29.050781 -32.535156 27.8125 -35.203125 C 26.582031 -37.859375 24.847656 -39.972656 22.609375 -41.546875 C 20.367188 -43.117188 17.882812 -44.019531 15.15625 -44.25 C 12.4375 -44.488281 9.734375 -43.984375 7.046875 -42.734375 C 4.335938 -41.484375 2.175781 -39.738281 0.5625 -37.5 C -1.039062 -35.257812 -1.96875 -32.773438 -2.21875 -30.046875 C -2.46875 -27.316406 -1.976562 -24.625 -0.75 -21.96875 C 0.488281 -19.300781 2.226562 -17.179688 4.46875 -15.609375 C 6.707031 -14.035156 9.203125 -13.140625 11.953125 -12.921875 C 14.703125 -12.710938 17.429688 -13.234375 20.140625 -14.484375 Z M 3.71875 -58.28125 L 10.125 -61.25 L 4.46875 -50.328125 L -0.25 -48.140625 Z M 3.71875 -58.28125 "/></g></g></g><g fill="#ffffff" fill-opacity="1"><g transform="translate(503.57571, 691.479481)"><g><path d="M 11.4375 -56.390625 L 33.96875 -22.765625 L 30.03125 -20.125 L -6.9375 -31.6875 L 9.859375 -6.609375 L 5.046875 -3.390625 L -17.484375 -37.015625 L -13.546875 -39.640625 L 23.4375 -28.09375 L 6.640625 -53.171875 Z M 11.4375 -56.390625 "/></g></g></g><g fill="#ffffff" fill-opacity="1"><g transform="translate(557.660761, 652.761175)"><g/></g></g><g fill="#ffffff" fill-opacity="1"><g transform="translate(583.401666, 629.806711)"><g><path d="M -24.453125 -32.828125 L -20.375 -36.9375 L 8.359375 -8.421875 L 4.28125 -4.3125 Z M -24.453125 -32.828125 "/></g></g></g><g fill="#ffffff" fill-opacity="1"><g transform="translate(609.690741, 602.881629)"><g><path d="M -6.796875 -57.140625 L 25.140625 -32.25 L 22.21875 -28.515625 L -16.515625 -27.921875 L 7.296875 -9.359375 L 3.734375 -4.796875 L -28.203125 -29.6875 L -25.296875 -33.421875 L 13.453125 -34.015625 L -10.359375 -52.578125 Z M -6.796875 -57.140625 "/></g></g></g><g fill="#ffffff" fill-opacity="1"><g transform="translate(650.12413, 548.790805)"><g><path d="M 20.8125 -38.328125 L -5.125 -52.359375 L 9.46875 -27.765625 L 8.203125 -25.421875 L -20.21875 -24.21875 L 5.546875 -10.21875 L 2.90625 -5.34375 L -32.671875 -24.671875 L -30.421875 -28.828125 L 2.640625 -30.078125 L -14.40625 -58.3125 L -12.140625 -62.484375 L 23.46875 -43.203125 Z M 20.8125 -38.328125 "/></g></g></g><g fill="#ffffff" fill-opacity="1"><g transform="translate(684.534763, 481.255919)"><g><path d="M 8.359375 -22.875 C 7.023438 -19.007812 4.976562 -15.816406 2.21875 -13.296875 C -0.539062 -10.785156 -3.71875 -9.160156 -7.3125 -8.421875 C -10.914062 -7.679688 -14.5625 -7.941406 -18.25 -9.203125 C -21.925781 -10.472656 -24.953125 -12.503906 -27.328125 -15.296875 C -29.710938 -18.097656 -31.222656 -21.335938 -31.859375 -25.015625 C -32.492188 -28.703125 -32.144531 -32.476562 -30.8125 -36.34375 C -29.5 -40.164062 -27.457031 -43.335938 -24.6875 -45.859375 C -21.925781 -48.378906 -18.757812 -50.003906 -15.1875 -50.734375 C -11.613281 -51.460938 -7.972656 -51.1875 -4.265625 -49.90625 C -0.535156 -48.625 2.507812 -46.597656 4.875 -43.828125 C 7.25 -41.054688 8.75 -37.828125 9.375 -34.140625 C 10.007812 -30.453125 9.671875 -26.695312 8.359375 -22.875 Z M 3.484375 -24.5625 C 4.441406 -27.375 4.664062 -30.117188 4.15625 -32.796875 C 3.65625 -35.472656 2.507812 -37.84375 0.71875 -39.90625 C -1.070312 -41.976562 -3.359375 -43.488281 -6.140625 -44.4375 C -8.898438 -45.394531 -11.625 -45.609375 -14.3125 -45.078125 C -17.007812 -44.554688 -19.378906 -43.394531 -21.421875 -41.59375 C -23.472656 -39.789062 -24.976562 -37.484375 -25.9375 -34.671875 C -26.90625 -31.859375 -27.140625 -29.09375 -26.640625 -26.375 C -26.148438 -23.664062 -25.003906 -21.273438 -23.203125 -19.203125 C -21.410156 -17.140625 -19.132812 -15.628906 -16.375 -14.671875 C -13.59375 -13.722656 -10.859375 -13.507812 -8.171875 -14.03125 C -5.484375 -14.5625 -3.109375 -15.742188 -1.046875 -17.578125 C 1.003906 -19.421875 2.515625 -21.75 3.484375 -24.5625 Z M 3.484375 -24.5625 "/></g></g></g><g fill="#ffffff" fill-opacity="1"><g transform="translate(705.283237, 415.580292)"><g><path d="M -14.765625 -36.515625 C -13.691406 -38.710938 -12.191406 -40.320312 -10.265625 -41.34375 C -8.335938 -42.363281 -6.085938 -42.640625 -3.515625 -42.171875 C -0.0546875 -41.546875 2.367188 -39.765625 3.765625 -36.828125 C 5.160156 -33.898438 5.40625 -29.953125 4.5 -24.984375 L 1.078125 -5.984375 L -38.765625 -13.171875 L -35.546875 -31.03125 C -34.722656 -35.582031 -33.175781 -38.9375 -30.90625 -41.09375 C -28.632812 -43.257812 -25.882812 -44.050781 -22.65625 -43.46875 C -20.582031 -43.09375 -18.867188 -42.285156 -17.515625 -41.046875 C -16.171875 -39.804688 -15.253906 -38.296875 -14.765625 -36.515625 Z M -33.140625 -18.03125 L -20.375 -15.71875 L -18.28125 -27.390625 C -17.75 -30.304688 -17.878906 -32.648438 -18.671875 -34.421875 C -19.460938 -36.191406 -20.90625 -37.265625 -23 -37.640625 C -25.09375 -38.015625 -26.820312 -37.515625 -28.1875 -36.140625 C -29.5625 -34.765625 -30.515625 -32.617188 -31.046875 -29.703125 Z M -0.140625 -25.578125 C 0.441406 -28.804688 0.347656 -31.332031 -0.421875 -33.15625 C -1.191406 -34.976562 -2.710938 -36.09375 -4.984375 -36.5 C -9.429688 -37.300781 -12.238281 -34.457031 -13.40625 -27.96875 L -15.765625 -14.890625 L -2.5 -12.5 Z M -0.140625 -25.578125 "/></g></g></g><g fill="#ffffff" fill-opacity="1"><g transform="translate(714.669776, 352.956472)"><g><path d="M -40.03125 -8.59375 L -39.671875 -14.375 L 0.734375 -11.84375 L 0.375 -6.0625 Z M -40.03125 -8.59375 "/></g></g></g><g fill="#ffffff" fill-opacity="1"><g transform="translate(716.42023, 315.684829)"><g><path d="M -40.703125 -4.375 L -40.953125 -10.140625 L -5.53125 -11.640625 L -6.453125 -33.546875 L -1.421875 -33.75 L -0.25 -6.078125 Z M -40.703125 -4.375 "/></g></g></g><g fill="#ffffff" fill-opacity="1"><g transform="translate(712.734737, 262.115306)"><g><path d="M -40.9375 -0.109375 L -41.78125 -5.828125 L -1.734375 -11.734375 L -0.890625 -6.015625 Z M -40.9375 -0.109375 "/></g></g></g><g fill="#ffffff" fill-opacity="1"><g transform="translate(706.838591, 225.066861)"><g><path d="M -18 -28.1875 L -12.453125 -7.40625 L -1.515625 -5.703125 L 0.015625 0.0625 L -43.828125 -7.234375 L -45.3125 -12.765625 L -10.921875 -40.96875 L -9.359375 -35.09375 Z M -21.9375 -25.046875 L -38.859375 -11.484375 L -17.4375 -8.15625 Z M -21.9375 -25.046875 "/></g></g></g><g fill="#ffffff" fill-opacity="1"><g transform="translate(689.357844, 165.115528)"><g><path d="M -13.015625 -30.484375 L -21.015625 -17.546875 C -20.535156 -16.597656 -20.171875 -15.835938 -19.921875 -15.265625 L -16 -6.0625 L -4.65625 -10.90625 L -2.390625 -5.59375 L -39.625 10.3125 L -45.8125 -4.203125 C -47.875 -9.023438 -48.34375 -13.3125 -47.21875 -17.0625 C -46.09375 -20.8125 -43.507812 -23.550781 -39.46875 -25.28125 C -36.59375 -26.507812 -33.84375 -26.84375 -31.21875 -26.28125 C -28.59375 -25.726562 -26.257812 -24.332031 -24.21875 -22.09375 L -15.5 -36.28125 Z M -24.359375 -13.171875 C -25.796875 -16.546875 -27.625 -18.804688 -29.84375 -19.953125 C -32.0625 -21.097656 -34.515625 -21.097656 -37.203125 -19.953125 C -39.898438 -18.804688 -41.585938 -17.039062 -42.265625 -14.65625 C -42.941406 -12.269531 -42.5625 -9.390625 -41.125 -6.015625 L -37.265625 3.015625 L -20.5 -4.140625 Z M -24.359375 -13.171875 "/></g></g></g><g fill="#ffffff" fill-opacity="1"><g transform="translate(663.546933, 109.239606)"><g><path d="M -38.1875 14.75 L -41.046875 9.71875 L -5.859375 -10.3125 L -3 -5.28125 Z M -38.1875 14.75 "/></g></g></g><g fill="#ffffff" fill-opacity="1"><g transform="translate(644.619266, 76.845713)"><g><path d="M -26.984375 -19.75 L -14.28125 -2.375 L -3.484375 -4.765625 L 0.03125 0.046875 L -43.46875 9.15625 L -46.84375 4.53125 L -25.03125 -34.234375 L -21.453125 -29.328125 Z M -29.53125 -15.390625 L -40.390625 3.390625 L -19.21875 -1.28125 Z M -29.53125 -15.390625 "/></g></g></g></g></g><g fill="#ffffff" fill-opacity="1"><g transform="translate(462.235364, 865.858033)"><g><path d="M 29.921875 -51.171875 C 29.234375 -51.929688 28.65625 -49.597656 28.1875 -44.171875 C 27.726562 -38.742188 27.5 -31.675781 27.5 -22.96875 C 27.5 -14.269531 27.625 -5.445312 27.875 3.5 C 28.132812 12.457031 28.644531 19.925781 29.40625 25.90625 C 30.164062 31.882812 31.097656 34.875 32.203125 34.875 C 32.972656 33.519531 33.398438 28.875 33.484375 20.9375 C 33.566406 13 33.457031 3.898438 33.15625 -6.359375 C 32.863281 -16.628906 32.441406 -26.050781 31.890625 -34.625 C 31.335938 -43.195312 30.679688 -48.710938 29.921875 -51.171875 Z M 54.609375 -35.515625 C 54.265625 -27.796875 53.882812 -20.03125 53.46875 -12.21875 C 52.957031 1.019531 52.320312 14.257812 51.5625 27.5 C 50.625 43.195312 49.390625 58.894531 47.859375 74.59375 C 47.347656 78.925781 46.414062 83.128906 45.0625 87.203125 C 43.195312 94.078125 38.992188 97.515625 32.453125 97.515625 C 25.585938 97.765625 21.21875 94.492188 19.34375 87.703125 C 17.820312 80.828125 16.675781 73.828125 15.90625 66.703125 C 12.007812 24.179688 9.804688 -18.460938 9.296875 -61.234375 C 9.035156 -75.398438 9.035156 -89.484375 9.296875 -103.484375 C 9.460938 -110.191406 12.984375 -113.289062 19.859375 -112.78125 C 25.117188 -112.613281 27.832031 -109.898438 28 -104.640625 C 28.175781 -98.867188 28.265625 -92.96875 28.265625 -86.9375 C 28.265625 -82.695312 28.347656 -78.328125 28.515625 -73.828125 C 28.515625 -72.304688 28.8125 -70.738281 29.40625 -69.125 C 29.570312 -68.53125 29.65625 -68.0625 29.65625 -67.71875 C 29.65625 -67.46875 29.757812 -67.34375 29.96875 -67.34375 C 30.1875 -67.34375 30.378906 -67.34375 30.546875 -67.34375 C 30.722656 -67.34375 30.894531 -67.34375 31.0625 -67.34375 C 31.226562 -67.34375 31.457031 -67.40625 31.75 -67.53125 C 32.050781 -67.65625 32.285156 -67.800781 32.453125 -67.96875 C 32.453125 -68.476562 32.539062 -68.945312 32.71875 -69.375 C 33.3125 -71.070312 33.691406 -72.644531 33.859375 -74.09375 C 34.285156 -84.945312 34.5 -95.765625 34.5 -106.546875 C 34.5 -114.609375 34.582031 -122.671875 34.75 -130.734375 C 34.914062 -154.066406 34.914062 -177.488281 34.75 -201 C 34.582031 -215.9375 34.117188 -230.957031 33.359375 -246.0625 C 32.929688 -252.59375 32.628906 -259.210938 32.453125 -265.921875 C 32.453125 -267.273438 32.367188 -268.59375 32.203125 -269.875 C 32.035156 -272.332031 31.953125 -274.75 31.953125 -277.125 C 32.285156 -285.53125 36.398438 -289.09375 44.296875 -287.8125 C 48.535156 -287.050781 51.039062 -284.503906 51.8125 -280.171875 C 51.976562 -278.140625 52.273438 -276.101562 52.703125 -274.0625 C 53.378906 -268.632812 53.929688 -263.117188 54.359375 -257.515625 C 55.117188 -234.347656 55.5 -211.097656 55.5 -187.765625 C 55.5 -165.015625 55.375 -142.269531 55.125 -119.53125 C 55.125 -109.257812 55.035156 -98.988281 54.859375 -88.71875 C 54.859375 -87.957031 54.859375 -87.195312 54.859375 -86.4375 C 54.859375 -82.875 54.859375 -79.304688 54.859375 -75.734375 C 55.035156 -72.765625 55.695312 -70.769531 56.84375 -69.75 C 57.988281 -68.738281 60.046875 -68.398438 63.015625 -68.734375 C 102.984375 -71.796875 140.957031 -81.984375 176.9375 -99.296875 C 197.132812 -109.054688 215.335938 -121.65625 231.546875 -137.09375 C 243.679688 -148.894531 252.695312 -160.816406 258.59375 -172.859375 C 264.5 -184.910156 267.957031 -196.472656 268.96875 -207.546875 C 269.988281 -218.628906 269.394531 -228.960938 267.1875 -238.546875 C 263.289062 -254.929688 254.570312 -269.101562 241.03125 -281.0625 C 227.5 -293.03125 210.632812 -302.320312 190.4375 -308.9375 C 170.238281 -315.5625 148.234375 -319.019531 124.421875 -319.3125 C 100.617188 -319.613281 76.582031 -316.367188 52.3125 -309.578125 C 34.070312 -304.578125 16.550781 -297.578125 -0.25 -288.578125 C -9.757812 -283.578125 -18.546875 -277.34375 -26.609375 -269.875 C -30.335938 -266.476562 -33.515625 -262.828125 -36.140625 -258.921875 C -38.773438 -255.015625 -39.96875 -250.347656 -39.71875 -244.921875 C -39.71875 -243.054688 -40.375 -241.65625 -41.6875 -240.71875 C -43 -239.78125 -44.59375 -239.226562 -46.46875 -239.0625 C -48.5 -238.894531 -50.660156 -238.976562 -52.953125 -239.3125 C -57.023438 -240.25 -59.359375 -242.878906 -59.953125 -247.203125 C -60.128906 -251.453125 -59.195312 -255.65625 -57.15625 -259.8125 C -53.925781 -266.175781 -49.722656 -271.773438 -44.546875 -276.609375 C -38.523438 -282.554688 -32.015625 -287.773438 -25.015625 -292.265625 C -18.015625 -296.765625 -10.695312 -300.796875 -3.0625 -304.359375 C 28.082031 -318.878906 60.84375 -327.832031 95.21875 -331.21875 C 109.8125 -332.664062 125.59375 -332.878906 142.5625 -331.859375 C 159.539062 -330.835938 176.472656 -328.226562 193.359375 -324.03125 C 210.242188 -319.832031 225.921875 -313.722656 240.390625 -305.703125 C 254.867188 -297.679688 266.878906 -287.328125 276.421875 -274.640625 C 285.972656 -261.953125 291.851562 -246.738281 294.0625 -229 C 295.15625 -217.632812 294.40625 -206.625 291.8125 -195.96875 C 289.226562 -185.320312 285.222656 -174.945312 279.796875 -164.84375 C 269.523438 -146.769531 256.160156 -131.285156 239.703125 -118.390625 C 224.253906 -106.078125 207.785156 -95.765625 190.296875 -87.453125 C 172.816406 -79.140625 154.578125 -72.347656 135.578125 -67.078125 C 117.835938 -62.242188 99.800781 -58.894531 81.46875 -57.03125 C 80.363281 -57.03125 79.257812 -56.945312 78.15625 -56.78125 C 77.988281 -56.601562 77.691406 -56.515625 77.265625 -56.515625 C 76.503906 -56.515625 75.890625 -56.363281 75.421875 -56.0625 C 74.953125 -55.769531 74.632812 -55.242188 74.46875 -54.484375 C 74.125 -52.785156 74.890625 -51.679688 76.765625 -51.171875 C 78.460938 -50.410156 80.113281 -49.734375 81.71875 -49.140625 C 83.082031 -48.628906 84.484375 -48.078125 85.921875 -47.484375 C 115.117188 -36.453125 143.570312 -23.847656 171.28125 -9.671875 C 198.988281 4.492188 226.082031 19.679688 252.5625 35.890625 C 255.945312 37.765625 259.039062 40.015625 261.84375 42.640625 C 262.4375 43.066406 262.816406 43.679688 262.984375 44.484375 C 263.160156 45.296875 263.25 46.082031 263.25 46.84375 C 263.082031 48.195312 262.613281 49.191406 261.84375 49.828125 C 261.082031 50.472656 260.148438 50.960938 259.046875 51.296875 C 254.546875 52.484375 250.429688 51.765625 246.703125 49.140625 C 235.921875 43.367188 225.015625 37.679688 213.984375 32.078125 C 202.015625 25.546875 189.960938 19.097656 177.828125 12.734375 C 160.097656 3.222656 142.085938 -5.601562 123.796875 -13.75 C 105.503906 -21.894531 87.023438 -29.703125 68.359375 -37.171875 C 67.765625 -37.335938 67.210938 -37.59375 66.703125 -37.9375 C 65.003906 -38.695312 63.265625 -39.351562 61.484375 -39.90625 C 59.703125 -40.457031 58.148438 -40.457031 56.828125 -39.90625 C 55.515625 -39.351562 54.773438 -37.890625 54.609375 -35.515625 Z M 54.609375 -35.515625 "/></g></g><g transform="translate(720.396864, 865.858033)"><g><path d="M 140.921875 -66.578125 C 144.054688 -67.085938 146.003906 -66.976562 146.765625 -66.25 C 147.535156 -65.53125 147.707031 -64.320312 147.28125 -62.625 C 147.113281 -59.65625 145.90625 -57.046875 143.65625 -54.796875 C 141.40625 -52.546875 138.5 -50.570312 134.9375 -48.875 C 126.53125 -44.976562 118.316406 -42.707031 110.296875 -42.0625 C 102.273438 -41.425781 93.894531 -42.128906 85.15625 -44.171875 C 81.257812 -45.273438 77.953125 -45.316406 75.234375 -44.296875 C 72.515625 -43.273438 69.753906 -40.132812 66.953125 -34.875 C 59.992188 -21.46875 48.960938 -13.914062 33.859375 -12.21875 C 22.484375 -11.113281 14.082031 -13.253906 8.65625 -18.640625 C 3.226562 -24.035156 -0.207031 -30.929688 -1.65625 -39.328125 C -3.351562 -47.984375 -2.988281 -56.085938 -0.5625 -63.640625 C 1.851562 -71.203125 5.859375 -78.25 11.453125 -84.78125 C 15.785156 -89.445312 21.132812 -91.398438 27.5 -90.640625 C 30.46875 -90.640625 32.800781 -89.535156 34.5 -87.328125 C 35.425781 -85.796875 35.59375 -84.476562 35 -83.375 C 34.40625 -82.269531 33.554688 -81.253906 32.453125 -80.328125 C 23.296875 -70.734375 19.015625 -59.398438 19.609375 -46.328125 C 19.773438 -40.222656 21.554688 -34.625 24.953125 -29.53125 C 27.921875 -25.289062 31.65625 -24.65625 36.15625 -27.625 C 40.394531 -31.019531 44.144531 -35.6875 47.40625 -41.625 C 50.675781 -47.5625 52.546875 -53.671875 53.015625 -59.953125 C 53.484375 -66.234375 51.765625 -71.789062 47.859375 -76.625 C 45.828125 -78.5 43.878906 -79.816406 42.015625 -80.578125 C 41.078125 -81.085938 40.222656 -81.578125 39.453125 -82.046875 C 38.691406 -82.515625 38.3125 -83.128906 38.3125 -83.890625 C 38.144531 -88.210938 39.738281 -91.347656 43.09375 -93.296875 C 46.445312 -95.253906 50.5625 -96.234375 55.4375 -96.234375 C 60.3125 -96.234375 64.847656 -95.253906 69.046875 -93.296875 C 73.253906 -91.347656 75.992188 -88.507812 77.265625 -84.78125 C 78.628906 -79.945312 79.015625 -75.066406 78.421875 -70.140625 C 78.242188 -66.066406 79.9375 -62.925781 83.5 -60.71875 C 91.476562 -55.113281 100.222656 -53.117188 109.734375 -54.734375 C 113.722656 -55.503906 117.347656 -56.546875 120.609375 -57.859375 C 123.878906 -59.171875 127 -60.59375 129.96875 -62.125 C 133.875 -64.15625 137.523438 -65.640625 140.921875 -66.578125 Z M 140.921875 -66.578125 "/></g></g><g transform="translate(854.569556, 865.858033)"><g><path d="M 193.484375 -64.03125 C 196.285156 -63.4375 197.601562 -61.800781 197.4375 -59.125 C 197.269531 -56.457031 196.335938 -53.804688 194.640625 -51.171875 C 190.140625 -44.460938 184.390625 -38.539062 177.390625 -33.40625 C 170.390625 -28.28125 163.15625 -24.675781 155.6875 -22.59375 C 148.21875 -20.507812 141.253906 -20.867188 134.796875 -23.671875 C 128.347656 -26.472656 123.382812 -32.457031 119.90625 -41.625 C 116.6875 -49.851562 114.820312 -58.335938 114.3125 -67.078125 C 114.0625 -70.054688 113.890625 -77.484375 113.796875 -89.359375 C 113.710938 -101.242188 113.585938 -113.71875 113.421875 -126.78125 C 113.253906 -139.851562 113.171875 -149.65625 113.171875 -156.1875 C 113.171875 -159.15625 113.171875 -160.726562 113.171875 -160.90625 C 108.328125 -143.332031 102.640625 -125.125 96.109375 -106.28125 C 89.578125 -87.445312 84.910156 -74.847656 82.109375 -68.484375 C 76.671875 -56.773438 70.601562 -45.316406 63.90625 -34.109375 C 59.238281 -26.816406 53.632812 -20.285156 47.09375 -14.515625 C 41.832031 -9.847656 35.550781 -7.046875 28.25 -6.109375 C 20.957031 -5.171875 14.148438 -6.101562 7.828125 -8.90625 C 1.503906 -11.707031 -2.671875 -16.546875 -4.703125 -23.421875 C -6.828125 -31.484375 -7.316406 -39.289062 -6.171875 -46.84375 C -5.023438 -54.394531 -1.863281 -61.523438 3.3125 -68.234375 C 9.164062 -75.523438 15.867188 -80.296875 23.421875 -82.546875 C 30.972656 -84.796875 39.207031 -84.863281 48.125 -82.75 C 50.914062 -82.0625 53.710938 -81.125 56.515625 -79.9375 C 57.878906 -79.425781 59.28125 -78.875 60.71875 -78.28125 C 65.21875 -83.882812 70.140625 -94.957031 75.484375 -111.5 C 80.828125 -128.050781 85.726562 -145.003906 90.1875 -162.359375 C 94.644531 -179.722656 97.722656 -192.304688 99.421875 -200.109375 C 104.679688 -223.617188 109.050781 -246.957031 112.53125 -270.125 C 114.988281 -285.0625 117.617188 -300.082031 120.421875 -315.1875 C 121.523438 -320.101562 124.328125 -323.304688 128.828125 -324.796875 C 133.328125 -326.285156 137.523438 -325.539062 141.421875 -322.5625 C 143.296875 -321.039062 144.234375 -319.175781 144.234375 -316.96875 C 143.628906 -289.644531 142.394531 -262.191406 140.53125 -234.609375 C 140.019531 -223.398438 139.46875 -212.453125 138.875 -201.765625 C 137.769531 -180.722656 136.984375 -159.65625 136.515625 -138.5625 C 136.054688 -117.46875 136.289062 -96.359375 137.21875 -75.234375 C 137.21875 -74.472656 137.21875 -73.625 137.21875 -72.6875 C 137.21875 -68.445312 137.597656 -63.375 138.359375 -57.46875 C 139.128906 -51.570312 140.679688 -46.566406 143.015625 -42.453125 C 145.347656 -38.335938 149.101562 -36.957031 154.28125 -38.3125 C 158.1875 -39.582031 162.15625 -41.703125 166.1875 -44.671875 C 170.21875 -47.648438 174.097656 -50.75 177.828125 -53.96875 C 181.222656 -56.9375 184.253906 -59.394531 186.921875 -61.34375 C 189.597656 -63.300781 191.785156 -64.195312 193.484375 -64.03125 Z M 32.71875 -27.625 C 37.382812 -32.882812 41.457031 -38.484375 44.9375 -44.421875 C 48.414062 -50.367188 51.8125 -56.988281 55.125 -64.28125 C 50.875 -66.320312 46.734375 -67.914062 42.703125 -69.0625 C 38.671875 -70.207031 34.785156 -70.035156 31.046875 -68.546875 C 27.316406 -67.066406 23.800781 -63.523438 20.5 -57.921875 C 14.300781 -46.890625 13.363281 -35.390625 17.6875 -23.421875 C 18.789062 -20.785156 20.316406 -19.617188 22.265625 -19.921875 C 24.222656 -20.222656 26.175781 -21.265625 28.125 -23.046875 C 30.082031 -24.828125 31.613281 -26.351562 32.71875 -27.625 Z M 32.71875 -27.625 "/></g></g></g></svg>