<svg xmlns="http://www.w3.org/2000/svg" xmlns:xlink="http://www.w3.org/1999/xlink" width="2000" zoomAndPan="magnify" viewBox="0 0 1500 1499.999933" height="2000" preserveAspectRatio="xMidYMid meet" version="1.0"><defs><g/><clipPath id="011f4df507"><path d="M 303.46875 303.46875 L 1196.519531 303.46875 L 1196.519531 1196.519531 L 303.46875 1196.519531 Z M 303.46875 303.46875 " clip-rule="nonzero"/></clipPath><clipPath id="456f851d8d"><path d="M 749.996094 303.46875 C 503.386719 303.46875 303.46875 503.386719 303.46875 749.996094 C 303.46875 996.605469 503.386719 1196.519531 749.996094 1196.519531 C 996.605469 1196.519531 1196.519531 996.605469 1196.519531 749.996094 C 1196.519531 503.386719 996.605469 303.46875 749.996094 303.46875 Z M 749.996094 303.46875 " clip-rule="nonzero"/></clipPath><clipPath id="af483c0c20"><rect x="0" width="792" y="0" height="687"/></clipPath><clipPath id="ae3184a0b2"><rect x="0" width="953" y="0" height="990"/></clipPath></defs><g clip-path="url(#011f4df507)"><g clip-path="url(#456f851d8d)"><path stroke-linecap="butt" transform="matrix(0.75, 0, 0, 0.75, 303.470162, 303.470109)" fill="none" stroke-linejoin="miter" d="M 595.36796 -0.00181208 C 266.555431 -0.00181208 -0.00188321 266.555503 -0.00188321 595.368031 C -0.00188321 924.180559 266.555431 1190.732665 595.36796 1190.732665 C 924.180488 1190.732665 1190.732594 924.180559 1190.732594 595.368031 C 1190.732594 266.555503 924.180488 -0.00181208 595.36796 -0.00181208 Z M 595.36796 -0.00181208 " stroke="#000000" stroke-width="24" stroke-opacity="1" stroke-miterlimit="4"/></g></g><g transform="matrix(1, 0, 0, 1, 369, 448)"><g clip-path="url(#af483c0c20)"><g fill="#e1e1e1" fill-opacity="1"><g transform="translate(0.948862, 497.427688)"><g><path d="M 204.15625 -346.4375 C 211.914062 -346.4375 220.554688 -346.347656 230.078125 -346.171875 C 239.597656 -346.003906 249.382812 -345.210938 259.4375 -343.796875 C 269.488281 -342.390625 279.445312 -340.1875 289.3125 -337.1875 C 299.1875 -334.1875 308.179688 -330.046875 316.296875 -324.765625 C 328.640625 -316.648438 337.191406 -307.390625 341.953125 -296.984375 C 346.710938 -286.585938 349.09375 -276.273438 349.09375 -266.046875 C 349.09375 -252.296875 346.359375 -240.75 340.890625 -231.40625 C 335.421875 -222.0625 328.457031 -214.390625 320 -208.390625 C 314 -204.160156 307.382812 -200.632812 300.15625 -197.8125 C 292.925781 -194.988281 285.519531 -192.609375 277.9375 -190.671875 C 270.363281 -188.734375 263.050781 -187.144531 256 -185.90625 C 248.945312 -184.675781 242.597656 -183.707031 236.953125 -183 L 236.953125 -178.25 C 241.535156 -177.539062 247.085938 -176.566406 253.609375 -175.328125 C 260.140625 -174.097656 266.753906 -172.6875 273.453125 -171.09375 C 280.148438 -169.507812 286.757812 -167.484375 293.28125 -165.015625 C 299.8125 -162.554688 305.546875 -159.5625 310.484375 -156.03125 C 316.472656 -151.445312 321.40625 -146.421875 325.28125 -140.953125 C 329.164062 -135.492188 332.164062 -129.941406 334.28125 -124.296875 C 336.394531 -118.648438 337.890625 -113.179688 338.765625 -107.890625 C 339.648438 -102.609375 340.269531 -97.851562 340.625 -93.625 L 344.328125 -52.890625 C 345.035156 -44.429688 346.445312 -37.734375 348.5625 -32.796875 C 350.675781 -27.859375 353.054688 -24.066406 355.703125 -21.421875 C 358.347656 -18.773438 361.164062 -17.097656 364.15625 -16.390625 C 367.15625 -15.691406 369.890625 -15.34375 372.359375 -15.34375 C 374.472656 -15.34375 376.675781 -15.867188 378.96875 -16.921875 C 381.257812 -17.984375 383.289062 -18.863281 385.0625 -19.5625 L 390.875 -8.984375 C 382.757812 -3.347656 373.410156 0.789062 362.828125 3.4375 C 352.253906 6.082031 341.859375 7.40625 331.640625 7.40625 C 324.234375 7.40625 315.859375 6.519531 306.515625 4.75 C 297.171875 2.988281 289.5 -0.179688 283.5 -4.765625 C 276.800781 -9.703125 271.507812 -17.191406 267.625 -27.234375 C 263.75 -37.285156 261.285156 -47.25 260.234375 -57.125 L 253.875 -111.609375 C 252.820312 -121.472656 251.328125 -130.988281 249.390625 -140.15625 C 247.453125 -149.332031 242.957031 -156.914062 235.90625 -162.90625 C 230.96875 -167.132812 224.351562 -170.21875 216.0625 -172.15625 C 207.78125 -174.101562 200.640625 -175.078125 194.640625 -175.078125 L 148.09375 -175.078125 L 148.09375 -11.640625 L 192.53125 -11.640625 L 192.53125 0 L 22.21875 0 L 22.21875 -11.640625 L 66.640625 -11.640625 L 66.640625 -334.8125 L 22.21875 -334.8125 L 22.21875 -346.4375 Z M 184.59375 -186.703125 C 193.757812 -186.703125 203.367188 -187.234375 213.421875 -188.296875 C 223.472656 -189.359375 232.550781 -193.585938 240.65625 -200.984375 C 247.707031 -207.691406 252.113281 -215.1875 253.875 -223.46875 C 255.644531 -231.757812 256.53125 -239.429688 256.53125 -246.484375 L 256.53125 -277.15625 C 256.53125 -285.96875 255.554688 -294.078125 253.609375 -301.484375 C 251.671875 -308.890625 246.117188 -315.941406 236.953125 -322.640625 C 228.847656 -328.640625 220.296875 -332.164062 211.296875 -333.21875 C 202.304688 -334.28125 194.109375 -334.8125 186.703125 -334.8125 L 148.09375 -334.8125 L 148.09375 -186.703125 Z M 184.59375 -186.703125 "/></g></g></g><g fill="#e1e1e1" fill-opacity="1"><g transform="translate(424.063477, 497.427688)"><g><path d="M 322.109375 -122.703125 L 317.875 0 L 303.078125 0 C 301.304688 -4.9375 298.742188 -8.640625 295.390625 -11.109375 C 292.046875 -13.578125 288.613281 -14.8125 285.09375 -14.8125 C 282.976562 -14.8125 280.421875 -14.367188 277.421875 -13.484375 C 274.421875 -12.609375 269.925781 -10.9375 263.9375 -8.46875 C 255.113281 -4.582031 245.585938 -0.96875 235.359375 2.375 C 225.140625 5.726562 211.390625 7.40625 194.109375 7.40625 C 172.953125 7.40625 154.441406 4.144531 138.578125 -2.375 C 122.710938 -8.90625 108.078125 -17.8125 94.671875 -29.09375 C 83.390625 -38.613281 73.253906 -49.367188 64.265625 -61.359375 C 55.273438 -73.347656 48.132812 -85.335938 42.84375 -97.328125 C 37.550781 -109.660156 33.757812 -121.910156 31.46875 -134.078125 C 29.175781 -146.242188 28.03125 -158.5 28.03125 -170.84375 C 28.03125 -188.46875 30.054688 -204.597656 34.109375 -219.234375 C 38.171875 -233.867188 43.195312 -247.003906 49.1875 -258.640625 C 55.1875 -270.273438 61.800781 -280.5 69.03125 -289.3125 C 76.257812 -298.132812 83.046875 -305.539062 89.390625 -311.53125 C 101.734375 -322.8125 116.71875 -332.679688 134.34375 -341.140625 C 151.976562 -349.609375 171.898438 -353.84375 194.109375 -353.84375 C 205.046875 -353.84375 215.097656 -352.785156 224.265625 -350.671875 C 233.429688 -348.554688 243.128906 -346.085938 253.359375 -343.265625 C 260.410156 -341.148438 265.695312 -339.472656 269.21875 -338.234375 C 272.75 -337.003906 275.921875 -336.390625 278.734375 -336.390625 C 281.554688 -336.390625 285.347656 -337.359375 290.109375 -339.296875 C 294.867188 -341.242188 297.601562 -346.09375 298.3125 -353.84375 L 313.125 -353.84375 L 314.171875 -234.84375 L 302.546875 -234.84375 C 299.722656 -248.238281 296.019531 -260.050781 291.4375 -270.28125 C 286.851562 -280.507812 281.914062 -289.5 276.625 -297.25 C 266.75 -312.0625 255.992188 -323.257812 244.359375 -330.84375 C 232.722656 -338.425781 218.972656 -342.21875 203.109375 -342.21875 C 188.296875 -342.21875 175.160156 -339.039062 163.703125 -332.6875 C 152.242188 -326.34375 143.335938 -317.878906 136.984375 -307.296875 C 135.222656 -304.128906 133.375 -300.164062 131.4375 -295.40625 C 129.5 -290.644531 127.734375 -284.648438 126.140625 -277.421875 C 124.554688 -270.191406 123.234375 -261.460938 122.171875 -251.234375 C 121.117188 -241.015625 120.59375 -229.023438 120.59375 -215.265625 L 120.59375 -142.28125 C 120.59375 -116.894531 122.351562 -95.738281 125.875 -78.8125 C 129.40625 -61.882812 135.398438 -47.601562 143.859375 -35.96875 C 151.617188 -25.382812 160.785156 -17.445312 171.359375 -12.15625 C 181.941406 -6.875 192.347656 -4.234375 202.578125 -4.234375 C 207.867188 -4.234375 213.863281 -5.023438 220.5625 -6.609375 C 227.257812 -8.191406 234.222656 -10.832031 241.453125 -14.53125 C 248.679688 -18.238281 255.910156 -23.175781 263.140625 -29.34375 C 270.367188 -35.519531 276.976562 -43.191406 282.96875 -52.359375 C 288.257812 -60.472656 292.929688 -69.992188 296.984375 -80.921875 C 301.046875 -91.859375 304.484375 -105.785156 307.296875 -122.703125 Z M 322.109375 -122.703125 "/></g></g></g></g></g><g fill="#000000" fill-opacity="1"><g transform="translate(462.235364, 865.858033)"><g><path d="M 29.921875 -51.171875 C 29.234375 -51.929688 28.65625 -49.597656 28.1875 -44.171875 C 27.726562 -38.742188 27.5 -31.675781 27.5 -22.96875 C 27.5 -14.269531 27.625 -5.445312 27.875 3.5 C 28.132812 12.457031 28.644531 19.925781 29.40625 25.90625 C 30.164062 31.882812 31.097656 34.875 32.203125 34.875 C 32.972656 33.519531 33.398438 28.875 33.484375 20.9375 C 33.566406 13 33.457031 3.898438 33.15625 -6.359375 C 32.863281 -16.628906 32.441406 -26.050781 31.890625 -34.625 C 31.335938 -43.195312 30.679688 -48.710938 29.921875 -51.171875 Z M 54.609375 -35.515625 C 54.265625 -27.796875 53.882812 -20.03125 53.46875 -12.21875 C 52.957031 1.019531 52.320312 14.257812 51.5625 27.5 C 50.625 43.195312 49.390625 58.894531 47.859375 74.59375 C 47.347656 78.925781 46.414062 83.128906 45.0625 87.203125 C 43.195312 94.078125 38.992188 97.515625 32.453125 97.515625 C 25.585938 97.765625 21.21875 94.492188 19.34375 87.703125 C 17.820312 80.828125 16.675781 73.828125 15.90625 66.703125 C 12.007812 24.179688 9.804688 -18.460938 9.296875 -61.234375 C 9.035156 -75.398438 9.035156 -89.484375 9.296875 -103.484375 C 9.460938 -110.191406 12.984375 -113.289062 19.859375 -112.78125 C 25.117188 -112.613281 27.832031 -109.898438 28 -104.640625 C 28.175781 -98.867188 28.265625 -92.96875 28.265625 -86.9375 C 28.265625 -82.695312 28.347656 -78.328125 28.515625 -73.828125 C 28.515625 -72.304688 28.8125 -70.738281 29.40625 -69.125 C 29.570312 -68.53125 29.65625 -68.0625 29.65625 -67.71875 C 29.65625 -67.46875 29.757812 -67.34375 29.96875 -67.34375 C 30.1875 -67.34375 30.378906 -67.34375 30.546875 -67.34375 C 30.722656 -67.34375 30.894531 -67.34375 31.0625 -67.34375 C 31.226562 -67.34375 31.457031 -67.40625 31.75 -67.53125 C 32.050781 -67.65625 32.285156 -67.800781 32.453125 -67.96875 C 32.453125 -68.476562 32.539062 -68.945312 32.71875 -69.375 C 33.3125 -71.070312 33.691406 -72.644531 33.859375 -74.09375 C 34.285156 -84.945312 34.5 -95.765625 34.5 -106.546875 C 34.5 -114.609375 34.582031 -122.671875 34.75 -130.734375 C 34.914062 -154.066406 34.914062 -177.488281 34.75 -201 C 34.582031 -215.9375 34.117188 -230.957031 33.359375 -246.0625 C 32.929688 -252.59375 32.628906 -259.210938 32.453125 -265.921875 C 32.453125 -267.273438 32.367188 -268.59375 32.203125 -269.875 C 32.035156 -272.332031 31.953125 -274.75 31.953125 -277.125 C 32.285156 -285.53125 36.398438 -289.09375 44.296875 -287.8125 C 48.535156 -287.050781 51.039062 -284.503906 51.8125 -280.171875 C 51.976562 -278.140625 52.273438 -276.101562 52.703125 -274.0625 C 53.378906 -268.632812 53.929688 -263.117188 54.359375 -257.515625 C 55.117188 -234.347656 55.5 -211.097656 55.5 -187.765625 C 55.5 -165.015625 55.375 -142.269531 55.125 -119.53125 C 55.125 -109.257812 55.035156 -98.988281 54.859375 -88.71875 C 54.859375 -87.957031 54.859375 -87.195312 54.859375 -86.4375 C 54.859375 -82.875 54.859375 -79.304688 54.859375 -75.734375 C 55.035156 -72.765625 55.695312 -70.769531 56.84375 -69.75 C 57.988281 -68.738281 60.046875 -68.398438 63.015625 -68.734375 C 102.984375 -71.796875 140.957031 -81.984375 176.9375 -99.296875 C 197.132812 -109.054688 215.335938 -121.65625 231.546875 -137.09375 C 243.679688 -148.894531 252.695312 -160.816406 258.59375 -172.859375 C 264.5 -184.910156 267.957031 -196.472656 268.96875 -207.546875 C 269.988281 -218.628906 269.394531 -228.960938 267.1875 -238.546875 C 263.289062 -254.929688 254.570312 -269.101562 241.03125 -281.0625 C 227.5 -293.03125 210.632812 -302.320312 190.4375 -308.9375 C 170.238281 -315.5625 148.234375 -319.019531 124.421875 -319.3125 C 100.617188 -319.613281 76.582031 -316.367188 52.3125 -309.578125 C 34.070312 -304.578125 16.550781 -297.578125 -0.25 -288.578125 C -9.757812 -283.578125 -18.546875 -277.34375 -26.609375 -269.875 C -30.335938 -266.476562 -33.515625 -262.828125 -36.140625 -258.921875 C -38.773438 -255.015625 -39.96875 -250.347656 -39.71875 -244.921875 C -39.71875 -243.054688 -40.375 -241.65625 -41.6875 -240.71875 C -43 -239.78125 -44.59375 -239.226562 -46.46875 -239.0625 C -48.5 -238.894531 -50.660156 -238.976562 -52.953125 -239.3125 C -57.023438 -240.25 -59.359375 -242.878906 -59.953125 -247.203125 C -60.128906 -251.453125 -59.195312 -255.65625 -57.15625 -259.8125 C -53.925781 -266.175781 -49.722656 -271.773438 -44.546875 -276.609375 C -38.523438 -282.554688 -32.015625 -287.773438 -25.015625 -292.265625 C -18.015625 -296.765625 -10.695312 -300.796875 -3.0625 -304.359375 C 28.082031 -318.878906 60.84375 -327.832031 95.21875 -331.21875 C 109.8125 -332.664062 125.59375 -332.878906 142.5625 -331.859375 C 159.539062 -330.835938 176.472656 -328.226562 193.359375 -324.03125 C 210.242188 -319.832031 225.921875 -313.722656 240.390625 -305.703125 C 254.867188 -297.679688 266.878906 -287.328125 276.421875 -274.640625 C 285.972656 -261.953125 291.851562 -246.738281 294.0625 -229 C 295.15625 -217.632812 294.40625 -206.625 291.8125 -195.96875 C 289.226562 -185.320312 285.222656 -174.945312 279.796875 -164.84375 C 269.523438 -146.769531 256.160156 -131.285156 239.703125 -118.390625 C 224.253906 -106.078125 207.785156 -95.765625 190.296875 -87.453125 C 172.816406 -79.140625 154.578125 -72.347656 135.578125 -67.078125 C 117.835938 -62.242188 99.800781 -58.894531 81.46875 -57.03125 C 80.363281 -57.03125 79.257812 -56.945312 78.15625 -56.78125 C 77.988281 -56.601562 77.691406 -56.515625 77.265625 -56.515625 C 76.503906 -56.515625 75.890625 -56.363281 75.421875 -56.0625 C 74.953125 -55.769531 74.632812 -55.242188 74.46875 -54.484375 C 74.125 -52.785156 74.890625 -51.679688 76.765625 -51.171875 C 78.460938 -50.410156 80.113281 -49.734375 81.71875 -49.140625 C 83.082031 -48.628906 84.484375 -48.078125 85.921875 -47.484375 C 115.117188 -36.453125 143.570312 -23.847656 171.28125 -9.671875 C 198.988281 4.492188 226.082031 19.679688 252.5625 35.890625 C 255.945312 37.765625 259.039062 40.015625 261.84375 42.640625 C 262.4375 43.066406 262.816406 43.679688 262.984375 44.484375 C 263.160156 45.296875 263.25 46.082031 263.25 46.84375 C 263.082031 48.195312 262.613281 49.191406 261.84375 49.828125 C 261.082031 50.472656 260.148438 50.960938 259.046875 51.296875 C 254.546875 52.484375 250.429688 51.765625 246.703125 49.140625 C 235.921875 43.367188 225.015625 37.679688 213.984375 32.078125 C 202.015625 25.546875 189.960938 19.097656 177.828125 12.734375 C 160.097656 3.222656 142.085938 -5.601562 123.796875 -13.75 C 105.503906 -21.894531 87.023438 -29.703125 68.359375 -37.171875 C 67.765625 -37.335938 67.210938 -37.59375 66.703125 -37.9375 C 65.003906 -38.695312 63.265625 -39.351562 61.484375 -39.90625 C 59.703125 -40.457031 58.148438 -40.457031 56.828125 -39.90625 C 55.515625 -39.351562 54.773438 -37.890625 54.609375 -35.515625 Z M 54.609375 -35.515625 "/></g></g><g transform="translate(720.396864, 865.858033)"><g><path d="M 140.921875 -66.578125 C 144.054688 -67.085938 146.003906 -66.976562 146.765625 -66.25 C 147.535156 -65.53125 147.707031 -64.320312 147.28125 -62.625 C 147.113281 -59.65625 145.90625 -57.046875 143.65625 -54.796875 C 141.40625 -52.546875 138.5 -50.570312 134.9375 -48.875 C 126.53125 -44.976562 118.316406 -42.707031 110.296875 -42.0625 C 102.273438 -41.425781 93.894531 -42.128906 85.15625 -44.171875 C 81.257812 -45.273438 77.953125 -45.316406 75.234375 -44.296875 C 72.515625 -43.273438 69.753906 -40.132812 66.953125 -34.875 C 59.992188 -21.46875 48.960938 -13.914062 33.859375 -12.21875 C 22.484375 -11.113281 14.082031 -13.253906 8.65625 -18.640625 C 3.226562 -24.035156 -0.207031 -30.929688 -1.65625 -39.328125 C -3.351562 -47.984375 -2.988281 -56.085938 -0.5625 -63.640625 C 1.851562 -71.203125 5.859375 -78.25 11.453125 -84.78125 C 15.785156 -89.445312 21.132812 -91.398438 27.5 -90.640625 C 30.46875 -90.640625 32.800781 -89.535156 34.5 -87.328125 C 35.425781 -85.796875 35.59375 -84.476562 35 -83.375 C 34.40625 -82.269531 33.554688 -81.253906 32.453125 -80.328125 C 23.296875 -70.734375 19.015625 -59.398438 19.609375 -46.328125 C 19.773438 -40.222656 21.554688 -34.625 24.953125 -29.53125 C 27.921875 -25.289062 31.65625 -24.65625 36.15625 -27.625 C 40.394531 -31.019531 44.144531 -35.6875 47.40625 -41.625 C 50.675781 -47.5625 52.546875 -53.671875 53.015625 -59.953125 C 53.484375 -66.234375 51.765625 -71.789062 47.859375 -76.625 C 45.828125 -78.5 43.878906 -79.816406 42.015625 -80.578125 C 41.078125 -81.085938 40.222656 -81.578125 39.453125 -82.046875 C 38.691406 -82.515625 38.3125 -83.128906 38.3125 -83.890625 C 38.144531 -88.210938 39.738281 -91.347656 43.09375 -93.296875 C 46.445312 -95.253906 50.5625 -96.234375 55.4375 -96.234375 C 60.3125 -96.234375 64.847656 -95.253906 69.046875 -93.296875 C 73.253906 -91.347656 75.992188 -88.507812 77.265625 -84.78125 C 78.628906 -79.945312 79.015625 -75.066406 78.421875 -70.140625 C 78.242188 -66.066406 79.9375 -62.925781 83.5 -60.71875 C 91.476562 -55.113281 100.222656 -53.117188 109.734375 -54.734375 C 113.722656 -55.503906 117.347656 -56.546875 120.609375 -57.859375 C 123.878906 -59.171875 127 -60.59375 129.96875 -62.125 C 133.875 -64.15625 137.523438 -65.640625 140.921875 -66.578125 Z M 140.921875 -66.578125 "/></g></g><g transform="translate(854.569556, 865.858033)"><g><path d="M 193.484375 -64.03125 C 196.285156 -63.4375 197.601562 -61.800781 197.4375 -59.125 C 197.269531 -56.457031 196.335938 -53.804688 194.640625 -51.171875 C 190.140625 -44.460938 184.390625 -38.539062 177.390625 -33.40625 C 170.390625 -28.28125 163.15625 -24.675781 155.6875 -22.59375 C 148.21875 -20.507812 141.253906 -20.867188 134.796875 -23.671875 C 128.347656 -26.472656 123.382812 -32.457031 119.90625 -41.625 C 116.6875 -49.851562 114.820312 -58.335938 114.3125 -67.078125 C 114.0625 -70.054688 113.890625 -77.484375 113.796875 -89.359375 C 113.710938 -101.242188 113.585938 -113.71875 113.421875 -126.78125 C 113.253906 -139.851562 113.171875 -149.65625 113.171875 -156.1875 C 113.171875 -159.15625 113.171875 -160.726562 113.171875 -160.90625 C 108.328125 -143.332031 102.640625 -125.125 96.109375 -106.28125 C 89.578125 -87.445312 84.910156 -74.847656 82.109375 -68.484375 C 76.671875 -56.773438 70.601562 -45.316406 63.90625 -34.109375 C 59.238281 -26.816406 53.632812 -20.285156 47.09375 -14.515625 C 41.832031 -9.847656 35.550781 -7.046875 28.25 -6.109375 C 20.957031 -5.171875 14.148438 -6.101562 7.828125 -8.90625 C 1.503906 -11.707031 -2.671875 -16.546875 -4.703125 -23.421875 C -6.828125 -31.484375 -7.316406 -39.289062 -6.171875 -46.84375 C -5.023438 -54.394531 -1.863281 -61.523438 3.3125 -68.234375 C 9.164062 -75.523438 15.867188 -80.296875 23.421875 -82.546875 C 30.972656 -84.796875 39.207031 -84.863281 48.125 -82.75 C 50.914062 -82.0625 53.710938 -81.125 56.515625 -79.9375 C 57.878906 -79.425781 59.28125 -78.875 60.71875 -78.28125 C 65.21875 -83.882812 70.140625 -94.957031 75.484375 -111.5 C 80.828125 -128.050781 85.726562 -145.003906 90.1875 -162.359375 C 94.644531 -179.722656 97.722656 -192.304688 99.421875 -200.109375 C 104.679688 -223.617188 109.050781 -246.957031 112.53125 -270.125 C 114.988281 -285.0625 117.617188 -300.082031 120.421875 -315.1875 C 121.523438 -320.101562 124.328125 -323.304688 128.828125 -324.796875 C 133.328125 -326.285156 137.523438 -325.539062 141.421875 -322.5625 C 143.296875 -321.039062 144.234375 -319.175781 144.234375 -316.96875 C 143.628906 -289.644531 142.394531 -262.191406 140.53125 -234.609375 C 140.019531 -223.398438 139.46875 -212.453125 138.875 -201.765625 C 137.769531 -180.722656 136.984375 -159.65625 136.515625 -138.5625 C 136.054688 -117.46875 136.289062 -96.359375 137.21875 -75.234375 C 137.21875 -74.472656 137.21875 -73.625 137.21875 -72.6875 C 137.21875 -68.445312 137.597656 -63.375 138.359375 -57.46875 C 139.128906 -51.570312 140.679688 -46.566406 143.015625 -42.453125 C 145.347656 -38.335938 149.101562 -36.957031 154.28125 -38.3125 C 158.1875 -39.582031 162.15625 -41.703125 166.1875 -44.671875 C 170.21875 -47.648438 174.097656 -50.75 177.828125 -53.96875 C 181.222656 -56.9375 184.253906 -59.394531 186.921875 -61.34375 C 189.597656 -63.300781 191.785156 -64.195312 193.484375 -64.03125 Z M 32.71875 -27.625 C 37.382812 -32.882812 41.457031 -38.484375 44.9375 -44.421875 C 48.414062 -50.367188 51.8125 -56.988281 55.125 -64.28125 C 50.875 -66.320312 46.734375 -67.914062 42.703125 -69.0625 C 38.671875 -70.207031 34.785156 -70.035156 31.046875 -68.546875 C 27.316406 -67.066406 23.800781 -63.523438 20.5 -57.921875 C 14.300781 -46.890625 13.363281 -35.390625 17.6875 -23.421875 C 18.789062 -20.785156 20.316406 -19.617188 22.265625 -19.921875 C 24.222656 -20.222656 26.175781 -21.265625 28.125 -23.046875 C 30.082031 -24.828125 31.613281 -26.351562 32.71875 -27.625 Z M 32.71875 -27.625 "/></g></g></g><g transform="matrix(1, 0, 0, 1, 480, 453)"><g clip-path="url(#ae3184a0b2)"><path fill="#ffffff" d="M 619.097656 24.871094 C 619.753906 24.324219 620.433594 23.808594 621.140625 23.324219 C 621.847656 22.839844 622.574219 22.390625 623.324219 21.980469 C 624.074219 21.566406 624.839844 21.191406 625.625 20.851562 C 626.410156 20.511719 627.210938 20.210938 628.027344 19.949219 C 628.839844 19.6875 629.667969 19.464844 630.503906 19.285156 C 631.339844 19.101562 632.179688 18.960938 633.03125 18.859375 C 633.878906 18.757812 634.734375 18.699219 635.589844 18.679688 C 636.445312 18.660156 637.296875 18.683594 638.152344 18.746094 C 639.003906 18.8125 639.851562 18.917969 640.695312 19.0625 C 641.539062 19.207031 642.375 19.394531 643.199219 19.621094 C 644.023438 19.847656 644.835938 20.109375 645.636719 20.414062 C 646.433594 20.71875 647.21875 21.0625 647.984375 21.441406 C 648.75 21.824219 649.496094 22.238281 650.222656 22.691406 C 650.949219 23.144531 651.652344 23.628906 652.332031 24.148438 C 653.011719 24.667969 653.664062 25.21875 654.292969 25.804688 C 654.917969 26.386719 655.515625 27 656.082031 27.636719 C 660.375 33.070312 664.542969 38.597656 668.59375 44.210938 C 672.644531 49.828125 676.566406 55.527344 680.367188 61.316406 C 684.167969 67.105469 687.835938 72.972656 691.378906 78.921875 C 694.921875 84.871094 698.332031 90.894531 701.609375 96.992188 C 704.890625 103.089844 708.03125 109.257812 711.039062 115.492188 C 714.046875 121.730469 716.917969 128.027344 719.648438 134.390625 C 722.382812 140.75 724.972656 147.167969 727.421875 153.644531 C 729.875 160.121094 732.179688 166.644531 734.34375 173.222656 C 736.507812 179.800781 738.527344 186.417969 740.402344 193.085938 C 742.277344 199.75 744.003906 206.453125 745.585938 213.191406 C 747.164062 219.933594 748.597656 226.707031 749.882812 233.507812 C 751.164062 240.3125 752.296875 247.140625 753.28125 253.992188 C 754.265625 260.847656 755.101562 267.71875 755.785156 274.609375 C 756.46875 281.496094 757 288.398438 757.378906 295.3125 C 757.761719 302.226562 757.988281 309.144531 758.066406 316.066406 C 758.144531 322.988281 758.070312 329.910156 757.84375 336.832031 C 757.617188 343.75 757.238281 350.660156 756.710938 357.566406 C 756.183594 364.46875 755.503906 371.355469 754.671875 378.230469 C 753.839844 385.101562 752.859375 391.953125 751.726562 398.785156 C 750.597656 405.617188 749.316406 412.417969 747.886719 419.191406 C 746.457031 425.96875 744.878906 432.707031 743.15625 439.410156 C 741.429688 446.117188 739.558594 452.78125 737.542969 459.402344 C 735.527344 466.027344 733.367188 472.601562 731.058594 479.132812 C 728.753906 485.660156 726.308594 492.136719 723.71875 498.554688 C 721.128906 504.976562 718.402344 511.339844 715.535156 517.640625 C 712.667969 523.941406 709.660156 530.175781 706.519531 536.347656 C 703.378906 542.515625 700.105469 548.617188 696.695312 554.640625 C 693.289062 560.667969 689.75 566.617188 686.078125 572.488281 C 682.410156 578.359375 678.613281 584.148438 674.691406 589.851562 C 670.769531 595.558594 666.722656 601.171875 662.554688 606.699219 C 658.386719 612.226562 654.097656 617.660156 649.691406 623 C 645.28125 628.339844 640.761719 633.582031 636.125 638.722656 C 631.488281 643.863281 626.738281 648.902344 621.882812 653.835938 C 617.023438 658.769531 612.058594 663.59375 606.992188 668.308594 C 601.921875 673.023438 596.753906 677.625 591.480469 682.113281 C 586.210938 686.605469 580.84375 690.976562 575.382812 695.230469 C 569.917969 699.484375 564.367188 703.617188 558.722656 707.625 C 553.078125 711.636719 547.347656 715.519531 541.535156 719.28125 C 535.722656 723.039062 529.828125 726.667969 523.855469 730.171875 C 517.882812 733.671875 511.835938 737.039062 505.714844 740.277344 C 499.59375 743.511719 493.40625 746.613281 487.148438 749.578125 C 480.890625 752.542969 474.574219 755.367188 468.191406 758.054688 C 461.8125 760.742188 455.375 763.289062 448.882812 765.695312 C 442.390625 768.101562 435.851562 770.363281 429.257812 772.484375 C 422.667969 774.601562 416.035156 776.574219 409.355469 778.402344 C 402.679688 780.230469 395.964844 781.910156 389.210938 783.445312 C 382.460938 784.980469 375.679688 786.363281 368.867188 787.601562 C 362.054688 788.835938 355.21875 789.925781 348.359375 790.859375 C 341.5 791.796875 334.621094 792.585938 327.726562 793.21875 C 320.832031 793.855469 313.929688 794.339844 307.011719 794.671875 C 300.097656 795.003906 293.179688 795.183594 286.253906 795.214844 C 279.332031 795.246094 272.410156 795.121094 265.492188 794.847656 C 258.574219 794.574219 251.664062 794.148438 244.765625 793.574219 C 237.867188 792.996094 230.984375 792.269531 224.117188 791.390625 C 217.25 790.511719 210.402344 789.484375 203.582031 788.304688 C 196.757812 787.125 189.964844 785.796875 183.203125 784.324219 C 176.4375 782.847656 169.707031 781.222656 163.015625 779.453125 C 156.324219 777.679688 149.671875 775.761719 143.0625 773.699219 C 136.453125 771.636719 129.890625 769.429688 123.378906 767.082031 C 116.867188 764.730469 110.410156 762.238281 104.007812 759.605469 C 97.605469 756.972656 91.261719 754.199219 84.980469 751.289062 C 78.699219 748.378906 72.484375 745.328125 66.335938 742.144531 C 60.1875 738.960938 54.113281 735.644531 48.109375 732.195312 C 42.105469 728.746094 36.183594 725.164062 30.335938 721.457031 C 29.640625 720.957031 28.972656 720.425781 28.328125 719.863281 C 27.683594 719.300781 27.066406 718.707031 26.480469 718.085938 C 25.894531 717.464844 25.335938 716.8125 24.8125 716.136719 C 24.289062 715.460938 23.796875 714.761719 23.339844 714.039062 C 22.882812 713.316406 22.460938 712.570312 22.078125 711.808594 C 21.691406 711.042969 21.34375 710.261719 21.035156 709.464844 C 20.726562 708.667969 20.453125 707.855469 20.222656 707.035156 C 19.992188 706.210938 19.800781 705.375 19.648438 704.535156 C 19.496094 703.691406 19.386719 702.84375 19.316406 701.992188 C 19.246094 701.140625 19.21875 700.285156 19.230469 699.429688 C 19.246094 698.574219 19.300781 697.722656 19.394531 696.871094 C 19.488281 696.019531 19.625 695.175781 19.800781 694.339844 C 19.976562 693.503906 20.195312 692.675781 20.453125 691.859375 C 20.707031 691.042969 21.003906 690.242188 21.335938 689.453125 C 21.671875 688.664062 22.042969 687.894531 22.449219 687.144531 C 22.855469 686.390625 23.300781 685.660156 23.777344 684.949219 L 60.152344 634.175781 C 60.644531 633.429688 61.171875 632.714844 61.738281 632.023438 C 62.300781 631.332031 62.898438 630.671875 63.53125 630.042969 C 64.160156 629.410156 64.820312 628.8125 65.511719 628.25 C 66.203125 627.683594 66.917969 627.15625 67.664062 626.664062 C 68.40625 626.171875 69.175781 625.71875 69.964844 625.304688 C 70.753906 624.890625 71.5625 624.515625 72.386719 624.183594 C 73.214844 623.847656 74.058594 623.558594 74.914062 623.308594 C 75.769531 623.058594 76.636719 622.855469 77.511719 622.691406 C 78.390625 622.53125 79.273438 622.414062 80.160156 622.339844 C 81.050781 622.265625 81.941406 622.238281 82.832031 622.253906 C 83.722656 622.269531 84.613281 622.332031 85.5 622.4375 C 86.382812 622.542969 87.261719 622.695312 88.132812 622.886719 C 89.003906 623.082031 89.859375 623.320312 90.707031 623.601562 C 91.554688 623.878906 92.382812 624.203125 93.199219 624.566406 C 94.011719 624.929688 94.804688 625.335938 95.582031 625.777344 C 96.355469 626.222656 97.101562 626.703125 97.828125 627.222656 C 102.238281 629.910156 106.707031 632.503906 111.230469 635 C 115.753906 637.492188 120.328125 639.890625 124.953125 642.1875 C 129.582031 644.484375 134.257812 646.679688 138.976562 648.773438 C 143.699219 650.871094 148.464844 652.863281 153.273438 654.75 C 158.082031 656.640625 162.929688 658.421875 167.8125 660.101562 C 172.699219 661.78125 177.617188 663.355469 182.570312 664.820312 C 187.523438 666.285156 192.507812 667.644531 197.519531 668.894531 C 202.53125 670.144531 207.566406 671.289062 212.628906 672.320312 C 217.691406 673.351562 222.773438 674.277344 227.875 675.089844 C 232.976562 675.902344 238.09375 676.605469 243.222656 677.195312 C 248.355469 677.789062 253.496094 678.265625 258.648438 678.636719 C 263.804688 679.003906 268.960938 679.261719 274.125 679.410156 C 279.289062 679.554688 284.453125 679.589844 289.617188 679.511719 C 294.785156 679.433594 299.945312 679.246094 305.101562 678.945312 C 310.257812 678.640625 315.40625 678.230469 320.546875 677.707031 C 325.683594 677.183594 330.808594 676.546875 335.921875 675.804688 C 341.035156 675.058594 346.125 674.203125 351.203125 673.238281 C 356.277344 672.269531 361.328125 671.195312 366.355469 670.011719 C 371.382812 668.828125 376.382812 667.535156 381.355469 666.132812 C 386.328125 664.734375 391.269531 663.226562 396.175781 661.613281 C 401.082031 659.996094 405.953125 658.277344 410.785156 656.453125 C 415.617188 654.628906 420.410156 652.699219 425.15625 650.667969 C 429.90625 648.632812 434.609375 646.5 439.265625 644.265625 C 443.925781 642.027344 448.53125 639.691406 453.085938 637.257812 C 457.640625 634.824219 462.144531 632.289062 466.589844 629.660156 C 471.035156 627.03125 475.421875 624.304688 479.75 621.484375 C 484.078125 618.667969 488.34375 615.753906 492.546875 612.75 C 496.75 609.746094 500.886719 606.652344 504.953125 603.46875 C 509.023438 600.285156 513.019531 597.015625 516.945312 593.660156 C 520.875 590.304688 524.726562 586.863281 528.503906 583.34375 C 532.28125 579.820312 535.984375 576.214844 539.605469 572.535156 C 543.226562 568.851562 546.769531 565.089844 550.230469 561.253906 C 553.6875 557.417969 557.0625 553.511719 560.355469 549.527344 C 563.644531 545.546875 566.847656 541.496094 569.964844 537.375 C 573.078125 533.253906 576.101562 529.066406 579.039062 524.816406 C 581.972656 520.5625 584.8125 516.25 587.558594 511.875 C 590.308594 507.503906 592.960938 503.070312 595.515625 498.582031 C 598.070312 494.089844 600.527344 489.550781 602.886719 484.953125 C 605.246094 480.359375 607.507812 475.714844 609.664062 471.019531 C 611.824219 466.328125 613.878906 461.589844 615.832031 456.808594 C 617.785156 452.023438 619.632812 447.203125 621.378906 442.339844 C 623.125 437.480469 624.761719 432.582031 626.296875 427.648438 C 627.828125 422.714844 629.253906 417.75 630.570312 412.757812 C 631.890625 407.761719 633.101562 402.742188 634.199219 397.691406 C 635.300781 392.644531 636.292969 387.578125 637.175781 382.488281 C 638.054688 377.398438 638.828125 372.289062 639.488281 367.167969 C 640.148438 362.042969 640.699219 356.910156 641.136719 351.761719 C 641.574219 346.613281 641.902344 341.460938 642.117188 336.300781 C 642.332031 331.136719 642.4375 325.972656 642.429688 320.808594 C 642.421875 315.644531 642.300781 310.480469 642.070312 305.320312 C 641.835938 300.160156 641.496094 295.003906 641.039062 289.859375 C 640.585938 284.714844 640.019531 279.582031 639.34375 274.457031 C 638.667969 269.335938 637.882812 264.234375 636.984375 259.144531 C 636.085938 254.058594 635.078125 248.992188 633.964844 243.949219 C 632.847656 238.90625 631.621094 233.886719 630.289062 228.898438 C 628.953125 223.90625 627.515625 218.949219 625.964844 214.019531 C 624.417969 209.089844 622.765625 204.199219 621.003906 199.339844 C 619.246094 194.484375 617.378906 189.667969 615.414062 184.890625 C 613.445312 180.117188 611.375 175.382812 609.199219 170.699219 C 607.027344 166.011719 604.753906 161.375 602.382812 156.785156 C 600.007812 152.199219 597.535156 147.664062 594.96875 143.179688 C 592.398438 138.699219 589.730469 134.277344 586.96875 129.910156 C 584.210938 125.542969 581.355469 121.242188 578.40625 116.996094 C 575.460938 112.753906 572.421875 108.578125 569.296875 104.46875 C 568.703125 103.800781 568.148438 103.105469 567.628906 102.378906 C 567.105469 101.65625 566.621094 100.910156 566.175781 100.136719 C 565.730469 99.363281 565.324219 98.570312 564.957031 97.757812 C 564.59375 96.945312 564.269531 96.113281 563.984375 95.269531 C 563.703125 94.421875 563.464844 93.566406 563.265625 92.695312 C 563.070312 91.824219 562.917969 90.949219 562.808594 90.0625 C 562.703125 89.179688 562.636719 88.289062 562.621094 87.398438 C 562.601562 86.507812 562.625 85.617188 562.699219 84.726562 C 562.769531 83.839844 562.882812 82.953125 563.042969 82.078125 C 563.203125 81.199219 563.40625 80.332031 563.652344 79.476562 C 563.898438 78.617188 564.1875 77.777344 564.519531 76.949219 C 564.851562 76.121094 565.222656 75.3125 565.636719 74.519531 C 566.046875 73.730469 566.5 72.960938 566.992188 72.21875 C 567.480469 71.472656 568.007812 70.753906 568.570312 70.0625 C 569.132812 69.371094 569.726562 68.707031 570.355469 68.074219 C 570.984375 67.441406 571.644531 66.84375 572.332031 66.277344 Z M 619.097656 24.871094 " fill-opacity="1" fill-rule="nonzero"/><g fill="#000000" fill-opacity="1"><g transform="translate(70.774117, 702.525532)"><g><path d="M 33.984375 11.3125 L 31.734375 15.8125 L 5.4375 2.703125 L 23.5 -33.53125 L 49.0625 -20.78125 L 46.8125 -16.28125 L 26.421875 -26.4375 L 20.875 -15.296875 L 39.046875 -6.25 L 36.859375 -1.859375 L 18.6875 -10.90625 L 12.859375 0.796875 Z M 33.984375 11.3125 "/></g></g></g><g fill="#000000" fill-opacity="1"><g transform="translate(124.025935, 727.791807)"><g><path d="M 18.390625 -36.578125 L 34.59375 -31.265625 C 38.664062 -29.929688 42.007812 -27.941406 44.625 -25.296875 C 47.25 -22.660156 48.953125 -19.597656 49.734375 -16.109375 C 50.523438 -12.628906 50.304688 -9.003906 49.078125 -5.234375 C 47.835938 -1.453125 45.867188 1.601562 43.171875 3.9375 C 40.472656 6.28125 37.285156 7.742188 33.609375 8.328125 C 29.929688 8.910156 26.054688 8.535156 21.984375 7.203125 L 5.78125 1.890625 Z M 23.21875 2.3125 C 26.332031 3.332031 29.269531 3.625 32.03125 3.1875 C 34.789062 2.757812 37.171875 1.664062 39.171875 -0.09375 C 41.171875 -1.851562 42.640625 -4.164062 43.578125 -7.03125 C 44.503906 -9.875 44.6875 -12.597656 44.125 -15.203125 C 43.5625 -17.804688 42.296875 -20.097656 40.328125 -22.078125 C 38.359375 -24.066406 35.816406 -25.570312 32.703125 -26.59375 L 22.3125 -30 L 12.828125 -1.09375 Z M 23.21875 2.3125 "/></g></g></g><g fill="#000000" fill-opacity="1"><g transform="translate(189.232254, 747.423091)"><g><path d="M 22.46875 4.171875 C 17.144531 3.296875 13.242188 1.085938 10.765625 -2.453125 C 8.296875 -5.992188 7.53125 -10.613281 8.46875 -16.3125 L 12.1875 -39.03125 L 17.90625 -38.09375 L 14.21875 -15.609375 C 12.820312 -7.046875 15.875 -2.148438 23.375 -0.921875 C 27.019531 -0.316406 29.984375 -0.910156 32.265625 -2.703125 C 34.554688 -4.503906 36.054688 -7.570312 36.765625 -11.90625 L 40.453125 -34.390625 L 45.984375 -33.484375 L 42.265625 -10.765625 C 41.316406 -5.023438 39.113281 -0.882812 35.65625 1.65625 C 32.195312 4.207031 27.800781 5.046875 22.46875 4.171875 Z M 22.46875 4.171875 "/></g></g></g><g fill="#000000" fill-opacity="1"><g transform="translate(254.549626, 756.508197)"><g><path d="M 32.03125 -9.640625 L 10.515625 -9.96875 L 5.90625 0.09375 L -0.0625 0 L 18.890625 -40.203125 L 24.609375 -40.125 L 42.40625 0.640625 L 36.328125 0.546875 Z M 30.0625 -14.296875 L 21.625 -34.28125 L 12.59375 -14.5625 Z M 30.0625 -14.296875 "/></g></g></g><g fill="#000000" fill-opacity="1"><g transform="translate(316.991571, 755.991678)"><g><path d="M 24.03125 -2.609375 C 20.03125 -2.097656 16.296875 -2.523438 12.828125 -3.890625 C 9.367188 -5.253906 6.519531 -7.378906 4.28125 -10.265625 C 2.050781 -13.148438 0.6875 -16.539062 0.1875 -20.4375 C -0.3125 -24.332031 0.148438 -27.957031 1.578125 -31.3125 C 3.015625 -34.664062 5.242188 -37.441406 8.265625 -39.640625 C 11.285156 -41.835938 14.800781 -43.195312 18.8125 -43.71875 C 21.957031 -44.113281 24.894531 -43.945312 27.625 -43.21875 C 30.363281 -42.5 32.785156 -41.226562 34.890625 -39.40625 L 31.609375 -35.3125 C 28.191406 -38.101562 24.222656 -39.207031 19.703125 -38.625 C 16.722656 -38.25 14.113281 -37.234375 11.875 -35.578125 C 9.632812 -33.921875 7.988281 -31.832031 6.9375 -29.3125 C 5.882812 -26.789062 5.546875 -24.078125 5.921875 -21.171875 C 6.296875 -18.265625 7.3125 -15.71875 8.96875 -13.53125 C 10.625 -11.351562 12.742188 -9.753906 15.328125 -8.734375 C 17.910156 -7.710938 20.691406 -7.390625 23.671875 -7.765625 C 28.148438 -8.347656 31.707031 -10.4375 34.34375 -14.03125 L 38.546875 -10.90625 C 36.972656 -8.601562 34.945312 -6.742188 32.46875 -5.328125 C 29.988281 -3.921875 27.175781 -3.015625 24.03125 -2.609375 Z M 24.03125 -2.609375 "/></g></g></g><g fill="#000000" fill-opacity="1"><g transform="translate(377.553676, 746.414505)"><g><path d="M -3.765625 -40.765625 L 1.84375 -42.140625 L 11.515625 -2.828125 L 5.90625 -1.453125 Z M -3.765625 -40.765625 "/></g></g></g><g fill="#000000" fill-opacity="1"><g transform="translate(414.076629, 737.159162)"><g><path d="M 22.953125 -8.203125 C 19.117188 -6.753906 15.347656 -6.285156 11.640625 -6.796875 C 7.941406 -7.316406 4.65625 -8.722656 1.78125 -11.015625 C -1.082031 -13.304688 -3.207031 -16.273438 -4.59375 -19.921875 C -5.976562 -23.554688 -6.351562 -27.1875 -5.71875 -30.8125 C -5.09375 -34.4375 -3.566406 -37.664062 -1.140625 -40.5 C 1.285156 -43.332031 4.414062 -45.472656 8.25 -46.921875 C 12.019531 -48.359375 15.753906 -48.820312 19.453125 -48.3125 C 23.160156 -47.8125 26.4375 -46.414062 29.28125 -44.125 C 32.125 -41.832031 34.242188 -38.851562 35.640625 -35.1875 C 37.035156 -31.5 37.425781 -27.859375 36.8125 -24.265625 C 36.195312 -20.679688 34.675781 -17.46875 32.25 -14.625 C 29.820312 -11.78125 26.722656 -9.640625 22.953125 -8.203125 Z M 21.125 -13.015625 C 23.894531 -14.066406 26.144531 -15.644531 27.875 -17.75 C 29.613281 -19.863281 30.703125 -22.269531 31.140625 -24.96875 C 31.578125 -27.664062 31.273438 -30.390625 30.234375 -33.140625 C 29.191406 -35.867188 27.609375 -38.097656 25.484375 -39.828125 C 23.367188 -41.566406 20.960938 -42.644531 18.265625 -43.0625 C 15.578125 -43.488281 12.847656 -43.175781 10.078125 -42.125 C 7.285156 -41.070312 5.003906 -39.484375 3.234375 -37.359375 C 1.460938 -35.242188 0.359375 -32.832031 -0.078125 -30.125 C -0.523438 -27.414062 -0.226562 -24.695312 0.8125 -21.96875 C 1.851562 -19.21875 3.4375 -16.976562 5.5625 -15.25 C 7.6875 -13.53125 10.113281 -12.460938 12.84375 -12.046875 C 15.570312 -11.640625 18.332031 -11.960938 21.125 -13.015625 Z M 7.859375 -57.859375 L 14.453125 -60.359375 L 8.046875 -49.890625 L 3.1875 -48.046875 Z M 7.859375 -57.859375 "/></g></g></g><g fill="#000000" fill-opacity="1"><g transform="translate(477.938201, 711.135986)"><g><path d="M 15.40625 -55.4375 L 35.5 -20.296875 L 31.390625 -17.9375 L -4.6875 -32.09375 L 10.296875 -5.890625 L 5.28125 -3.015625 L -14.8125 -38.15625 L -10.703125 -40.5 L 25.375 -26.359375 L 10.390625 -52.5625 Z M 15.40625 -55.4375 "/></g></g></g><g fill="#000000" fill-opacity="1"><g transform="translate(534.636893, 676.357757)"><g/></g></g><g fill="#000000" fill-opacity="1"><g transform="translate(561.941851, 655.288619)"><g><path d="M -22.0625 -34.484375 L -17.703125 -38.28125 L 8.9375 -7.796875 L 4.578125 -4 Z M -22.0625 -34.484375 "/></g></g></g><g fill="#000000" fill-opacity="1"><g transform="translate(590.076771, 630.297369)"><g><path d="M -2.71875 -57.484375 L 27.359375 -30.390625 L 24.1875 -26.875 L -14.5 -29.015625 L 7.9375 -8.8125 L 4.0625 -4.515625 L -26.015625 -31.609375 L -22.84375 -35.125 L 15.84375 -32.984375 L -6.578125 -53.1875 Z M -2.71875 -57.484375 "/></g></g></g><g fill="#000000" fill-opacity="1"><g transform="translate(634.250607, 579.216197)"><g><path d="M 23.484375 -36.75 L -1.40625 -52.59375 L 11.4375 -27.03125 L 10 -24.78125 L -18.453125 -25.59375 L 6.265625 -9.796875 L 3.265625 -5.125 L -30.84375 -26.921875 L -28.28125 -30.90625 L 4.78125 -29.828125 L -10.21875 -59.171875 L -7.671875 -63.171875 L 26.484375 -41.4375 Z M 23.484375 -36.75 "/></g></g></g><g fill="#000000" fill-opacity="1"><g transform="translate(673.371379, 514.294041)"><g><path d="M 9.96875 -22.234375 C 8.363281 -18.460938 6.09375 -15.421875 3.15625 -13.109375 C 0.21875 -10.796875 -3.066406 -9.398438 -6.703125 -8.921875 C -10.335938 -8.441406 -13.953125 -8.960938 -17.546875 -10.484375 C -21.128906 -12.015625 -24.007812 -14.253906 -26.1875 -17.203125 C -28.363281 -20.160156 -29.632812 -23.5 -30 -27.21875 C -30.375 -30.9375 -29.757812 -34.679688 -28.15625 -38.453125 C -26.570312 -42.171875 -24.3125 -45.1875 -21.375 -47.5 C -18.4375 -49.8125 -15.15625 -51.203125 -11.53125 -51.671875 C -7.914062 -52.148438 -4.304688 -51.617188 -0.703125 -50.078125 C 2.921875 -48.535156 5.816406 -46.296875 7.984375 -43.359375 C 10.148438 -40.429688 11.414062 -37.109375 11.78125 -33.390625 C 12.15625 -29.671875 11.550781 -25.953125 9.96875 -22.234375 Z M 5.21875 -24.25 C 6.382812 -26.976562 6.8125 -29.695312 6.5 -32.40625 C 6.1875 -35.125 5.207031 -37.578125 3.5625 -39.765625 C 1.914062 -41.953125 -0.257812 -43.617188 -2.96875 -44.765625 C -5.65625 -45.910156 -8.359375 -46.316406 -11.078125 -45.984375 C -13.796875 -45.648438 -16.238281 -44.65625 -18.40625 -43 C -20.582031 -41.351562 -22.253906 -39.164062 -23.421875 -36.4375 C -24.585938 -33.6875 -25.019531 -30.9375 -24.71875 -28.1875 C -24.414062 -25.445312 -23.4375 -22.984375 -21.78125 -20.796875 C -20.132812 -18.609375 -17.96875 -16.941406 -15.28125 -15.796875 C -12.570312 -14.648438 -9.859375 -14.242188 -7.140625 -14.578125 C -4.429688 -14.910156 -1.988281 -15.914062 0.1875 -17.59375 C 2.375 -19.28125 4.050781 -21.5 5.21875 -24.25 Z M 5.21875 -24.25 "/></g></g></g><g fill="#000000" fill-opacity="1"><g transform="translate(698.731899, 450.259789)"><g><path d="M -12.125 -37.46875 C -10.90625 -39.582031 -9.296875 -41.082031 -7.296875 -41.96875 C -5.304688 -42.851562 -3.039062 -42.972656 -0.5 -42.328125 C 2.894531 -41.460938 5.179688 -39.515625 6.359375 -36.484375 C 7.546875 -33.460938 7.515625 -29.503906 6.265625 -24.609375 L 1.5 -5.890625 L -37.734375 -15.890625 L -33.25 -33.484375 C -32.101562 -37.960938 -30.320312 -41.195312 -27.90625 -43.1875 C -25.5 -45.175781 -22.703125 -45.765625 -19.515625 -44.953125 C -17.472656 -44.429688 -15.820312 -43.503906 -14.5625 -42.171875 C -13.3125 -40.847656 -12.5 -39.28125 -12.125 -37.46875 Z M -31.78125 -20.328125 L -19.21875 -17.125 L -16.28125 -28.625 C -15.550781 -31.5 -15.519531 -33.847656 -16.1875 -35.671875 C -16.851562 -37.492188 -18.21875 -38.671875 -20.28125 -39.203125 C -22.34375 -39.722656 -24.101562 -39.34375 -25.5625 -38.0625 C -27.019531 -36.78125 -28.113281 -34.703125 -28.84375 -31.828125 Z M 1.671875 -25.53125 C 2.472656 -28.707031 2.554688 -31.234375 1.921875 -33.109375 C 1.296875 -34.984375 -0.132812 -36.207031 -2.375 -36.78125 C -6.75 -37.894531 -9.75 -35.253906 -11.375 -28.859375 L -14.671875 -15.96875 L -1.625 -12.640625 Z M 1.671875 -25.53125 "/></g></g></g><g fill="#000000" fill-opacity="1"><g transform="translate(712.541961, 388.458301)"><g><path d="M -39.3125 -11.421875 L -38.546875 -17.140625 L 1.578125 -11.75 L 0.8125 -6.03125 Z M -39.3125 -11.421875 "/></g></g></g><g fill="#000000" fill-opacity="1"><g transform="translate(716.934526, 351.404973)"><g><path d="M -40.296875 -7.265625 L -40.125 -13.046875 L -4.6875 -12 L -4.046875 -33.90625 L 0.984375 -33.765625 L 0.171875 -6.078125 Z M -40.296875 -7.265625 "/></g></g></g><g fill="#000000" fill-opacity="1"><g transform="translate(717.064887, 297.71264)"><g><path d="M -40.828125 -3.015625 L -41.265625 -8.78125 L -0.890625 -11.828125 L -0.453125 -6.0625 Z M -40.828125 -3.015625 "/></g></g></g><g fill="#000000" fill-opacity="1"><g transform="translate(713.813834, 260.337604)"><g><path d="M -15.9375 -29.390625 L -11.890625 -8.265625 L -1.109375 -5.796875 L 0.015625 0.0625 L -43.203125 -10.328125 L -44.28125 -15.953125 L -7.984375 -41.640625 L -6.84375 -35.671875 Z M -20.109375 -26.53125 L -37.9375 -14.21875 L -16.8125 -9.375 Z M -20.109375 -26.53125 "/></g></g></g><g fill="#000000" fill-opacity="1"><g transform="translate(700.635628, 199.297839)"><g><path d="M -10.8125 -31.328125 L -19.71875 -19 C -19.300781 -18.007812 -18.992188 -17.21875 -18.796875 -16.625 L -15.53125 -7.171875 L -3.875 -11.203125 L -1.984375 -5.75 L -40.25 7.46875 L -45.40625 -7.4375 C -47.113281 -12.40625 -47.273438 -16.71875 -45.890625 -20.375 C -44.503906 -24.03125 -41.738281 -26.578125 -37.59375 -28.015625 C -34.632812 -29.035156 -31.863281 -29.175781 -29.28125 -28.4375 C -26.695312 -27.695312 -24.460938 -26.140625 -22.578125 -23.765625 L -12.875 -37.296875 Z M -23.375 -14.875 C -24.570312 -18.34375 -26.234375 -20.726562 -28.359375 -22.03125 C -30.484375 -23.332031 -32.929688 -23.503906 -35.703125 -22.546875 C -38.460938 -21.585938 -40.265625 -19.941406 -41.109375 -17.609375 C -41.960938 -15.285156 -41.789062 -12.390625 -40.59375 -8.921875 L -37.390625 0.375 L -20.171875 -5.578125 Z M -23.375 -14.875 "/></g></g></g><g fill="#000000" fill-opacity="1"><g transform="translate(678.857557, 141.728766)"><g><path d="M -39.140625 11.984375 L -41.640625 6.765625 L -5.125 -10.703125 L -2.625 -5.484375 Z M -39.140625 11.984375 "/></g></g></g><g fill="#000000" fill-opacity="1"><g transform="translate(662.278163, 108.070388)"><g><path d="M -25.515625 -21.625 L -14.078125 -3.40625 L -3.140625 -5 L 0.03125 0.046875 L -44.015625 6.03125 L -47.046875 1.1875 L -22.546875 -35.921875 L -19.3125 -30.765625 Z M -28.359375 -17.4375 L -40.515625 0.515625 L -19.078125 -2.640625 Z M -28.359375 -17.4375 "/></g></g></g></g></g></svg>